<svg xmlns="http://www.w3.org/2000/svg" width="62" height="50" viewBox="0 0 62 50"><path fill="#707070" d="M5.86 31.32S6.43 29 4.48 27c-1.95-2-4.39-2-4.39-2s-.6 2.73 1.31 4.68c1.9 1.94 4.46 1.64 4.46 1.64zm29.55.93V11h-5.04a4.42 4.42 0 0 1-.63 2.21c-.38.6-.87 1.08-1.46 1.44-.6.36-1.26.61-2 .76-.74.15-1.5.22-2.28.2v4.4h5.02v12.24z"/><path fill="#707070" d="M16 21.38c-.15-.86-.25-1.75-.25-2.66 0-8.23 6.71-14.92 14.98-14.99v.01a15.06 15.06 0 0 1 14.76 17.65h3.79c.13-.87.21-1.75.21-2.66A18.81 18.81 0 0 0 30.76.01V0A18.81 18.81 0 0 0 12 18.72c0 .91.09 1.79.21 2.66zm-5.53 9.1s2.26-1.24 2.67-3.92c.4-2.69-1.68-4.56-1.68-4.56s-1.98 1.41-2.4 4.17a4.9 4.9 0 0 0 1.41 4.31zM12 33.44a4.9 4.9 0 0 0 1.96 4.09s2.09-1.52 2.13-4.23c.05-2.71-2.26-4.3-2.26-4.3s-1.78 1.65-1.83 4.44zm5.42-.44s-1.62 1.82-1.4 4.59c.22 2.78 2.34 3.89 2.34 3.89s1.93-1.7 1.72-4.41c-.21-2.7-2.66-4.07-2.66-4.07zm7.4 11.85s1.35-2.18.37-4.71C24.2 37.61 21.46 37 21.46 37s-1.02 2.2-.01 4.8a4.93 4.93 0 0 0 3.37 3.05zM6.87 24.44s1.77-1.62 1.26-4.36C7.63 17.35 5.6 16 5.6 16s-2.01 1.94-1.52 4.61a5.7 5.7 0 0 0 2.79 3.83zm1.53 12.1s-.15-2.38-2.61-3.72C3.33 31.48 1 32.19 1 32.19s.24 2.78 2.64 4.09c2.39 1.3 4.76.26 4.76.26z"/><path fill="#707070" d="M12.18 40.31s-.67-2.29-3.37-3.06c-2.7-.76-4.81.45-4.81.45s.86 2.65 3.49 3.4c2.62.74 4.69-.79 4.69-.79zm4.42 3.59s-1.35-1.98-4.15-1.9C9.64 42.08 8 43.87 8 43.87s1.63 2.28 4.36 2.2c2.73-.08 4.24-2.17 4.24-2.17zm2.59 1.16c-2.77.42-4.19 2.38-4.19 2.38s1.89 2.07 4.59 1.67c2.71-.41 3.95-2.66 3.95-2.66s-1.58-1.8-4.35-1.39z"/><path fill="#707070" d="M7.34 26.04L6 26c-.01.14-.27 14.54 21.64 20.91l.37-1.27C7.16 39.57 7.32 26.6 7.34 26.04zm48.74 5.28s2.56.3 4.46-1.64c1.9-1.95 1.31-4.68 1.31-4.68s-2.44 0-4.39 2c-1.95 2-1.38 4.32-1.38 4.32zm-7.03-4.76a5.71 5.71 0 0 0 2.67 3.92s1.82-1.56 1.41-4.31c-.41-2.76-2.4-4.17-2.4-4.17s-2.08 1.87-1.68 4.56zM46 33.3a5.7 5.7 0 0 0 2.13 4.23s2.01-1.31 1.96-4.09c-.04-2.78-1.82-4.44-1.82-4.44s-2.31 1.59-2.27 4.3zm-4.98 3.77a5.67 5.67 0 0 0 1.72 4.41s2.13-1.11 2.34-3.89c.21-2.77-1.4-4.59-1.4-4.59s-2.45 1.37-2.66 4.07zm-4.66 3.07c-.99 2.53.37 4.71.37 4.71s2.36-.45 3.37-3.05c1.01-2.6-.01-4.8-.01-4.8s-2.74.61-3.73 3.14zm20.79-18.53c.49-2.67-1.53-4.61-1.53-4.61s-2.03 1.35-2.53 4.08c-.5 2.74 1.26 4.36 1.26 4.36s2.31-1.16 2.8-3.83zM55.6 32.82c-2.45 1.34-2.6 3.72-2.6 3.72s2.36 1.04 4.76-.26c2.39-1.31 2.64-4.09 2.64-4.09s-2.34-.71-4.8.63z"/><path fill="#707070" d="M52.37 37.25A4.92 4.92 0 0 0 49 40.31s2.07 1.53 4.7.79c2.63-.75 3.48-3.4 3.48-3.4s-2.11-1.21-4.81-.45zM49.15 42A4.95 4.95 0 0 0 45 43.9s1.5 2.09 4.24 2.17c2.73.08 4.36-2.2 4.36-2.2s-1.65-1.79-4.45-1.87zm-6.81 3.06c-2.77-.41-4.34 1.39-4.34 1.39s1.24 2.25 3.94 2.66c2.71.4 4.6-1.66 4.6-1.66s-1.42-1.98-4.2-2.39zM55.01 26l-1.33.05c.02.54.18 13.52-20.68 19.59l.38 1.28C55.28 40.54 55.02 26.14 55.01 26z"/></svg>