<svg xmlns="http://www.w3.org/2000/svg" width="51" height="51" viewBox="0 0 51 51"><path fill="#4f77a8" d="M0 25.5a25.5 25.5 0 1 1 51 0 25.5 25.5 0 0 1-51 0z"/><path fill="#434a54" d="M13.83 40.44a2.43 2.43 0 0 1-2.42 2.44A2.42 2.42 0 0 1 9 40.44 2.42 2.42 0 0 1 11.41 38a2.43 2.43 0 0 1 2.42 2.44zm21 0a2.43 2.43 0 0 1-2.42 2.44A2.42 2.42 0 0 1 30 40.44 2.42 2.42 0 0 1 32.41 38a2.43 2.43 0 0 1 2.42 2.44z"/><path fill="#656d78" d="M10.43 33.27a.78.78 0 0 1-.57-.24L8.24 31.4a.82.82 0 0 1 0-1.16.8.8 0 0 1 1.14 0l1.11 1.12.2-.1c.77-.35 1.9-.52 3.36-.52.45 0 .81.37.81.82 0 .45-.36.82-.81.82-2.22 0-2.84.43-2.94.51a.8.8 0 0 1-.52.37l-.16.01z"/><path fill="#83b35f" d="M32.42 31H14.19c-.23 0-.45.1-.61.28l-1.38 1.64a.81.81 0 0 0 .61 1.35h19.61c.44 0 .81-.37.81-.82v-1.63a.82.82 0 0 0-.81-.82z"/><path fill="#434a54" d="M35.49 5.1a2.8 2.8 0 0 0-.74-.91.8.8 0 0 0-.52-.19.82.82 0 0 0-.81.82c0 .27.14.52.35.67l-.01-.01s.19.15.3.39c.04.09.17.39-.16.92l-1.88 2.35L10.2 34.48a.83.83 0 0 0 .08 1.16c.15.13.34.2.53.2.22 0 .45-.1.61-.28L33.25 10.2l.02-.02 1.91-2.4.05-.06c.57-.87.66-1.8.26-2.62z"/><path fill="#656d78" d="M20.05 24.91a.85.85 0 0 1-.43-.12l-5.24-3.28a.82.82 0 0 1-.26-1.12.8.8 0 0 1 1.11-.27l5.24 3.27c.38.24.5.74.27 1.13a.82.82 0 0 1-.69.39z"/><path fill="#b0cd7a" d="M32.94 10.33a.81.81 0 0 0-.32-.57A10.34 10.34 0 0 0 26.81 8h-.01c-4.51 0-6.55 2.63-6.63 2.74a.78.78 0 0 0-.16.61c.03.22.14.41.32.55l6.51 4.87c.14.11.31.16.48.16.23 0 .46-.1.62-.28l4.81-5.7c.15-.17.22-.4.19-.62z"/><path fill="#434a54" d="M10.81 34a.82.82 0 0 0-.81.82v1.63a.8.8 0 1 0 1.62 0v-1.63a.82.82 0 0 0-.81-.82zm21-24a.82.82 0 0 0-.81.82v26.17c0 .45.36.82.81.82.45 0 .81-.37.81-.82V10.82a.82.82 0 0 0-.81-.82z"/><path fill="#b0cd7a" d="M13.81 32.9a.81.81 0 0 1-.61-1.35l18.22-21.27a.8.8 0 0 1 .94-.21c.05.02 1.36.61 2.66 1.87a8.45 8.45 0 0 1 2.68 6.16c0 4.85-2.67 8.81-7.73 11.43-4.19 2.17-9.93 3.37-16.16 3.37z"/><path fill="#ccd1d9" d="M11.62 39.82c0 .45-.36.82-.81.82a.82.82 0 0 1-.81-.82c0-.45.36-.82.81-.82.45 0 .81.37.81.82zm21 0c0 .45-.36.82-.81.82a.82.82 0 0 1-.81-.82c0-.45.36-.82.81-.82.45 0 .81.37.81.82z"/><path fill="#656d78" d="M11.24 43.54A3.26 3.26 0 0 1 8 40.27C8 38.47 9.45 37 11.24 37a3.26 3.26 0 0 1 3.23 3.27c0 1.8-1.45 3.27-3.23 3.27zm0-4.9c-.9 0-1.62.73-1.62 1.63 0 .9.72 1.64 1.62 1.64a1.64 1.64 0 0 0 0-3.27zm21 4.9A3.26 3.26 0 0 1 29 40.27c0-1.8 1.45-3.27 3.24-3.27a3.26 3.26 0 0 1 3.23 3.27c0 1.8-1.45 3.27-3.23 3.27zm0-4.9c-.9 0-1.62.73-1.62 1.63 0 .9.72 1.64 1.62 1.64a1.64 1.64 0 0 0 0-3.27z"/></svg>