<svg xmlns="http://www.w3.org/2000/svg" width="51" height="51" viewBox="0 0 51 51"><path fill="#4f77a8" d="M0 25.5a25.5 25.5 0 1 1 51 0 25.5 25.5 0 0 1-51 0z"/><path fill="#d6d5d6" d="M42.48 28.59h-3.73l2.63-2.62-.88-.88-2.64 2.62V24h-1.25v3.71l-2.63-2.62-.89.88 2.64 2.62H32v1.25h3.73l-2.64 2.62.89.88 2.63-2.62v3.71h1.25v-3.71l2.64 2.62.88-.88-2.63-2.62h3.73z"/><path fill="#444" d="M37.39 21A7.37 7.37 0 0 0 30 28.35a7.37 7.37 0 0 0 7.39 7.36 7.37 7.37 0 0 0 7.39-7.36A7.37 7.37 0 0 0 37.39 21zm0 12.49a5.15 5.15 0 0 1 0-10.27 5.15 5.15 0 1 1 0 10.27z"/><path fill="#d6d5d6" d="M18.48 28.59h-4.62V24h-1.25v3.71l-2.63-2.62-.89.88 2.64 2.62H8v1.25h3.73l-2.64 2.62.89.88 2.63-2.62v3.71h1.25v-3.71l2.64 2.62.88-.88-2.63-2.62h3.73z"/><path fill="#444" d="M13.39 21A7.37 7.37 0 0 0 6 28.35a7.37 7.37 0 0 0 7.39 7.36 7.37 7.37 0 0 0 7.39-7.36A7.37 7.37 0 0 0 13.39 21zm0 12.49a5.15 5.15 0 0 1 0-10.27 5.15 5.15 0 1 1 0 10.27z"/><path d="M7.27 28.35c0-3.84 2.97-7 6.75-7.32A7.37 7.37 0 0 0 6 28.35a7.37 7.37 0 0 0 8.02 7.33 7.37 7.37 0 0 1-6.75-7.33z"/><path fill="#b0cd7a" d="M31.98 20l-6.93 7.98H13.6a.6.6 0 0 0-.6.59c0 .33.27.59.6.59h11.72c.18 0 .34-.07.45-.2l7.69-8.85.08-.11z"/><path fill="#b0cd7a" d="M33.82 15h-1.27l1.58 4.3H23.31l-1.12-3.28h-1.26l1.28 3.73L14 28.04l.85.83 7.79-7.86 2.62 7.69 1.13-.39-2.68-7.83h10.85l2.96 8.04 1.12-.4z"/><path fill="#ff9b4b" d="M12 28.5a1.5 1.5 0 1 1 3 0 1.5 1.5 0 0 1-3 0z"/><path d="M13.32 28.56c0-.63.37-1.17.91-1.41a1.56 1.56 0 1 0 0 2.83 1.56 1.56 0 0 1-.91-1.42z"/><path fill="#b0cd7a" d="M37.05 12H34v1.18h3.05c.7 0 1.27.57 1.27 1.27 0 .69-.57 1.26-1.27 1.26h-1.72a.58.58 0 0 0-.59.59c0 .33.26.59.59.59h1.72c1.36 0 2.46-1.1 2.46-2.44 0-1.35-1.1-2.45-2.46-2.45z"/><path fill="#868686" d="M33.9 15.23a.4.4 0 0 1-.41.4h-2.08a.4.4 0 0 1-.41-.4v-.82a.4.4 0 0 1 .41-.41h2.08a.4.4 0 0 1 .41.41z"/><path fill="#444" d="M35.43 13.02c0 .45-.37.82-.82.82h-2.79a.82.82 0 0 1-.82-.82v-.2c0-.45.37-.82.82-.82h2.79c.45 0 .82.37.82.82z"/><path d="M32.71 13.02v-.2c0-.45.37-.82.82-.82h-1.71a.82.82 0 0 0-.82.82v.2c0 .45.37.82.82.82h1.71a.82.82 0 0 1-.82-.82z"/><path fill="#ff9b4b" d="M36 28.5a1.5 1.5 0 1 1 3 0 1.5 1.5 0 0 1-3 0z"/><path fill="#868686" d="M22.9 17.23a.4.4 0 0 1-.41.4h-2.08a.4.4 0 0 1-.41-.4v-.82a.4.4 0 0 1 .41-.41h2.08a.4.4 0 0 1 .41.41z"/><path fill="#444" d="M24.74 15.39c0 .45-.37.82-.82.82h-5.1a.82.82 0 0 1-.82-.82v-.57c0-.45.37-.82.82-.82h5.1c.45 0 .82.37.82.82z"/><path d="M19.72 15.39v-.57c0-.45.37-.82.82-.82h-1.72a.82.82 0 0 0-.82.82v.57c0 .45.37.82.82.82h1.72a.82.82 0 0 1-.82-.82z"/><path fill="#d6d5d6" d="M22 29a3 3 0 1 1 6 0 3 3 0 0 1-6 0z"/><path d="M23.49 28.98a3 3 0 0 1 2.25-2.89 2.99 2.99 0 1 0 0 5.78 3 3 0 0 1-2.25-2.89z"/><path fill="#868686" d="M26.19 34.2v-4.61a.6.6 0 0 0-.59-.59.6.6 0 0 0-.6.59v4.61z"/><path fill="#b0cd7a" d="M26.88 35.06c0 .23-.19.41-.41.41h-3.06a.4.4 0 0 1-.41-.41v-.65a.4.4 0 0 1 .41-.41h3.06c.22 0 .41.18.41.41z"/></svg>