<svg xmlns="http://www.w3.org/2000/svg" width="37" height="41" viewBox="0 0 37 41"><defs><clipPath id="a"><path fill="#fff" d="M277 16a7 7 0 0 1 7-7h23a7 7 0 0 1 7 7v27a7 7 0 0 1-7 7h-23a7 7 0 0 1-7-7z"/></clipPath></defs><path fill="#e2574c" d="M11.41 9h14.1c.78 0 1.41.64 1.41 1.43v20.06c0 .83-.62 1.43-1.41 1.43-.66 0-5.66-3.18-6.34-3.58-.69-.41-.7-.43-1.41 0-.72.43-5.68 3.58-6.35 3.58-.8 0-1.41-.57-1.41-1.43V10.43c0-.79.63-1.43 1.41-1.43z"/><path fill="#e45448" d="M25.05 9H18v19.03c.18 0 .36.1.71.31.68.4 5.64 3.56 6.33 3.58h.03c.78-.01 1.39-.6 1.39-1.43V10.43c0-.79-.63-1.43-1.41-1.43z"/><path fill="#efc75e" d="M24.28 17.33l-3.71-.28L18.64 13l-1.95 4.05-3.69.28 2.47 3.13-.71 4 3.88-1.84 3.88 1.84-.72-4z"/><path fill="#d7b354" d="M21.88 24.46l-.72-4 2.48-3.13-3.71-.28L18 13v9.62z"/><path fill="none" stroke="#dcdcdc" stroke-miterlimit="50" stroke-width="2" d="M277 16a7 7 0 0 1 7-7h23a7 7 0 0 1 7 7v27a7 7 0 0 1-7 7h-23a7 7 0 0 1-7-7z" clip-path="url(&quot;#a&quot;)" transform="translate(-277 -9)"/></svg>