<svg xmlns="http://www.w3.org/2000/svg" width="41" height="52" viewBox="0 0 41 52"><path fill="#707070" d="M8.58 14.59c-1.68.6-2.28 2.98-1.35 5.64.56 1.62 1.55 2.9 2.63 3.42.25.12.45.2.69.24.74 1.5 1.7 2.99 2.72 4.28v4H9.19A9.34 9.34 0 0 0 0 41.53v4.75c0 .52.32 1 .79 1.22a45.77 45.77 0 0 0 27.7 3.81c7.1-1.26 11.51-3.75 11.69-3.86.42-.23.65-.68.65-1.17v-4.75c0-5.09-4.03-9.36-9.08-9.36h-4.02v-4.35a19.15 19.15 0 0 0 2.48-3.92 3.34 3.34 0 0 0 1.81-.97 7.13 7.13 0 0 0 1.64-2.7c.68-1.95.57-3.75-.21-4.8C33.45 5.72 26.91 1 20.41 1H8.7c-.4-.01-.78.18-1.04.49-.25.31-.36.72-.28 1.12.42 2.11 1.2 4.01 2.33 5.69zm4.46-2.69c-.01 1.37-.3 2.33-.85 2.71-.27.19-.62.25-.95.25l.7-3.92c.35.33.72.65 1.1.96zm2.95 21.74v-3.03a7.73 7.73 0 0 0 4.36 1.46c1.7 0 3.3-.64 4.66-1.66v3.23c0 .35.18.67.4.91-.3 1.96-2.86 5.34-4.96 7.64-2.13-2.34-4.57-5.58-4.96-7.5.31-.24.5-.62.5-1.05zm15.4-16.61a4.92 4.92 0 0 1-1.46 4.17 1.33 1.33 0 0 0-1.72.7c-1.51 3.45-4.46 7.48-7.8 7.48-2.39 0-4.59-2.08-6.2-4.54a8.5 8.5 0 0 0 3.1.61c.33.44.86.71 1.45.71h2.36c1.01 0 1.85-.8 1.85-1.82v-.59a1.9 1.9 0 0 0-1.85-1.89h-2.36c-.67 0-1.26.38-1.58.92-.5-.02-1.13-.1-1.79-.35-1.85-.7-3.22-2.34-4.07-4.89.74 0 1.59-.17 2.37-.7a4.79 4.79 0 0 0 1.88-3.26 24.7 24.7 0 0 0 5.6 2.23c3.61.97 8.16 1.19 10.22 1.22zM20.42 3.68c4.63 0 10.02 2.9 10.37 10.63h-.01c-4.13 0-17.13-.8-20.36-10.63 2.73.03 7.89 0 10 0zm7.45 44.99a42.66 42.66 0 0 1-25.15-3.25v-3.89a6.57 6.57 0 0 1 6.47-6.62h3.68c.67 3.95 6.01 9.49 6.66 10.14.26.26.6.41.94.41.34 0 .68-.16.94-.42.65-.65 5.99-6.18 6.66-10.13h3.68a6.48 6.48 0 0 1 6.36 6.62v3.93c-1.36.7-5.1 2.32-10.24 3.21z"/></svg>