<svg width="31" height="32" viewBox="0 0 31 32" xmlns="http://www.w3.org/2000/svg"><title>new_icon</title><g fill="none" fill-rule="evenodd"><g fill-rule="nonzero"><ellipse fill="#FFDA44" cx="11.313" cy="13.256" rx="1.317" ry="1.335"/><ellipse fill="#FFDA44" cx="19.683" cy="18.674" rx="1.317" ry="1.335"/><path d="M30.546 17.732l-.478-.661a2.106 2.106 0 0 1-.02-2.428l.465-.668c.71-1.02.381-2.44-.71-3.036l-.71-.386a2.082 2.082 0 0 1-1.053-2.18l.135-.804c.207-1.23-.704-2.369-1.937-2.421l-.807-.033a2.064 2.064 0 0 1-1.886-1.499l-.226-.785a2.04 2.04 0 0 0-2.784-1.328l-.743.32a2.028 2.028 0 0 1-2.338-.523l-.536-.61a2.03 2.03 0 0 0-3.074.026l-.53.616a2.035 2.035 0 0 1-2.33.556l-.75-.314c-1.143-.478-2.435.17-2.764 1.374l-.213.792a2.046 2.046 0 0 1-1.86 1.524l-.808.046c-1.233.072-2.124 1.224-1.898 2.454l.148.805a2.084 2.084 0 0 1-1.02 2.192l-.704.4a2.092 2.092 0 0 0-.659 3.043l.478.66c.517.72.53 1.695.02 2.428l-.466.668a2.098 2.098 0 0 0 .71 3.036l.711.386a2.082 2.082 0 0 1 1.053 2.18l-.136.804c-.206 1.23.704 2.37 1.938 2.422l.807.032c.878.04 1.64.642 1.886 1.499l.226.785a2.04 2.04 0 0 0 2.784 1.329l.742-.321a2.028 2.028 0 0 1 2.338.523l.536.609a2.03 2.03 0 0 0 3.074-.026l.53-.615a2.035 2.035 0 0 1 2.331-.557l.75.315c1.143.477 2.434-.17 2.764-1.375l.213-.791a2.046 2.046 0 0 1 1.86-1.525l.807-.046c1.234-.072 2.125-1.224 1.899-2.454l-.149-.805a2.084 2.084 0 0 1 1.02-2.192l.705-.4c1.078-.601 1.388-2.028.659-3.042z" fill="#AED37E"/></g><path d="M9.406 20.485c-.392 0-.613-.214-.663-.642l-.192-1.497a12.642 12.642 0 0 1-.095-1.497c0-.128.008-.344.023-.65.016-.305.024-.522.024-.65 0-.984-.182-1.476-.546-1.476-.51 0-.999.303-1.463.91-.42.55-.748 1.248-.985 2.091-.009.178-.03.401-.061.67a5.566 5.566 0 0 0-.041.663c0 .137.013.342.04.615.028.274.042.479.042.616a.682.682 0 0 1-.188.499.646.646 0 0 1-.482.191.644.644 0 0 1-.486-.191.689.689 0 0 1-.184-.5 6.26 6.26 0 0 0-.045-.615 6.26 6.26 0 0 1-.044-.615c0-.47.033-1.12.1-1.951.065-.832.098-1.483.098-1.952 0-.146-.008-.362-.024-.65a12.76 12.76 0 0 1-.024-.649.64.64 0 0 1 .195-.482.667.667 0 0 1 .482-.188c.42 0 .65.296.69.889l.021.8c.766-1.021 1.552-1.532 2.359-1.532.729 0 1.237.322 1.524.964.196.429.303 1.062.321 1.9v.691l-.007.636c0 .378.05.867.147 1.466.098.6.147 1.086.147 1.46a.65.65 0 0 1-.194.488.676.676 0 0 1-.49.188zm5.277-.17c-1.03 0-1.864-.258-2.502-.773-.697-.57-1.046-1.367-1.046-2.393 0-1.184.287-2.178.862-2.98.624-.875 1.458-1.313 2.502-1.313.756 0 1.374.128 1.852.383.588.315.882.798.882 1.45 0 .455-.258.87-.773 1.244-.227.164-.71.419-1.449.765L12.4 17.936c.255.378.573.663.954.854.38.191.823.287 1.33.287.314 0 .683-.06 1.107-.178.537-.15.884-.347 1.039-.59.155-.245.32-.367.499-.367a.6.6 0 0 1 .427.182c.125.12.188.26.188.42 0 .506-.408.941-1.224 1.306-.697.31-1.376.464-2.037.464zm-.184-6.228c-.556 0-1.019.215-1.388.646-.37.43-.645 1.079-.827 1.945l2.098-.998c.825-.401 1.413-.75 1.764-1.046-.392-.365-.941-.547-1.647-.547zm12.844-.205a84.441 84.441 0 0 1-1.394 5.038 4.86 4.86 0 0 1-.636 1.278c-.16.242-.376.36-.65.356-.496-.01-.884-.627-1.162-1.853a19.534 19.534 0 0 1-.28-1.6l-.225-1.524-.56 1.306-1.04 2.823a.84.84 0 0 1-.26.397.715.715 0 0 1-.656.41c-.346.013-.681-.666-1.005-2.037-.164-.707-.328-1.664-.492-2.872l-.164-1.025a7.438 7.438 0 0 1-.089-1.032c0-.192.067-.35.202-.475a.69.69 0 0 1 .488-.188c.347 0 .561.189.643.567.06.27.107.602.144.998l.102 1.005.403 3.07a88.818 88.818 0 0 0 1.573-4.854c.15-.506.412-.759.786-.759.36 0 .604.283.731.848.119.533.267 1.353.445 2.46a49.16 49.16 0 0 0 .485 2.687l.499-1.86.882-3.725c.068-.278.264-.417.588-.417.191 0 .357.065.499.195.141.13.212.286.212.468 0 .023-.023.128-.069.315z" fill="#FFF"/></g></svg>