<svg xmlns="http://www.w3.org/2000/svg" width="51" height="51" viewBox="0 0 51 51"><path fill="#72d4ff" d="M0 25.5a25.5 25.5 0 1 1 51 0 25.5 25.5 0 0 1-51 0z"/><path fill="#6d6d6d" d="M20.13 31.65l-.02-.51a7.65 7.65 0 0 0-2.95-5.58c-.55-.43-.98-.64-1.06-.69A7.58 7.58 0 0 0 5 31.65a7.59 7.59 0 0 0 11.1 6.78c.15-.09 1.07-.55 2-1.56a7.68 7.68 0 0 0 2.03-5.22zm-12.88 0a5.33 5.33 0 0 1 8.04-4.63c4.24 2.56 3.05 9.09-1.82 9.94-3.28.57-6.22-2-6.22-5.31z"/><path fill="#98c44d" d="M30.66 25.86L36.79 19h-2.61L29 24.79z"/><path fill="#7fa338" d="M29.85 25.34L35.51 19h-1.33L29 24.79z"/><path fill="#6d6d6d" d="M45.9 29.79a7.54 7.54 0 0 0-11.8-4.31 7.7 7.7 0 0 0-3.04 7.16 7.6 7.6 0 0 0 7.51 6.69 7.64 7.64 0 0 0 7.33-9.54zm-12.29-.09a5.27 5.27 0 0 1 9.91 0 5.39 5.39 0 0 1-4.95 7.36 5.4 5.4 0 0 1-4.96-7.36z"/><path fill="#545454" d="M33.39 32.93c-.78-3.33 1.6-8.11 6.32-8.84a7.62 7.62 0 0 0-8.65 8.55 7.6 7.6 0 0 0 8.65 6.61 7.63 7.63 0 0 1-6.32-6.32zm-26 0c-.68-2.9 1.23-8.05 6.32-8.84a7.45 7.45 0 0 0-3.23.21h-.03a7.68 7.68 0 0 0-5.39 8.34 7.58 7.58 0 0 0 8.65 6.6 7.62 7.62 0 0 1-6.32-6.31z"/><path fill="#f95753" d="M40.86 17.5c0 .83-.67 1.5-1.48 1.5h-6.9c-.82 0-1.48-.67-1.48-1.5s.66-1.5 1.48-1.5h6.9c.81 0 1.48.67 1.48 1.5z"/><path fill="#cc4a4a" d="M39.38 16.75h-6.9c-.55 0-1.02-.3-1.28-.75a1.5 1.5 0 0 0 1.28 2.25h6.9A1.5 1.5 0 0 0 40.66 16c-.26.45-.73.75-1.28.75z"/><path fill="#cde06e" d="M39.07 31.19L18.74 18 18 19.95l19.98 12.96a.99.99 0 0 0 1.39-.31c.3-.48.17-1.11-.3-1.41z"/><path fill="#a8d855" d="M38.89 32.12a1 1 0 0 1-.54-.16L18.37 19l-.37.99 19.98 12.96c.74.48 1.69-.17 1.53-1.05a1 1 0 0 1-.62.22z"/><path fill="#bababa" d="M23.29 10h-5.07A3.25 3.25 0 0 0 15 13.27c0 1.34.8 2.49 1.95 2.99.5-1.34.52-1.55.9-1.77a1.27 1.27 0 0 1-.89-1.22c0-.71.56-1.29 1.26-1.29h5.07c.54 0 .98-.44.98-.99a.98.98 0 0 0-.98-.99z"/><path fill="#90938f" d="M24.26 11.44a.74.74 0 0 0-.67-.44h-5.18A2.42 2.42 0 0 0 16 13.44c0 .93.52 1.75 1.29 2.15.16-.44.22-.69.54-.9l.02-.05c-.5-.17-.86-.65-.86-1.21 0-.71.56-1.28 1.26-1.28h5.07c.44 0 .82-.3.94-.71z"/><path fill="#98c44d" d="M11.62 32.32a.98.98 0 0 1-.56-1.26l6.2-16.43a.95.95 0 0 1 1.25-.56c.5.19.75.76.56 1.26l-6.2 16.43a.96.96 0 0 1-1.25.56z"/><path fill="#7fa338" d="M11.93 31.31l6.2-16.43c.12-.32.4-.54.71-.61a.83.83 0 0 0-.32-.2.97.97 0 0 0-1.26.56l-6.19 16.43a.98.98 0 0 0 1.1 1.31.99.99 0 0 1-.24-1.06z"/></svg>