<svg xmlns="http://www.w3.org/2000/svg" width="48" height="48" viewBox="0 0 48 48"><path fill="#39bcf6" d="M0 23.5C0 10.52 10.75 0 24 0s24 10.52 24 23.5S37.25 47 24 47 0 36.48 0 23.5z"/><path fill="#f1543f" d="M31.02 26.83s-3.85-1.52-7.02-.44v3.72c.49-.07.94-.19 1.4-.3l5.24-1.11z"/><path fill="#f1543f" d="M17 26.8l.38 1.86 6.64 1.46v-3.73c-3.17-1.08-7.02.41-7.02.41z"/><path fill="#fff" d="M34.1 31.44L29.31 26h-9.52L15 31.44z"/><path fill="#ff7058" d="M21 34v-4h7v4z"/><path fill="#fff" d="M28.66 26.7c-.03-.03-.03-.11-.07-.14 0 0-.08.4-.57 1a5.46 5.46 0 0 1-8.38 0c-.49-.63-.56-1-.56-1-.04.03-.04.07-.08.11.19-.3.26-.67.3-1.01l.12-1.38.26-4.28h8.23l.41 5.66c.04.3.12.6.23.9.04.03.08.07.11.14z"/><path fill="#e6e9ee" d="M28.91 24.77c-1.29 1.49-2.83 2.46-4.46 2.46-1.66 0-3.2-.97-4.45-2.46l.04-.52.3-4.25h8.23z"/><path fill="#fff" d="M16.75 11a8.47 8.47 0 0 0-.75 3.61c0 5.33 3.55 12.03 7.89 12.03s7.89-6.7 7.89-12.03a7.9 7.9 0 0 0-.76-3.61z"/><path fill="#fff" d="M33.79 17c-.56 1.27-1.54 1.98-2.22 1.61-.68-.38-.76-1.68-.19-2.91.56-1.27 1.55-1.97 2.23-1.6.67.33.75 1.64.18 2.9zm-18.41 0c.56 1.27 1.55 1.98 2.23 1.61.67-.38.75-1.68.18-2.91-.56-1.27-1.54-1.97-2.22-1.6-.68.33-.76 1.64-.19 2.9z"/><path fill="#2b3b4e" d="M17.19 10h-1.81a8.57 8.57 0 0 0 1.36 7.64 14.98 14.98 0 0 1-.49-3.62c0-1.64.34-2.98.94-4.02zM31 10c.6 1.04.94 2.38.94 4.02 0 1.16-.15 2.42-.49 3.62A8.57 8.57 0 0 0 32.81 10z"/><path fill="#2b3b4e" d="M33.19 12.5c0 .63-.07 1.23-.19 1.83-.33-.12-.71 0-1.05.26v-.93a2.23 2.23 0 0 0-3.1-1.98 12.9 12.9 0 0 1-4.75.82c-1.82 0-3.48-.3-4.76-.82a2.23 2.23 0 0 0-3.09 1.98v.93c-.38-.26-.76-.38-1.06-.26-.11-.6-.19-1.2-.19-1.83 0-.86.11-1.71.38-2.49.04-.08.04-.19.07-.27 2.46-.48 5.48-.74 8.68-.74 3.21 0 6.19.26 8.69.74.03.08.03.19.07.27.15.78.3 1.63.3 2.49z"/><path fill="#f1543f" d="M23 31h1.13H23z"/><path fill="#ff7058" d="M43.24 38.35a24.08 24.08 0 0 1-19.14 9.38h-.79A23.88 23.88 0 0 1 5 38.35c0-9.69 10.12-8.75 11.44-9.16.07-.08.15-.12.22-.19.91 1.42 3.93 2.46 7.48 2.46 3.47 0 6.41-.97 7.4-2.35.18.04 11.47-.45 11.7 9.24z"/><path fill="#ffd05b" d="M23 33a1 1 0 1 1 2 0 1 1 0 0 1-2 0zm0 3a1 1 0 1 1 2 0 1 1 0 0 1-2 0z"/><path fill="#f1543f" d="M33.27 12.2c0 1.23-4.08 2.16-9.14 2.16-5.02 0-9.13-.97-9.13-2.16 0-1.23 4.08-2.2 9.13-2.2 5.06 0 9.14.97 9.14 2.2z"/><path fill="#ff7058" d="M33.23 11.79a33.03 33.03 0 0 0-18.23 0c.04-.37.11-.74.15-1.12A9.01 9.01 0 0 1 24.06 3h.15a8.97 8.97 0 0 1 8.87 7.71c.08.34.11.71.15 1.08z"/><path fill="#ff7058" d="M33.16 11.79a32.6 32.6 0 0 0-8.8-1.27h-.57A32.75 32.75 0 0 0 15 11.79c.04-.37.11-.74.15-1.12A8.88 8.88 0 0 1 23.98 3h.15c4.5 0 8.23 3.31 8.87 7.71.08.34.12.71.16 1.08z"/><path fill="#f1543f" d="M29.02 10.86c-1.4-.19-2.83-.3-4.23-.3h-.56c-1.44 0-2.83.11-4.23.3v-.15c.3-4.36 2.23-7.67 4.49-7.71h.08c2.26 0 4.15 3.31 4.49 7.71-.04.07-.04.11-.04.15z"/><path fill="#e6e9ee" d="M31.02 26s-3.59 2.53-7.02 3.31c0 0 2.15 1.05 2.76 4.18l5.58-5.03z"/><path fill="#e6e9ee" d="M17.32 26s3.59 2.53 7.02 3.31c0 0-2.15 1.05-2.75 4.18L16 28.42z"/><path fill="#fff" d="M23 3.5c0-.28.67-.5 1.5-.5s1.5.22 1.5.5-.67.5-1.5.5-1.5-.22-1.5-.5z"/><path fill="#2b3b4e" d="M38.8 30.34l-11.93 16.8c-.91.11-1.85.15-2.83.15h-.79c-.42 0-.83-.04-1.25-.08L34.91 29c1.24.22 2.64.63 3.89 1.34z"/></svg>