<svg xmlns="http://www.w3.org/2000/svg" width="26" height="17" viewBox="0 0 26 17"><path fill="#fff" d="M1 8.52a7.5 7.5 0 0 1 7.19-7.5c1.99-.17 3.93.6 5.43 1.85-.61.68-1.24 1.34-1.92 1.97-1.32-.8-2.92-1.41-4.47-.87a4.74 4.74 0 1 0 3.22 8.92 4.18 4.18 0 0 0 2.46-2.84c-1.45-.03-2.89-.01-4.34-.05V7.44c2.41 0 4.82-.01 7.24.01.15 2.09-.16 4.33-1.53 6.01-1.88 2.39-5.35 3.09-8.17 2.15A7.51 7.51 0 0 1 1 8.52zM21.18 5h2.15l.02 2.14 2.16.02v2.13l-2.16.01-.02 2.15h-2.15l-.02-2.14L19 9.29V7.16l2.16-.02.02-2.14z"/></svg>