<svg xmlns="http://www.w3.org/2000/svg" width="51" height="51" viewBox="0 0 51 51"><path fill="#4f77a8" d="M0 25.5a25.5 25.5 0 1 1 51 0 25.5 25.5 0 0 1-51 0z"/><path fill="#b0cd7a" d="M39.71 24.81v3.14c0 1.12-.81 2.1-1.91 2.32l-6.14 1.24-.51 2.07a2.37 2.37 0 0 1-1.8 1.74l-3.14.67-9.38 1.99a.79.79 0 0 1-.86-.4 25.38 25.38 0 0 1-1.85-4.49l1.41-1.73-.77-7.91L13 21.76A13.67 13.67 0 0 1 26.21 11h.13c3.34 0 6.7 1.43 9.21 3.93a14.05 14.05 0 0 1 4.16 9.88z"/><path fill="#b0cd7a" d="M39.5 24.81v3.14c0 1.12-.81 2.1-1.92 2.32l-6.13 1.24-.51 2.07a2.38 2.38 0 0 1-1.8 1.74l-3.14.67V11h.13c3.33 0 6.69 1.43 9.21 3.93a14.05 14.05 0 0 1 4.16 9.88z"/><path fill="#578e2e" d="M33.16 28.33a3.17 3.17 0 1 1 .02-6.34 3.17 3.17 0 0 1-.02 6.34z"/><path fill="#66728b" d="M22.44 22.41v5.6l-1.58 2.27-6.5 2.84A29.38 29.38 0 0 1 13 24.31c0-.86.04-1.71.23-2.52l7.63-.79z"/><path fill="#66728b" d="M23.11 21.01l-2.11.22v9.3l3.34-1.46a2.38 2.38 0 0 0 1.41-2.17v-3.53c0-1.4-1.22-2.51-2.64-2.36z"/></svg>