<svg xmlns="http://www.w3.org/2000/svg" width="37" height="37" viewBox="0 0 37 37"><path fill="#6a453b" d="M24.18 10h-11A3.19 3.19 0 0 0 10 13.18v11a3.19 3.19 0 0 0 3.18 3.19h11a3.2 3.2 0 0 0 3.19-3.19v-11A3.19 3.19 0 0 0 24.18 10zm-5.5 14.4a5.72 5.72 0 1 1 .01-11.43 5.72 5.72 0 0 1-.01 11.43zm5.9-10.25a1.36 1.36 0 0 1 0-2.71c.75 0 1.36.61 1.36 1.36 0 .74-.61 1.35-1.36 1.35z"/><path fill="#6a453b" d="M18.3 15a3.3 3.3 0 1 0 0 6.6 3.3 3.3 0 0 0 0-6.6z"/><path fill="#6a453b" d="M18.45 0a18.45 18.45 0 1 0 0 36.9 18.45 18.45 0 0 0 0-36.9zm11.1 24a5.6 5.6 0 0 1-5.6 5.6h-11a5.6 5.6 0 0 1-5.6-5.6V13a5.6 5.6 0 0 1 5.6-5.6h11a5.6 5.6 0 0 1 5.6 5.6z"/></svg>