<svg xmlns="http://www.w3.org/2000/svg" width="51" height="51" viewBox="0 0 51 51"><path fill="#4f77a8" d="M0 25.5a25.5 25.5 0 1 1 51 0 25.5 25.5 0 0 1-51 0z"/><path fill="#6d6e72" d="M6 33.5c0-2.49 2.24-4.5 5-4.5s5 2.01 5 4.5-2.24 4.5-5 4.5-5-2.01-5-4.5z"/><path fill="#414356" d="M9 33a2 2 0 1 1 4 0 2 2 0 0 1-4 0z"/><path fill="#6d6e72" d="M34 33.5c0-2.49 2.24-4.5 5-4.5s5 2.01 5 4.5-2.24 4.5-5 4.5-5-2.01-5-4.5z"/><path fill="#585a60" d="M34.58 33.49c0-2.24 1.81-4.09 4.19-4.43a5.25 5.25 0 0 0-.79-.06C35.23 29 33 31.01 33 33.49c0 2.48 2.23 4.49 4.98 4.49.26 0 .53-.02.79-.05-2.38-.35-4.19-2.2-4.19-4.44zm-27 0c0-2.24 1.81-4.09 4.19-4.43a5.25 5.25 0 0 0-.79-.06C8.23 29 6 31.01 6 33.49c0 2.48 2.23 4.49 4.98 4.49.26 0 .53-.02.79-.05-2.38-.35-4.19-2.2-4.19-4.44z"/><path fill="#414356" d="M40.38 32.98c0 1.09-.98 1.98-2.19 1.98S36 34.07 36 32.98c0-1.09.98-1.98 2.19-1.98s2.19.89 2.19 1.98z"/><path fill="#2d313f" d="M39.19 32.98c0-.73.44-1.37 1.1-1.71-.33-.17-.7-.27-1.1-.27-1.21 0-2.19.89-2.19 1.98 0 1.09.98 1.98 2.19 1.98.4 0 .77-.1 1.1-.27a1.94 1.94 0 0 1-1.1-1.71zm-28 0c0-.73.44-1.37 1.1-1.71-.33-.17-.7-.27-1.1-.27C9.98 31 9 31.89 9 32.98c0 1.09.98 1.98 2.19 1.98.4 0 .77-.1 1.1-.27a1.94 1.94 0 0 1-1.1-1.71z"/><path fill="#49b5ce" d="M18 30c.38.79.59 1.65.59 2.57h11.19c0-.9.17-1.76.49-2.57z"/><path fill="#83b35f" d="M18 30c.38.79.59 1.65.59 2.57h11.19c0-.9.17-1.76.49-2.57z"/><path fill="#34a4b7" d="M20.15 30H18c.38.79.59 1.65.59 2.57h2.12a8.8 8.8 0 0 0-.56-2.57z"/><path fill="#cde06e" d="M30.13 33.25H18.94c-.31 0-.56-.23-.56-.51 0-2.4-1.59-4.56-4.03-5.49-.29-.11-.43-.41-.31-.67a.6.6 0 0 1 .75-.27 7.07 7.07 0 0 1 4.7 5.92h10.1a8.17 8.17 0 0 1 2.56-5.28 11.1 11.1 0 0 1 6.08-2.94c.31-.05.6.14.65.42.05.28-.16.54-.47.58-4.39.66-7.71 3.98-7.71 7.73 0 .28-.25.51-.57.51z"/><path fill="#bababa" d="M38.78 33.12c-.31 0-.56-.22-.56-.51V11.79c0-.42-.38-.77-.86-.77h-3.79c-.32 0-.57-.23-.57-.51s.25-.51.57-.51h3.79c1.1 0 1.99.8 1.99 1.79v20.82c0 .29-.25.51-.57.51z"/><path fill="#989da0" d="M40.49 20.02h-2.92c-.32 0-.57-.23-.57-.51s.25-.51.57-.51h2.92c.31 0 .56.23.56.51s-.25.51-.56.51z"/><path fill="#c9e073" d="M21.02 31.96h-1.53a7.07 7.07 0 0 0-4.7-5.92.6.6 0 0 0-.75.27c-.12.26.02.56.31.67a5.99 5.99 0 0 1 4.03 5.49c0 .28.25.51.56.51h2.15c-.01-.34-.03-.68-.07-1.02z"/></svg>