<svg xmlns="http://www.w3.org/2000/svg" width="10" height="15" viewBox="0 0 10 15"><path fill="#9e9e9e" d="M9.72 5.63h-.83V4.37C8.89 1.96 7.14 0 5 0S1.11 1.96 1.11 4.37v1.26H.28c-.16 0-.28.13-.28.31v7.81C0 14.44.5 15 1.11 15h7.78c.61 0 1.11-.56 1.11-1.25V5.94c0-.18-.12-.31-.28-.31zm-3.89 6.52a.32.32 0 0 1-.07.25.28.28 0 0 1-.2.1H4.44a.28.28 0 0 1-.2-.1.32.32 0 0 1-.07-.25l.17-1.77a1.3 1.3 0 0 1-.45-1.01c0-.68.5-1.25 1.11-1.25.61 0 1.11.57 1.11 1.25 0 .41-.17.78-.45 1.01zM2.78 5.63V4.37C2.78 3 3.77 1.88 5 1.88c1.23 0 2.22 1.12 2.22 2.49v1.26z"/></svg>