<svg xmlns="http://www.w3.org/2000/svg" width="67" height="49" viewBox="0 0 67 49"><path fill="#6d6d6d" d="M25 35.5l-.03-.83a12.5 12.5 0 0 0-4.88-9.12c-.91-.7-1.62-1.05-1.75-1.13A12.5 12.5 0 0 0 0 35.5a12.5 12.5 0 0 0 18.34 11.08c.24-.14 1.77-.89 3.31-2.54A12.52 12.52 0 0 0 25 35.5zm-21.29 0A8.8 8.8 0 0 1 17 27.93c7 4.19 5.03 14.87-3.01 16.25A8.8 8.8 0 0 1 3.71 35.5z"/><path fill="#98c44d" d="M41.76 25L52 14h-4.36L39 23.28z"/><path fill="#7fa338" d="M40.43 24L50 14h-2.25L39 23.14z"/><path fill="#6d6d6d" d="M66.61 32.44a12.5 12.5 0 0 0-24.51 4.65 12.5 12.5 0 1 0 24.51-4.65zm-20.29-.15a8.78 8.78 0 0 1 16.35 0 8.8 8.8 0 0 1-8.17 12 8.8 8.8 0 0 1-8.18-12z"/><path fill="#545454" d="M45.9 37.51c-1.28-5.4 2.6-13.17 10.29-14.36-8.1-1.25-15.12 5.68-14.09 13.9a12.37 12.37 0 0 0 14.09 10.72A12.39 12.39 0 0 1 45.9 37.51zm-42 0c-1.12-4.71 2-13.08 10.29-14.37-1.8-.27-3.6-.14-5.27.34l-.05.02A12.46 12.46 0 0 0 .1 37.04a12.35 12.35 0 0 0 14.09 10.73A12.39 12.39 0 0 1 3.9 37.51z"/><path fill="#f95753" d="M58 11.5c0 1.38-1.07 2.5-2.4 2.5H44.4a2.45 2.45 0 0 1-2.4-2.5c0-1.38 1.07-2.5 2.4-2.5h11.2c1.33 0 2.4 1.12 2.4 2.5z"/><path fill="#cc4a4a" d="M55.6 12.33H44.4c-.89 0-1.66-.53-2.07-1.33-.93 1.78.23 4 2.07 4h11.2c1.84 0 3-2.22 2.07-4a2.34 2.34 0 0 1-2.07 1.33z"/><path fill="#cde06e" d="M55.24 34.87L22.2 13 21 16.24l32.47 21.49a1.6 1.6 0 0 0 2.27-.51c.49-.79.27-1.84-.5-2.35z"/><path fill="#a8d855" d="M54.96 35.39c-.3 0-.61-.09-.88-.26L21.6 14l-.6 1.61 32.48 21.12c1.2.79 2.75-.27 2.49-1.7-.29.23-.65.36-1.01.36z"/><path fill="#bababa" d="M30.42 0h-8.21a5.22 5.22 0 0 0-2.06 10c.82-2.14.85-2.48 1.46-2.83a2.05 2.05 0 0 1 .6-4h8.21a1.59 1.59 0 0 0 0-3.17z"/><path fill="#90938f" d="M31 1.76A1.15 1.15 0 0 0 29.95 1h-8.16C19.7 1 18 2.9 18 5.24c0 1.63.82 3.05 2.03 3.76.26-.77.35-1.21.84-1.57l.04-.09a2.22 2.22 0 0 1-1.36-2.11c0-1.23.9-2.23 1.99-2.23h7.98c.7 0 1.29-.52 1.48-1.24z"/><path fill="#98c44d" d="M12 36.89a1.62 1.62 0 0 1-.9-2.06l9.91-26.8c.3-.83 1.2-1.24 1.99-.92.8.31 1.2 1.24.9 2.06l-9.91 26.8c-.3.83-1.2 1.24-1.99.92z"/><path fill="#7fa338" d="M12.54 35.23L22.83 8.44c.2-.53.65-.89 1.17-1a1.48 1.48 0 0 0-.54-.33 1.6 1.6 0 0 0-2.07.92l-10.28 26.8a1.6 1.6 0 0 0 1.83 2.14 1.62 1.62 0 0 1-.4-1.74z"/></svg>