<svg xmlns="http://www.w3.org/2000/svg" width="54" height="52" viewBox="0 0 54 52"><path fill="#707070" d="M40.17 13.5a1.67 1.67 0 0 0-2.39 0L14.49 36.83a1.7 1.7 0 0 0 0 2.39c.33.33.77.5 1.2.5.43 0 .86-.16 1.19-.5l23.29-23.33c.66-.66.66-1.73 0-2.39zM18.68 11a6.7 6.7 0 0 0 0 13.39 6.7 6.7 0 0 0 0-13.39zm0 10.01a3.31 3.31 0 1 1 .02-6.62 3.31 3.31 0 0 1-.02 6.62z"/><path fill="#707070" d="M51.33 31.06c1.25-1.4 2.67-3 2.67-5.1 0-2.11-1.42-3.7-2.67-5.11-.7-.8-1.44-1.62-1.65-2.28-.23-.72-.12-1.86-.02-2.96.18-1.84.37-3.92-.82-5.56-1.2-1.65-3.25-2.11-5.06-2.51-1.07-.24-2.17-.48-2.77-.92-.58-.42-1.14-1.39-1.69-2.32-.94-1.61-2.01-3.44-3.98-4.09a4.6 4.6 0 0 0-1.4-.21c-1.41 0-2.76.59-4.07 1.15-1.02.45-2.09.91-2.87.91-.78 0-1.85-.46-2.87-.91C22.82.59 21.47 0 20.06 0c-.49 0-.96.07-1.4.21-1.97.65-3.04 2.48-3.99 4.09-.54.94-1.1 1.9-1.68 2.32-.6.44-1.7.68-2.77.92-1.81.4-3.86.86-5.06 2.51-1.19 1.64-1 3.72-.82 5.57.1 1.09.21 2.23-.02 2.95-.21.66-.94 1.48-1.65 2.28-1.25 1.41-2.67 3-2.67 5.11 0 2.1 1.42 3.69 2.66 5.1.71.8 1.44 1.62 1.66 2.28.23.72.12 1.86.02 2.96-.18 1.84-.37 3.93.82 5.56 1.2 1.66 3.25 2.11 5.06 2.51 1.07.24 2.17.48 2.77.91.58.43 1.14 1.39 1.69 2.33.94 1.61 2.01 3.44 3.98 4.09.43.14.9.21 1.39.21 1.42 0 2.77-.59 4.07-1.15 1.03-.45 2.09-.91 2.88-.91.78 0 1.85.46 2.88.91 1.3.56 2.65 1.15 4.06 1.15.49 0 .96-.07 1.4-.21 1.97-.64 3.04-2.47 3.98-4.09.55-.93 1.11-1.9 1.7-2.32.59-.44 1.7-.68 2.76-.92 1.81-.4 3.86-.85 5.06-2.5 1.2-1.64 1-3.73.82-5.57-.1-1.1-.21-2.24.02-2.96.21-.66.95-1.48 1.65-2.28zm-2.52-2.25c-.94 1.06-1.91 2.15-2.34 3.49-.45 1.38-.31 2.87-.17 4.32.12 1.3.25 2.65-.19 3.25-.44.62-1.77.91-3.06 1.2-1.4.31-2.86.63-4.02 1.48-1.15.84-1.9 2.12-2.62 3.35-.67 1.15-1.37 2.33-2.11 2.58-.64.2-1.9-.31-3.08-.83-1.35-.58-2.74-1.18-4.22-1.18-1.49 0-2.88.6-4.22 1.18-1.18.51-2.45 1.03-3.08.83-.75-.24-1.44-1.43-2.11-2.58-.72-1.24-1.47-2.51-2.62-3.35-1.16-.85-2.62-1.17-4.02-1.48-1.29-.29-2.62-.58-3.06-1.2-.44-.6-.31-1.95-.19-3.25.14-1.45.28-2.94-.17-4.32-.43-1.34-1.4-2.43-2.34-3.49-.89-1-1.81-2.04-1.81-2.85 0-.82.92-1.86 1.81-2.86.94-1.06 1.91-2.15 2.34-3.48.45-1.39.31-2.88.17-4.32-.12-1.31-.25-2.66.19-3.26.44-.62 1.77-.91 3.06-1.2 1.4-.31 2.86-.63 4.02-1.48 1.15-.84 1.89-2.11 2.62-3.35.67-1.14 1.36-2.33 2.11-2.58.65-.21 1.9.31 3.08.83 1.35.58 2.74 1.19 4.22 1.19 1.48 0 2.87-.61 4.22-1.19 1.18-.51 2.44-1.04 3.08-.83.74.24 1.44 1.43 2.11 2.58.72 1.23 1.47 2.51 2.62 3.35 1.16.85 2.62 1.17 4.02 1.48 1.29.29 2.62.58 3.06 1.2.44.6.31 1.95.19 3.25-.14 1.45-.28 2.94.17 4.32.43 1.34 1.4 2.43 2.34 3.49.89 1 1.82 2.04 1.82 2.86 0 .81-.93 1.85-1.82 2.85z"/><path fill="#707070" d="M35.68 28a6.7 6.7 0 0 0 0 13.39 6.7 6.7 0 0 0 0-13.39zm0 10.01a3.31 3.31 0 0 1 0-6.63 3.31 3.31 0 0 1 0 6.63z"/></svg>