<svg xmlns="http://www.w3.org/2000/svg" width="39" height="36" viewBox="0 0 39 36"><path fill="#1bb7ea" d="M30.59 31.09c.9-.93.89-2.41-.03-3.32l-5.31-4.19c-1.19-.94-2.5-1.03-3.3.03l-1.79 2.44a70.56 70.56 0 0 1-5.19-4.75 74.34 74.34 0 0 1-4.85-5.35l2.47-1.76c1.08-.79.98-2.09.03-3.26L8.38 5.69a2.44 2.44 0 0 0-3.37-.03L1.8 8.64c-.39.38-.65.86-.77 1.45-.59 2.98 6.59 11.64 10.04 15.05 3.46 3.41 12.01 10.47 15.04 9.88a2.75 2.75 0 0 0 1.46-.76z"/><path fill="#dadee0" d="M35.55 0H18.79A2.78 2.78 0 0 0 16 2.76v10.57a2.78 2.78 0 0 0 2.79 2.75h8.85v4.6l5.58-4.6h2.33a2.78 2.78 0 0 0 2.79-2.75V2.76A2.78 2.78 0 0 0 35.55 0z"/><path fill="#1f4254" d="M31.33 10.15c0 .63-.52 1.15-1.17 1.15-.64 0-1.16-.52-1.16-1.15 0-.64.52-1.15 1.16-1.15.65 0 1.17.51 1.17 1.15m-3 0c0 .63-.52 1.15-1.17 1.15-.64 0-1.16-.52-1.16-1.15 0-.64.52-1.15 1.16-1.15.65 0 1.17.51 1.17 1.15m-3 0c0 .63-.52 1.15-1.17 1.15-.64 0-1.16-.52-1.16-1.15 0-.64.52-1.15 1.16-1.15.65 0 1.17.51 1.17 1.15"/><path fill="#c7ced2" d="M31.05 9l-.02.01c.25.22.4.52.4.87 0 .63-.52 1.15-1.17 1.15-.41 0-.77-.22-.98-.54L27.77 9l-.01.01c.25.21.41.52.41.87 0 .63-.52 1.14-1.16 1.14-.42 0-.78-.21-.99-.53L24.51 9v.01c.24.21.4.52.4.87 0 .63-.52 1.14-1.16 1.14-.29 0-.55-.1-.75-.26l7.22 7.12 2.61-2.14h2.33c.75 0 1.43-.3 1.93-.77z"/></svg>