<svg xmlns="http://www.w3.org/2000/svg" width="55.74" height="55.58" viewBox="0 0 55.74 55.58"><path fill="#707070" d="M18.63 19.56a.94.94 0 0 0 0 1.3c.19.17.43.27.65.27a.92.92 0 0 0 .66-1.57.93.93 0 0 0-1.31 0zm-2.99 23a.92.92 0 0 0 1.29 1.3.92.92 0 0 0-1.3-1.3zm0-20a.92.92 0 1 0 1.3 1.3.92.92 0 0 0-1.3-1.3zm3 23a.92.92 0 0 0 1.29 1.3.92.92 0 0 0-1.3-1.3zm4.99 3.01a.92.92 0 0 0 0 1.3c.2.16.43.25.66.25.23 0 .47-.09.66-.28a.92.92 0 0 0-.02-1.29.92.92 0 0 0-1.3.02zm-2.99-32.01a.9.9 0 0 0 0 1.3c.18.17.4.27.65.27.24 0 .47-.1.65-.28a.9.9 0 0 0-.01-1.29.9.9 0 0 0-1.3 0zm0 32a.92.92 0 0 0 .64 1.57.92.92 0 1 0-.64-1.57zm-8-24a.9.9 0 0 0 0 1.3c.18.17.4.26.65.26a.9.9 0 0 0 .65-.27.9.9 0 0 0-.01-1.29.9.9 0 0 0-1.3 0zm-5 11a.9.9 0 0 0 0 1.3c.18.17.4.27.65.27.24 0 .47-.1.65-.28a.92.92 0 0 0-1.3-1.29zm0-6a.92.92 0 0 0 .65 1.57.9.9 0 0 0 .64-.28.9.9 0 0 0 0-1.29.9.9 0 0 0-1.3 0zm-2 3a.92.92 0 1 0 1.3 1.3.92.92 0 0 0-1.3-1.3zm18-18a.92.92 0 1 0 1.3 1.3.92.92 0 0 0-1.3-1.3zm-13 23a.9.9 0 0 0 0 1.3.92.92 0 0 0 1.3 0 .92.92 0 0 0-1.3-1.29zm2 3a.9.9 0 0 0 0 1.3.9.9 0 0 0 1.29 0 .9.9 0 0 0 0-1.3.9.9 0 0 0-1.3 0zm-2.01-13a.94.94 0 0 0 0 1.3c.19.17.43.27.65.27.24 0 .48-.1.66-.28a.92.92 0 1 0-1.31-1.29zm18 15.01a.9.9 0 0 0 .02 1.3c.17.17.4.25.63.25a.9.9 0 0 0 .66-.28.9.9 0 0 0-.02-1.29.9.9 0 0 0-1.3.02zm13-13a.9.9 0 0 0 .02 1.3c.17.17.4.26.64.26s.48-.09.65-.28a.9.9 0 0 0-.02-1.3.9.9 0 0 0-1.3.02zm-5 6a.9.9 0 0 0 .02 1.3.9.9 0 0 0 1.29-.01.9.9 0 0 0-.02-1.3.9.9 0 0 0-1.3.01zm2-3a.9.9 0 0 0 .02 1.3c.17.17.4.25.63.25.25 0 .49-.09.66-.28a.9.9 0 0 0-.02-1.29.9.9 0 0 0-1.3.02zm5-5.01a.92.92 0 0 0 .02 1.31c.17.17.4.25.64.25a.9.9 0 0 0 .63-1.57.92.92 0 0 0-1.3.01zm1.74-9.26a1 1 0 1 1 2 0 1 1 0 0 1-2 0zM25.63 45.56a.9.9 0 0 0 .02 1.3c.17.18.4.26.63.26.24 0 .48-.09.66-.27a.92.92 0 0 0-1.31-1.29zM45.37 25.3a1 1 0 1 1 2 0 1 1 0 0 1-2 0zm0-4a1 1 0 1 1 2 0 1 1 0 0 1-2 0zM30.63 40.56a.92.92 0 0 0 .02 1.31.93.93 0 0 0 1.29-.02.9.9 0 0 0-.02-1.3.92.92 0 0 0-1.3.01zM37.2 8.21a.92.92 0 1 0-1.83 0 .92.92 0 0 0 1.83 0zm-11.57 3.35a.94.94 0 0 0 0 1.3c.19.17.43.27.65.27a.92.92 0 0 0 .66-1.57.93.93 0 0 0-1.31 0zm3.01-2a.92.92 0 1 0 1.3 1.29.9.9 0 0 0-.01-1.29.9.9 0 0 0-1.3 0zm3.65-2.26a.91.91 0 0 0-.92.91c0 .5.4.91.92.91a.91.91 0 0 0 0-1.83zm1.34 30.27a.9.9 0 0 0 .02 1.3c.17.17.4.25.63.25a.9.9 0 0 0 .66-.28.9.9 0 0 0-.02-1.29.9.9 0 0 0-1.3.02z"/><path fill="#707070" d="M54.19.56a.92.92 0 0 0-1.3 0l-3.4 3.4H28.15L1.32 31.01a3.21 3.21 0 0 0 0 4.57l18.76 18.76a3.21 3.21 0 0 0 4.58 0L50.79 27.5V5.25l3.39-3.4a.91.91 0 0 0 0-1.29zm-5.24 26.2l-25.6 26.3c-.54.53-1.43.53-1.98 0L2.6 34.28a1.4 1.4 0 0 1 .01-1.99L28.9 5.8h18.75l-4.43 4.42a4.57 4.57 0 0 0-7.11 3.82 4.59 4.59 0 1 0 8.4-2.52l4.43-4.43zm-5.5-12.72a2.75 2.75 0 1 1-1.57-2.47l-1.82 1.82a.92.92 0 0 0 1.29 1.3l1.83-1.83c.17.36.27.76.27 1.18z"/><path fill="none" stroke="#707070" stroke-miterlimit="50" d="M54.19.56a.92.92 0 0 0-1.3 0l-3.4 3.4H28.15L1.32 31.01a3.21 3.21 0 0 0 0 4.57l18.76 18.76a3.21 3.21 0 0 0 4.58 0L50.79 27.5V5.25l3.39-3.4a.91.91 0 0 0 0-1.29zm-5.24 26.2l-25.6 26.3c-.54.53-1.43.53-1.98 0L2.6 34.28a1.4 1.4 0 0 1 .01-1.99L28.9 5.8h18.75l-4.43 4.42a4.57 4.57 0 0 0-7.11 3.82 4.59 4.59 0 1 0 8.4-2.52l4.43-4.43zm-5.5-12.72a2.75 2.75 0 1 1-1.57-2.47l-1.82 1.82a.92.92 0 0 0 1.29 1.3l1.83-1.83c.17.36.27.76.27 1.18z"/></svg>