<svg xmlns="http://www.w3.org/2000/svg" width="34" height="35" viewBox="0 0 34 35"><path fill="#22b9ea" d="M0 17.5C0 7.84 7.61 0 17 0s17 7.84 17 17.5S26.39 35 17 35 0 27.16 0 17.5z"/><path fill="#ecf0f0" d="M26.02 21.28a9.76 9.76 0 0 0 0-13.49 9.07 9.07 0 0 0-13.09 0 9.76 9.76 0 0 0-.91 12.39l-2.86 2.95a.57.57 0 0 0-.01.78l1.21 1.25c.21.21.54.19.75-.02l2.86-2.94a9.06 9.06 0 0 0 12.05-.92z"/><path fill="#5d5d5d" d="M9.17 22.54a.58.58 0 0 0-.03.79l1.2 1.24c.2.21.58.2.78-.02l.56-.53V20z"/><path fill="#76bed6" d="M23.89 19.25a6.8 6.8 0 0 1-9.85 0 7.33 7.33 0 0 1 0-10.15 6.83 6.83 0 0 1 9.85 0 7.33 7.33 0 0 1 0 10.15z"/><path fill="#83d2ed" d="M13.91 19.48a6.87 6.87 0 0 1 0-9.51 6.39 6.39 0 0 1 9.23 0 6.87 6.87 0 0 1 0 9.51 6.4 6.4 0 0 1-9.23 0z"/><path fill="#fbffff" d="M24.81 8.2a8.55 8.55 0 0 0-10.66-.62c-.35.25-.03.84.32.59a7.89 7.89 0 0 1 9.87.51c.32.28.79-.2.47-.48z"/><path fill="#b0ebff" d="M23.64 17.78a2.66 2.66 0 0 1-3.84 0 2.84 2.84 0 0 1 0-3.96 2.66 2.66 0 0 1 3.84 0 2.86 2.86 0 0 1 0 3.96zm-.37-5.47c-.29.3-.76.3-1.05 0a.8.8 0 0 1 0-1.09.73.73 0 0 1 1.05.01c.29.29.29.78 0 1.08z"/><path fill="#334d5c" d="M8.71 22.12L3 28c.71.97 1.51 1.85 2.39 2.65l5.8-5.98c.68-.7-1.8-3.25-2.48-2.55z"/><path fill="#5d5d5d" d="M11.33 24.67c.68-.7-1.78-3.25-2.46-2.55L7 24.07v5.11z"/><path fill="#efc84a" d="M11.57 25.41a.42.42 0 0 1-.62 0L8.13 22.5a.45.45 0 0 1 0-.63l.71-.74a.44.44 0 0 1 .62 0l2.82 2.91c.17.17.17.46 0 .64z"/></svg>