<svg xmlns="http://www.w3.org/2000/svg" width="55" height="54" viewBox="0 0 55 54"><path fill="#707070" d="M34.62 38.62a97.8 97.8 0 0 0-1.73-1.01c.13-1.17.13-2.35 0-3.51l1.72-1.02a2.28 2.28 0 0 0 .93-2.8l-1.24-2.99a2.27 2.27 0 0 0-2.63-1.33l-1.95.5a14.92 14.92 0 0 0-2.48-2.48l.51-1.94a2.29 2.29 0 0 0-1.33-2.63l-3-1.24a2.28 2.28 0 0 0-2.8.92 97.8 97.8 0 0 0-1.01 1.73 14.72 14.72 0 0 0-3.51 0l-1.02-1.73a2.27 2.27 0 0 0-2.8-.92l-2.99 1.24a2.26 2.26 0 0 0-1.33 2.63l.5 1.94c-.92.73-1.75 1.56-2.48 2.48l-1.94-.5a2.26 2.26 0 0 0-2.63 1.33L.17 30.28a2.27 2.27 0 0 0 .92 2.8l1.73 1.02a14.72 14.72 0 0 0 0 3.51l-1.73 1.01a2.28 2.28 0 0 0-.92 2.8l1.24 3a2.28 2.28 0 0 0 2.63 1.33l1.94-.51c.73.92 1.56 1.76 2.48 2.48l-.5 1.95c-.27 1.07.3 2.2 1.33 2.63l2.99 1.24a2.28 2.28 0 0 0 2.8-.92l1.02-1.73c1.16.13 2.34.13 3.51 0l1.01 1.73a2.3 2.3 0 0 0 2.81.92l2.99-1.24a2.3 2.3 0 0 0 1.33-2.63l-.51-1.95c.92-.72 1.76-1.56 2.48-2.48l1.95.51a2.3 2.3 0 0 0 2.63-1.33l1.24-3a2.29 2.29 0 0 0-.92-2.8zm-2.5 4.75l-1.87-.48a2.25 2.25 0 0 0-2.37.79c-.64.82-1.38 1.56-2.2 2.21a2.22 2.22 0 0 0-.79 2.36l.48 1.87-2.75 1.14-.97-1.66a2.27 2.27 0 0 0-2.24-1.12c-1.03.13-2.08.13-3.12 0-.9-.11-1.78.32-2.23 1.12l-.98 1.66-2.75-1.14.49-1.87a2.26 2.26 0 0 0-.79-2.37 12.44 12.44 0 0 1-2.21-2.2 2.25 2.25 0 0 0-2.37-.79l-1.86.48-1.14-2.75 1.66-.97a2.27 2.27 0 0 0 1.12-2.24 12.53 12.53 0 0 1 0-3.12c.11-.9-.33-1.78-1.12-2.23l-1.66-.98 1.14-2.75 1.86.49c.88.23 1.81-.08 2.37-.79a12.5 12.5 0 0 1 2.21-2.21 2.26 2.26 0 0 0 .79-2.37l-.49-1.86 2.75-1.14.98 1.66a2.25 2.25 0 0 0 2.23 1.12c1.03-.13 2.09-.13 3.12 0 .9.11 1.78-.33 2.24-1.12l.97-1.66 2.75 1.14-.48 1.86c-.24.88.07 1.81.79 2.37a13.2 13.2 0 0 1 2.21 2.21 2.26 2.26 0 0 0 2.36.79l1.87-.49 1.14 2.75-1.66.98a2.25 2.25 0 0 0-1.12 2.23c.13 1.03.13 2.09 0 3.12-.11.9.32 1.78 1.12 2.24l1.66.97z"/><path fill="#707070" d="M25.82 33.08a8.23 8.23 0 1 0-15.2 6.3 8.23 8.23 0 0 0 15.2-6.3zm-5.38 8.51a5.79 5.79 0 0 1-7.59-3.15 5.83 5.83 0 0 1 5.36-8.03 5.82 5.82 0 0 1 2.23 11.18zM52.76 10.62l-1.28-.18c-.21-.72-.5-1.42-.86-2.08l.77-1.03c.56-.75.48-1.82-.18-2.49l-1.67-1.66a1.9 1.9 0 0 0-2.48-.19c-.35.25-.69.51-1.03.78-.67-.36-1.37-.65-2.09-.87l-.18-1.27A1.92 1.92 0 0 0 41.87 0h-2.35c-.94 0-1.76.7-1.89 1.63l-.19 1.27c-.72.22-1.42.51-2.08.87a34.9 34.9 0 0 0-1.03-.78 1.92 1.92 0 0 0-2.49.19l-1.66 1.66a1.92 1.92 0 0 0-.19 2.49l.78 1.03c-.36.66-.65 1.36-.87 2.08l-1.27.18c-.93.14-1.63.96-1.63 1.9v2.35c0 .94.7 1.75 1.63 1.89l1.27.18c.22.72.51 1.42.87 2.09l-.78 1.03a1.9 1.9 0 0 0 .19 2.48l1.66 1.67c.67.66 1.74.74 2.49.18l1.03-.77c.66.36 1.36.65 2.08.86l.18 1.28c.14.93.96 1.62 1.9 1.62h2.35c.94 0 1.75-.69 1.89-1.62l.18-1.28c.72-.21 1.42-.5 2.09-.86l1.03.77c.75.56 1.82.48 2.48-.18l1.67-1.67c.66-.66.74-1.73.18-2.48l-.77-1.03c.36-.67.65-1.37.86-2.09l1.28-.18a1.91 1.91 0 0 0 1.62-1.89v-2.35c0-.94-.69-1.76-1.62-1.9zm-.67 3.92l-1.15.16a1.9 1.9 0 0 0-1.59 1.38c-.2.71-.48 1.4-.85 2.04-.38.67-.32 1.49.15 2.11l.7.92-1.2 1.2-.92-.7a1.91 1.91 0 0 0-2.11-.15c-.64.37-1.33.65-2.04.85a1.9 1.9 0 0 0-1.38 1.59l-.16 1.15h-1.7l-.16-1.15a1.9 1.9 0 0 0-1.38-1.59 8.82 8.82 0 0 1-2.03-.85 1.91 1.91 0 0 0-2.11.15l-.93.7-1.2-1.2.7-.92c.47-.62.53-1.44.15-2.11a8.86 8.86 0 0 1-.84-2.04 1.9 1.9 0 0 0-1.6-1.38l-1.15-.16v-1.7l1.15-.16a1.9 1.9 0 0 0 1.6-1.38c.19-.71.48-1.39.84-2.03.38-.67.32-1.5-.15-2.11l-.7-.93 1.2-1.2.93.7c.61.47 1.44.53 2.11.15a8.79 8.79 0 0 1 2.03-.84 1.9 1.9 0 0 0 1.38-1.6l.16-1.15h1.7l.16 1.15c.1.77.64 1.39 1.38 1.6.71.19 1.4.48 2.04.84.67.38 1.49.32 2.11-.15l.92-.7 1.2 1.2-.7.93a1.91 1.91 0 0 0-.15 2.11c.37.64.65 1.32.85 2.03.2.74.83 1.29 1.59 1.38l1.15.16z"/><path fill="#707070" d="M39.88 9a4.89 4.89 0 1 0 .01 9.77A4.89 4.89 0 0 0 39.88 9zm0 7.6a2.72 2.72 0 0 1 0-5.43 2.72 2.72 0 0 1 0 5.43z"/></svg>