<svg xmlns="http://www.w3.org/2000/svg" width="51" height="51" viewBox="0 0 51 51"><path fill="#4f77a8" d="M0 25.5a25.5 25.5 0 1 1 51 0 25.5 25.5 0 0 1-51 0z"/><path fill="#8e8284" d="M33.8 13.23H17.63a.62.62 0 0 1-.63-.61c0-.34.28-.62.63-.62H33.8a.61.61 0 1 1 0 1.23zm0 24H17.63a.62.62 0 0 1-.63-.61c0-.34.28-.62.63-.62H33.8a.61.61 0 1 1 0 1.23z"/><path fill="#b1a7a8" d="M16.87 15.8H15a1 1 0 0 1-1-.99v-2.83a1 1 0 0 1 1-.98h1.87a1 1 0 0 1 1 .98v2.83a1 1 0 0 1-1 .99z"/><path fill="#8e8284" d="M17.87 11.98v2.83a1 1 0 0 1-1 .99H15a1 1 0 0 1-1-.99v-.16h1.71a1 1 0 0 0 1-.98V11h.16a1 1 0 0 1 1 .98z"/><path fill="#b1a7a8" d="M36.87 15.8H35a1 1 0 0 1-1-.99v-2.83a1 1 0 0 1 1-.98h1.87a1 1 0 0 1 1 .98v2.83a1 1 0 0 1-1 .99z"/><path fill="#8e8284" d="M37.87 11.98v2.83a1 1 0 0 1-1 .99H35a1 1 0 0 1-1-.99v-.16h1.71a1 1 0 0 0 1-.98V11h.16a1 1 0 0 1 1 .98z"/><path fill="#b1a7a8" d="M16.87 39.8H15a1 1 0 0 1-1-.99v-2.83a1 1 0 0 1 1-.98h1.87a1 1 0 0 1 1 .98v2.83a1 1 0 0 1-1 .99z"/><path fill="#8e8284" d="M17.87 35.98v2.83a1 1 0 0 1-1 .99H15a1 1 0 0 1-1-.99v-.16h1.71a1 1 0 0 0 1-.98V35h.16a1 1 0 0 1 1 .98z"/><path fill="#b1a7a8" d="M36.87 39.8H35a1 1 0 0 1-1-.99v-2.83a1 1 0 0 1 1-.98h1.87a1 1 0 0 1 1 .98v2.83a1 1 0 0 1-1 .99z"/><path fill="#8e8284" d="M37.87 35.98v2.83a1 1 0 0 1-1 .99H35a1 1 0 0 1-1-.99v-.16h1.71a1 1 0 0 0 1-.98V35h.16a1 1 0 0 1 1 .98z"/><path fill="#b0cd7a" d="M32.49 10.56l.01-.09h-.01l.01-.32A6.2 6.2 0 0 0 26.25 4a6.2 6.2 0 0 0-6.24 6.47H20l.02.09c.02.39.08.77.18 1.14.44 2.79 1.46 9.57 1.45 12.57v1.47c.01 2.99-1.01 9.77-1.45 12.56a5.42 5.42 0 0 0-.2 1.23h.01l-.01.32A6.2 6.2 0 0 0 26.25 46a6.2 6.2 0 0 0 6.25-6.15l-.01-.32h.01l-.01-.09a6.17 6.17 0 0 0-.19-1.14c-.44-2.79-1.46-9.57-1.45-12.57v-1.46c-.01-3 1.01-9.78 1.45-12.57.1-.37.16-.75.19-1.14z"/><path fill="#83b35f" d="M32.06 11.7c-.44 2.79-1.46 9.57-1.45 12.56v1.48c-.01 2.99 1.01 9.77 1.45 12.56a5.42 5.42 0 0 1 .2 1.23h-.01l.01.32A6.2 6.2 0 0 1 25 45.92a6.19 6.19 0 0 0 5.24-6.07l-.01-.32h.01l-.01-.09a6.17 6.17 0 0 0-.19-1.14c-.44-2.79-1.46-9.57-1.45-12.56v-1.48c-.01-2.99 1.01-9.77 1.45-12.56.1-.37.16-.75.19-1.14l.01-.09h-.01l.01-.32A6.19 6.19 0 0 0 25 4.08a6.2 6.2 0 0 1 7.26 6.07l-.01.32h.01l-.02.09c-.02.39-.08.77-.18 1.14z"/><path fill="#4ba8b7" d="M24 13.5a.5.5 0 1 1 1 0 .5.5 0 0 1-1 0zm2 0a.5.5 0 1 1 1 0 .5.5 0 0 1-1 0zm-2 2a.5.5 0 1 1 1 0 .5.5 0 0 1-1 0zm2 0a.5.5 0 1 1 1 0 .5.5 0 0 1-1 0zm-2 3a.5.5 0 1 1 1 0 .5.5 0 0 1-1 0zm2 0a.5.5 0 1 1 1 0 .5.5 0 0 1-1 0zm-2 13a.5.5 0 1 1 1 0 .5.5 0 0 1-1 0zm2 0a.5.5 0 1 1 1 0 .5.5 0 0 1-1 0zm-2 3a.5.5 0 1 1 1 0 .5.5 0 0 1-1 0zm2 0a.5.5 0 1 1 1 0 .5.5 0 0 1-1 0zm-2 2a.5.5 0 1 1 1 0 .5.5 0 0 1-1 0zm2 0a.5.5 0 1 1 1 0 .5.5 0 0 1-1 0z"/></svg>