<svg xmlns="http://www.w3.org/2000/svg" width="51" height="51" viewBox="0 0 51 51"><path fill="#4f77a8" d="M0 25.5a25.5 25.5 0 1 1 51 0 25.5 25.5 0 0 1-51 0z"/><path fill="#546080" d="M20.67 34.26h13.46l-.93-2.84H21.6zm-.97 1.42a.72.72 0 0 1-.57-.29.7.7 0 0 1-.09-.64l1.4-4.26a.7.7 0 0 1 .66-.49h12.6c.3 0 .57.2.66.49l1.4 4.26a.7.7 0 0 1-.09.64.72.72 0 0 1-.57.29z"/><path fill="#546080" d="M44.3 35.78h-35A6.36 6.36 0 0 1 3 29.39 6.36 6.36 0 0 1 9.3 23c.39 0 .7.32.7.71a.7.7 0 0 1-.7.71c-2.7 0-4.9 2.23-4.9 4.97 0 2.74 2.2 4.97 4.9 4.97h35c.39 0 .7.32.7.71a.7.7 0 0 1-.7.71"/><path fill="#b0cd7a" d="M44.2 31.48H14.8a2.82 2.82 0 0 1-2.8-2.84v-5.63c0-1.6 1.28-2.89 2.86-2.89 1.3 0 2.56.52 3.49 1.46a9.32 9.32 0 0 0 6.65 2.8h7.3a10.8 10.8 0 0 0 2.1-6.39c0-.79.63-1.42 1.4-1.42 2.69 0 5.27-1.09 7.17-3.02l.4-.41c.31-.3.83-.09.83.35z"/><path fill="#578e2e" d="M38.7 22.26l-.16-.02a.71.71 0 0 1-.52-.85c.46-2.04 1.4-2.99 3.35-3.38.37-.07.74.18.82.56a.72.72 0 0 1-.56.84c-1.4.28-1.9.79-2.25 2.3a.7.7 0 0 1-.68.55m-3 7a.7.7 0 0 1-.69-.57.72.72 0 0 1 .56-.84c1.4-.28 1.91-.79 2.25-2.3a.7.7 0 0 1 .84-.53c.37.09.61.47.52.85-.46 2.04-1.4 2.99-3.35 3.38l-.13.01"/><path fill="#578e2e" d="M41.2 24.13c0-1.18-.94-2.13-2.1-2.13-1.16 0-2.1.95-2.1 2.13s.94 2.13 2.1 2.13c1.16 0 2.1-.95 2.1-2.13m-26.4 2.29a.7.7 0 0 0 .7-.71.7.7 0 0 0-.7-.71H12v1.42zm-2.7 3h3.4a.7.7 0 0 0 .7-.71.7.7 0 0 0-.7-.71H12v.71c0 .25.04.48.1.71"/></svg>