<svg xmlns="http://www.w3.org/2000/svg" width="31" height="33" viewBox="0 0 31 33"><path fill="#ffda44" d="M10 14.5a1.5 1.5 0 1 1 3 0 1.5 1.5 0 0 1-3 0zm8 5a1.5 1.5 0 1 1 3 0 1.5 1.5 0 0 1-3 0z"/><path fill="#e84e40" d="M30.49 18.73l-.48-.66a2.1 2.1 0 0 1-.02-2.43l.46-.66a2.1 2.1 0 0 0-.71-3.04l-.71-.39a2.08 2.08 0 0 1-1.05-2.18l.14-.8a2.08 2.08 0 0 0-1.94-2.42l-.81-.04a2.04 2.04 0 0 1-1.88-1.49l-.23-.79a2.05 2.05 0 0 0-2.78-1.33l-.75.32a2 2 0 0 1-2.33-.52l-.54-.61a2.03 2.03 0 0 0-3.08.03l-.52.61c-.59.68-1.52.9-2.34.56l-.75-.32a2.05 2.05 0 0 0-2.76 1.38l-.21.79a2.07 2.07 0 0 1-1.86 1.53l-.81.04a2.08 2.08 0 0 0-1.9 2.46l.15.8c.16.88-.25 1.76-1.02 2.19l-.7.4A2.09 2.09 0 0 0 .4 15.2l.47.67c.52.72.53 1.69.02 2.42l-.46.67A2.1 2.1 0 0 0 1.14 22l.71.38c.77.42 1.2 1.3 1.05 2.18l-.13.81a2.06 2.06 0 0 0 1.93 2.42l.81.03c.88.04 1.64.64 1.89 1.5l.22.79a2.05 2.05 0 0 0 2.79 1.32l.74-.32a2.03 2.03 0 0 1 2.34.53l.53.61c.83.92 2.27.92 3.08-.03l.53-.62a2.04 2.04 0 0 1 2.33-.55l.75.31a2.05 2.05 0 0 0 2.76-1.37l.22-.79c.23-.87.98-1.48 1.86-1.53l.8-.04a2.08 2.08 0 0 0 1.9-2.46l-.15-.8a2.1 2.1 0 0 1 1.02-2.2l.71-.4a2.08 2.08 0 0 0 .66-3.04zM8.07 14.26a3.2 3.2 0 0 1 3.18-3.22 3.2 3.2 0 0 1 3.17 3.22 3.2 3.2 0 0 1-3.17 3.22 3.2 3.2 0 0 1-3.18-3.22zm3.79 8.3a.78.78 0 0 1-1.19-1L19 11.38a.77.77 0 0 1 1.09-.1c.33.27.38.77.11 1.1zm7.76.33a3.2 3.2 0 0 1-3.17-3.22 3.2 3.2 0 0 1 3.17-3.22 3.2 3.2 0 0 1 3.18 3.22 3.2 3.2 0 0 1-3.18 3.22z"/></svg>