<svg xmlns="http://www.w3.org/2000/svg" width="24" height="23" viewBox="0 0 24 23"><path fill="#fbd303" d="M22.75 3.35L19.9.5c-.38-.38-.9-.56-1.42-.48l-5.67.75c-.38.05-.72.21-.97.48L1.5 11.58a1.66 1.66 0 0 0 0 2.38l7.79 7.79c.66.67 1.74.67 2.39 0l10.34-10.34c.27-.26.43-.61.48-.96l.75-5.68a1.7 1.7 0 0 0-.5-1.42zm-2.58 2.14a1.7 1.7 0 1 1-2.4-2.4 1.7 1.7 0 0 1 2.4 2.4z"/><path fill="#f8b517" d="M18.51 10.38l-5.14-5.14a.79.79 0 0 0-1.13 0l-7 6.99a.79.79 0 0 0 0 1.13l5.14 5.15c.32.32.82.32 1.13 0l6.98-6.98a.83.83 0 0 0 .02-1.15z"/></svg>