<svg xmlns="http://www.w3.org/2000/svg" width="13" height="12" viewBox="0 0 13 12"><path fill="#fff" d="M13 5.29c0-.78-.65-1.41-1.45-1.41H8.89c.65-.7 1.07-1.5 1.15-2.22.05-.44-.09-.88-.38-1.2A1.42 1.42 0 0 0 8.62 0h-.01c-.39 0-.75.14-1.02.41a1.4 1.4 0 0 0-.43.98c-.01.08-.16.37-.52.7-.3.27-.81.65-1.57.89-.29.09-.57.26-.8.51-.13.13-.32.31-.55.49a.8.8 0 0 0-.38-.1H.82a.81.81 0 0 0-.82.8v6.53c0 .44.37.79.82.79h2.52a.8.8 0 0 0 .71-.41h6.45c.68 0 1.24-.54 1.24-1.2 0-.22-.07-.43-.17-.61.35-.21.59-.59.59-1.02 0-.22-.06-.43-.17-.61.35-.21.59-.59.59-1.02 0-.25-.08-.49-.22-.68.39-.25.64-.68.64-1.16zm-1.45.64h-.21a.38.38 0 0 0-.39.38c0 .21.17.38.39.38.25 0 .45.2.45.44 0 .23-.2.43-.45.43h-.42a.38.38 0 0 0-.39.38c0 .21.17.38.39.38.25 0 .45.2.45.44s-.2.43-.45.43h-.42a.38.38 0 0 0-.39.39c0 .21.17.38.39.38.25 0 .45.19.45.43s-.2.44-.45.44H4.16v-3.7a.4.4 0 0 0-.4-.39.38.38 0 0 0-.39.39v4.08c0 .01-.01.02-.03.02H.82c-.02 0-.03-.01-.03-.02V4.68c0-.02.01-.03.03-.03h2.52c.02 0 .03.01.03.03v.81c0 .21.17.38.39.38a.4.4 0 0 0 .4-.38v-.81l-.01-.06c.3-.22.54-.45.69-.61.15-.15.31-.25.48-.3.92-.3 1.55-.77 1.91-1.11.45-.43.72-.88.72-1.2a.6.6 0 0 1 .2-.45.66.66 0 0 1 .92.02.8.8 0 0 1 .19.6c-.09.76-.71 1.71-1.6 2.4a.36.36 0 0 0-.12.42c.05.16.2.26.37.26h3.64c.37 0 .66.29.66.64 0 .35-.29.64-.66.64z"/></svg>