<svg xmlns="http://www.w3.org/2000/svg" width="34" height="38" viewBox="0 0 34 38"><path fill="#f7b081" d="M25.04 17.56c-.19-1.17-.82-2.56-2.68-2.56-.27 0-.5.19-.54.45l-.36 2.09a15.7 15.7 0 0 1-.57 2.34c-.67 2.01-1.52 3.05-3.01 3.68l-1.54.67h-2.79a.54.54 0 0 0-.55.54v9.82c0 .3.24.54.55.54h2.72l1.17.94a5.62 5.62 0 0 0 3.49 1.23h3.33a.54.54 0 1 0 .27-1.01V25.47h-.68l1.14-5.72a6 6 0 0 0 .05-2.19z"/><path fill="#efe7e4" d="M13.79 23H9.55a.54.54 0 0 0-.55.54v11.59c0 .3.24.54.55.54h4.24c.3 0 .54-.24.54-.54V23.54c0-.3-.24-.54-.54-.54z"/><path fill="#d8d1d0" d="M9 33v1.62c0 .3.24.54.55.54h4.24c.3 0 .54-.24.54-.54V33z"/><path fill="#dd9a76" d="M23.78 34.93c0-.87.71-1.56 1.58-1.56-.87 0-1.58-.7-1.58-1.57 0-.86.71-1.56 1.58-1.56-.87 0-1.58-.7-1.58-1.56 0-.86.71-1.56 1.58-1.56-.87 0-1.58-.7-1.58-1.56 0-.86.71-1.56 1.58-1.56h-1.79c-.87 0-1.57.7-1.57 1.56 0 .86.7 1.56 1.57 1.56-.87 0-1.57.7-1.57 1.56 0 .86.7 1.56 1.57 1.56a1.56 1.56 0 1 0 0 3.13 1.56 1.56 0 1 0 0 3.12h1.79c-.87 0-1.58-.7-1.58-1.56z"/><path fill="#f7cb4f" d="M10.71 7.84a1 1 0 0 0-.82-.68L7.41 6.8 6.3 4.56A1.04 1.04 0 0 0 5.38 4c-.39 0-.74.22-.91.56L3.36 6.8l-2.49.36a1 1 0 0 0-.56 1.72l1.79 1.74-.42 2.46a1.02 1.02 0 0 0 1.48 1.06l2.22-1.15 2.22 1.15a1 1 0 1 0 1.48-1.06l-.42-2.46 1.79-1.74a1 1 0 0 0 .26-1.04z"/><path fill="#fbab00" d="M10.05 7.01L9.99 7 7.18 9.75a.6.6 0 0 0-.17.54l.66 3.66.09.05a1 1 0 0 0 1.07-.08 1 1 0 0 0 .41-.99l-.42-2.46 1.79-1.73a1 1 0 0 0 .26-1.04 1 1 0 0 0-.82-.69z"/><path fill="#f7cb4f" d="M22.71 3.84a1 1 0 0 0-.82-.68l-2.48-.36L18.3.56a1.04 1.04 0 0 0-.92-.56c-.39 0-.74.22-.91.56L15.36 2.8l-2.49.36a1 1 0 0 0-.56 1.72l1.79 1.74-.42 2.46a1 1 0 0 0 .41.99 1 1 0 0 0 1.07.07l2.22-1.15 2.22 1.15a1.02 1.02 0 0 0 1.08-.07 1 1 0 0 0 .4-.99l-.42-2.46 1.79-1.74a1 1 0 0 0 .26-1.04z"/><path fill="#fbab00" d="M20.83 9.91c.32-.22.48-.6.41-.99l-.42-2.45 1.79-1.74a1 1 0 0 0 .26-1.04 1.02 1.02 0 0 0-.82-.69h-.03l-2.84 2.74a.6.6 0 0 0-.17.54l.51 2.98.13.67.11.06a1 1 0 0 0 1.07-.08z"/><path fill="#f7cb4f" d="M33.71 7.84a1 1 0 0 0-.82-.68l-2.48-.36-1.11-2.24a1.04 1.04 0 0 0-.92-.56c-.39 0-.74.22-.91.56L26.36 6.8l-2.49.36a1 1 0 0 0-.56 1.72l1.79 1.74-.42 2.46a1 1 0 0 0 .41.99 1 1 0 0 0 1.07.07l2.22-1.15 2.22 1.15a1.02 1.02 0 0 0 1.08-.07 1 1 0 0 0 .4-.99l-.42-2.46 1.79-1.74a1 1 0 0 0 .26-1.04z"/><path fill="#fbab00" d="M33.87 7.7a1 1 0 0 0-.82-.69L33 7l-2.82 2.75a.6.6 0 0 0-.17.54l.6 3.62.15.08a1 1 0 0 0 .47.12 1 1 0 0 0 .6-.19 1 1 0 0 0 .41-.99l-.42-2.46 1.79-1.74a.99.99 0 0 0 .26-1.03z"/><path fill="#546f7a" d="M9.72 22H.55a.54.54 0 0 0-.55.54v13.84c0 .3.24.54.55.54h9.17c.3 0 .55-.24.55-.54V22.54c0-.3-.25-.54-.55-.54z"/><path fill="#465a65" d="M0 35v1.54c0 .3.24.54.55.54h9.17c.3 0 .55-.24.55-.54V35z"/><path fill="#353535" d="M6 33a1 1 0 1 1 2 0 1 1 0 0 1-2 0z"/><path fill="#ffc89f" d="M30.51 24h-5.68c-1.01 0-1.83.81-1.83 1.82v.3c0 1 .82 1.81 1.83 1.81h5.68c1.01 0 1.83-.81 1.83-1.81v-.3c0-1.01-.82-1.82-1.83-1.82z"/><path fill="#f7b081" d="M30.51 27.09h-5.68c-.75 0-1.4-.45-1.68-1.09-.1.22-.15.47-.15.72v.31c0 1 .82 1.81 1.83 1.81h5.68c1.01 0 1.83-.81 1.83-1.81v-.31c0-.25-.05-.5-.15-.72a1.83 1.83 0 0 1-1.68 1.09z"/><path fill="#ffc89f" d="M31.18 27h-6.35c-1.01 0-1.83.81-1.83 1.82v.3c0 1 .82 1.81 1.83 1.81h6.35c1.01 0 1.83-.81 1.83-1.81v-.3c0-1.01-.82-1.82-1.83-1.82z"/><path fill="#f7b081" d="M31.18 29.1h-6.35c-.75 0-1.4-.45-1.68-1.1-.1.22-.15.46-.15.72v.3c0 1 .82 1.81 1.83 1.81h6.35c1.01 0 1.83-.81 1.83-1.81v-.3c0-.26-.06-.5-.15-.72-.28.65-.93 1.1-1.68 1.1z"/><path fill="#ffc89f" d="M30.36 30h-5.38c-1.09 0-1.98.88-1.98 1.97 0 1.08.89 1.96 1.98 1.96h5.38c1.09 0 1.98-.88 1.98-1.96 0-1.09-.89-1.97-1.98-1.97z"/><path fill="#f7b081" d="M30.36 32.08h-5.38A2 2 0 0 1 23.21 31a1.98 1.98 0 0 0 1.77 2.85h5.38A1.98 1.98 0 0 0 32.13 31a2 2 0 0 1-1.77 1.08z"/><path fill="#ffc89f" d="M28.88 33h-3.9c-1.09 0-1.98.88-1.98 1.97 0 1.08.89 1.96 1.98 1.96h3.9c1.09 0 1.98-.88 1.98-1.96 0-1.09-.89-1.97-1.98-1.97z"/><path fill="#f7b081" d="M28.88 35.08h-3.9A2 2 0 0 1 23.21 34a1.98 1.98 0 0 0 1.77 2.85h3.9A1.98 1.98 0 0 0 30.65 34a2 2 0 0 1-1.77 1.08z"/></svg>