<svg xmlns="http://www.w3.org/2000/svg" width="51" height="51" viewBox="0 0 51 51"><path fill="#4f77a8" d="M0 25.5a25.5 25.5 0 1 1 51 0 25.5 25.5 0 0 1-51 0z"/><path fill="#656d78" d="M20.62 24.75a.5.5 0 0 1-.33-.11.86.86 0 0 1-.29-.67v-3.24c0-.32.15-.61.39-.72l1.84-.95c.2-.1.41-.07.58.07.17.15.27.39.27.65v2.99c0 .3-.13.57-.33.7l-1.85 1.2a.6.6 0 0 1-.28.08z"/><path fill="#434a54" d="M43.64 31.03h-5.07l3.58-3.63a.8.8 0 0 0 0-1.11.77.77 0 0 0-1.09 0l-3.58 3.64v-5.15a.78.78 0 0 0-.77-.78.78.78 0 0 0-.78.78v5.15l-3.58-3.64a.77.77 0 0 0-1.09 0 .8.8 0 0 0 0 1.11l3.58 3.63h-5.07a.78.78 0 0 0 0 1.56h5.07l-3.58 3.64c-.3.3-.3.8 0 1.1.15.16.34.23.54.23s.4-.07.55-.23l3.58-3.63v5.14c0 .43.35.78.78.78.42 0 .77-.35.77-.78V33.7l3.58 3.63c.15.16.35.23.55.23.2 0 .39-.07.54-.23.3-.3.3-.8 0-1.1l-3.58-3.64h5.07a.78.78 0 0 0 0-1.56z"/><path fill="#656d78" d="M36.71 24A7.77 7.77 0 0 0 29 31.81a7.77 7.77 0 0 0 7.71 7.81c4.25 0 7.71-3.5 7.71-7.81A7.77 7.77 0 0 0 36.71 24zm0 14.06c-3.4 0-6.17-2.8-6.17-6.25a6.22 6.22 0 0 1 6.17-6.25c3.4 0 6.16 2.81 6.16 6.25a6.2 6.2 0 0 1-6.16 6.25z"/><path fill="#ccd1d9" d="M34 32.5a2.5 2.5 0 1 1 5 0 2.5 2.5 0 0 1-5 0z"/><path fill="#e6e9ed" d="M36.3 32.53a.78.78 0 0 1-.76-.67l-2.53-17.97a.77.77 0 1 1 1.52-.22l2.54 17.97a.78.78 0 0 1-.66.88l-.11.01z"/><path fill="#b0cd7a" d="M36.58 22.57l-.55-3.9a.77.77 0 0 0-.87-.66l-2.29.33a.78.78 0 0 0-.65.88v.03c-1.66.31-4.32.92-7.23 2.07a30.1 30.1 0 0 0-7.62 4.3 21.16 21.16 0 0 0-6.19 7.73c-.45.98-.03 2.14.93 2.6a1.92 1.92 0 0 0 2.56-.95c1.1-2.38 2.8-4.5 5.06-6.29a25.83 25.83 0 0 1 6.62-3.73 35.96 35.96 0 0 1 6.42-1.86c.03.21.14.39.3.52.16.12.37.17.57.14l2.29-.33c.2-.03.38-.14.51-.3a.8.8 0 0 0 .14-.58z"/><path fill="#434a54" d="M12 39V28h2v11z"/><path fill="#434a54" d="M16.63 37.84L9 30.1l1.09-1.1 7.63 7.73z"/><path fill="#434a54" d="M8 35v-2h11v2z"/><path fill="#434a54" d="M10.09 37.84L9 36.73 16.63 29l1.09 1.1z"/><path fill="#ccd1d9" d="M15.08 33.56c0 .87-.69 1.56-1.54 1.56-.85 0-1.54-.69-1.54-1.56 0-.86.69-1.56 1.54-1.56.85 0 1.54.7 1.54 1.56z"/><path fill="#434a54" d="M26.92 18.53a.88.88 0 0 0-.53-.25c-.1-.01-2.31-.28-4.52-.28-2.4 0-3.87.32-4.52.96-.3.29-.55.79-.12 1.52.32.53 1.07.64 1.65.64.46 0 .98-.06 1.59-.13.75-.08 1.6-.18 2.5-.18 1.58 0 2.58-.5 3.15-.92.6-.44.83-.88.86-.93a.38.38 0 0 0-.06-.43z"/><path fill="#b0cd7a" d="M33.26 14.95a.77.77 0 0 1-.77-.79c0-.21-.08-.38-.27-.56-.31-.3-1.21-.83-3.64-.99-1.47-.1-2.74-.01-2.75-.01a.78.78 0 0 1-.11-1.56c.05 0 1.39-.1 2.96.01 2.22.15 3.76.63 4.6 1.41.49.47.75 1.06.75 1.7 0 .44-.35.79-.77.79z"/><path fill="#656d78" d="M13.17 27C9.77 27 7 29.8 7 33.25a6.22 6.22 0 0 0 6.17 6.25 6.2 6.2 0 0 0 6.16-6.25A6.2 6.2 0 0 0 13.17 27zm0 10.94a4.67 4.67 0 0 1-4.63-4.69 4.66 4.66 0 0 1 4.63-4.69c2.55 0 4.62 2.1 4.62 4.69a4.66 4.66 0 0 1-4.62 4.69z"/><path fill="#b0cd7a" d="M25.77 15.26a.76.76 0 0 1-.74-.59.77.77 0 0 1 .55-.95c.06-.02 1.53-.41 3.24-.6 2.49-.3 4.11-.04 4.97.79.31.3.32.79.03 1.11a.76.76 0 0 1-1.09.02c-.23-.21-1.04-.69-3.72-.37-1.6.18-3.03.56-3.04.56a.7.7 0 0 1-.2.03z"/></svg>