<svg xmlns="http://www.w3.org/2000/svg" width="37" height="31" viewBox="0 0 37 31"><path fill="#ffd05b" d="M8 26V6h25v20z"/><path fill="#f9b54c" d="M29 26V6h1v20zm-4 0V6h1v20zm-5 0V6h1v20zm-4 0V6h1v20zm-5 0V6h1v20z"/><path fill="#e6e9ee" d="M8 12V9h25v3z"/><path fill="#ced5e0" d="M31 10.5a.5.5 0 1 1 1 0 .5.5 0 0 1-1 0zm-4 0a.5.5 0 1 1 1 0 .5.5 0 0 1-1 0zm-5 0a.5.5 0 1 1 1 0 .5.5 0 0 1-1 0zm-4 0a.5.5 0 1 1 1 0 .5.5 0 0 1-1 0zm-4 0a.5.5 0 1 1 1 0 .5.5 0 0 1-1 0zm-4 0a.5.5 0 1 1 1 0 .5.5 0 0 1-1 0z"/><path fill="#e6e9ee" d="M8 23v-3h25v3z"/><path fill="#ced5e0" d="M31 21.5a.5.5 0 1 1 1 0 .5.5 0 0 1-1 0zm-4 0a.5.5 0 1 1 1 0 .5.5 0 0 1-1 0zm-5 0a.5.5 0 1 1 1 0 .5.5 0 0 1-1 0zm-4 0a.5.5 0 1 1 1 0 .5.5 0 0 1-1 0zm-4 0a.5.5 0 1 1 1 0 .5.5 0 0 1-1 0zm-4 0a.5.5 0 1 1 1 0 .5.5 0 0 1-1 0z"/><path fill="#84dbff" d="M35.82 27.13H4.89a.8.8 0 0 1-.81-.81V6.22L.24 2.38a.8.8 0 0 1 0-1.14.8.8 0 0 1 1.14 0l4.08 4.07c.15.16.23.36.23.58V25.5h30.13a.81.81 0 0 1 0 1.63z"/><path fill="#2b3b4e" d="M28 28a3 3 0 1 1 6 0 3 3 0 0 1-6 0z"/><path fill="#e6e9ee" d="M29 28a2 2 0 1 1 4 0 2 2 0 0 1-4 0z"/><path fill="#2b3b4e" d="M6 28a3 3 0 1 1 6 0 3 3 0 0 1-6 0z"/><path fill="#e6e9ee" d="M8 28a2 2 0 1 1 4 0 2 2 0 0 1-4 0z"/></svg>