<svg xmlns="http://www.w3.org/2000/svg" width="22" height="21" viewBox="0 0 22 21"><path fill="#ecf0f1" d="M7.12 15.24l-2.69 1.44c-.16.09-.3.19-.43.3a9.04 9.04 0 0 0 5.81 2.09c2.2 0 4.21-.77 5.77-2.06-.14-.12-.3-.22-.47-.31l-2.88-1.42a1.07 1.07 0 0 1-.61-.96V13.2l.27-.34c.4-.55.69-1.15.9-1.78a.9.9 0 0 0 .64-.85V9.05a.9.9 0 0 0-.3-.66V6.67S13.49 4 9.81 4C6.13 4 6.49 6.67 6.49 6.67v1.72a.9.9 0 0 0-.3.66v1.18c0 .32.17.59.42.75.3 1.29 1.09 2.22 1.09 2.22v1.09c0 .39-.22.76-.58.95z"/><path fill="#78d6ff" d="M10.18 1A8.96 8.96 0 0 0 1 9.72a8.77 8.77 0 0 0 3.22 6.94c.13-.11.27-.21.42-.3l2.7-1.44c.35-.19.57-.56.57-.95v-1.09s-.79-.93-1.09-2.22a.89.89 0 0 1-.42-.75V8.73c0-.27.12-.5.3-.66V6.35s-.36-2.67 3.32-2.67c3.68 0 3.32 2.67 3.32 2.67v1.72c.19.16.3.39.3.66v1.18a.9.9 0 0 1-.64.85c-.21.63-.5 1.23-.9 1.78-.09.14-.19.25-.27.34V14c0 .4.24.78.61.96l2.88 1.42c.18.09.33.19.48.31a8.77 8.77 0 0 0 3.24-6.66A8.94 8.94 0 0 0 10.18 1z"/><path fill="#71c386" d="M10 15a6 6 0 1 1 12 0 6 6 0 0 1-12 0z"/><path fill="#fff" d="M18.47 13.94h-2.49v-2.45a.5.5 0 0 0-.49-.49.5.5 0 0 0-.5.49v2.45H12.5a.5.5 0 0 0-.5.49c0 .27.22.49.5.49h2.49v2.45c0 .27.22.49.5.49a.5.5 0 0 0 .49-.49v-2.45h2.49a.5.5 0 0 0 .5-.49.5.5 0 0 0-.5-.49z"/></svg>