<svg width="1460" height="1267" viewBox="0 0 1460 1267" xmlns="http://www.w3.org/2000/svg" xmlns:xlink="http://www.w3.org/1999/xlink"><view viewBox="0 0 9 13"/><svg width="9" height="13" viewBox="0 0 9 13" xmlns="http://www.w3.org/2000/svg"><path fill="#cacaca" d="M8.7 7.14l-6.03 5.59c-.38.35-1 .35-1.38 0a.86.86 0 0 1 0-1.29L6.62 6.5 1.29 1.55a.85.85 0 0 1 0-1.28c.38-.36 1-.36 1.39 0L8.7 5.85c.19.18.29.41.29.65 0 .23-.1.46-.29.64z"/></svg><view viewBox="9 13 9 13"/><svg width="9" height="13" viewBox="0 0 9 13" x="9" y="13" xmlns="http://www.w3.org/2000/svg"><path fill="#cacaca" d="M8.7 7.14l-6.03 5.59c-.38.35-1 .35-1.38 0a.86.86 0 0 1 0-1.29L6.62 6.5 1.29 1.55a.85.85 0 0 1 0-1.28c.38-.36 1-.36 1.39 0L8.7 5.85c.19.18.29.41.29.65 0 .23-.1.46-.29.64z"/></svg><view viewBox="18 26 11 18"/><svg width="11" height="18" viewBox="0 0 11 18" x="18" y="26" xmlns="http://www.w3.org/2000/svg"><path fill="#fff" d="M10.62 10.34l-7.53 7.31c-.48.46-1.25.46-1.73 0a1.17 1.17 0 0 1 0-1.69L8.02 9.5 1.36 3.03a1.16 1.16 0 0 1 0-1.68 1.24 1.24 0 0 1 1.73 0l7.53 7.31a1.15 1.15 0 0 1 0 1.68z"/></svg><view viewBox="29 44 62 50"/><svg width="62" height="50" viewBox="0 0 62 50" x="29" y="44" xmlns="http://www.w3.org/2000/svg"><path fill="#707070" d="M5.86 31.32S6.43 29 4.48 27c-1.95-2-4.39-2-4.39-2s-.6 2.73 1.31 4.68c1.9 1.94 4.46 1.64 4.46 1.64zm29.55.93V11h-5.04a4.42 4.42 0 0 1-.63 2.21c-.38.6-.87 1.08-1.46 1.44-.6.36-1.26.61-2 .76-.74.15-1.5.22-2.28.2v4.4h5.02v12.24z"/><path fill="#707070" d="M16 21.38c-.15-.86-.25-1.75-.25-2.66 0-8.23 6.71-14.92 14.98-14.99v.01a15.06 15.06 0 0 1 14.76 17.65h3.79c.13-.87.21-1.75.21-2.66A18.81 18.81 0 0 0 30.76.01V0A18.81 18.81 0 0 0 12 18.72c0 .91.09 1.79.21 2.66zm-5.53 9.1s2.26-1.24 2.67-3.92c.4-2.69-1.68-4.56-1.68-4.56s-1.98 1.41-2.4 4.17a4.9 4.9 0 0 0 1.41 4.31zM12 33.44a4.9 4.9 0 0 0 1.96 4.09s2.09-1.52 2.13-4.23c.05-2.71-2.26-4.3-2.26-4.3s-1.78 1.65-1.83 4.44zm5.42-.44s-1.62 1.82-1.4 4.59c.22 2.78 2.34 3.89 2.34 3.89s1.93-1.7 1.72-4.41c-.21-2.7-2.66-4.07-2.66-4.07zm7.4 11.85s1.35-2.18.37-4.71C24.2 37.61 21.46 37 21.46 37s-1.02 2.2-.01 4.8a4.93 4.93 0 0 0 3.37 3.05zM6.87 24.44s1.77-1.62 1.26-4.36C7.63 17.35 5.6 16 5.6 16s-2.01 1.94-1.52 4.61a5.7 5.7 0 0 0 2.79 3.83zm1.53 12.1s-.15-2.38-2.61-3.72C3.33 31.48 1 32.19 1 32.19s.24 2.78 2.64 4.09c2.39 1.3 4.76.26 4.76.26z"/><path fill="#707070" d="M12.18 40.31s-.67-2.29-3.37-3.06c-2.7-.76-4.81.45-4.81.45s.86 2.65 3.49 3.4c2.62.74 4.69-.79 4.69-.79zm4.42 3.59s-1.35-1.98-4.15-1.9C9.64 42.08 8 43.87 8 43.87s1.63 2.28 4.36 2.2c2.73-.08 4.24-2.17 4.24-2.17zm2.59 1.16c-2.77.42-4.19 2.38-4.19 2.38s1.89 2.07 4.59 1.67c2.71-.41 3.95-2.66 3.95-2.66s-1.58-1.8-4.35-1.39z"/><path fill="#707070" d="M7.34 26.04L6 26c-.01.14-.27 14.54 21.64 20.91l.37-1.27C7.16 39.57 7.32 26.6 7.34 26.04zm48.74 5.28s2.56.3 4.46-1.64c1.9-1.95 1.31-4.68 1.31-4.68s-2.44 0-4.39 2c-1.95 2-1.38 4.32-1.38 4.32zm-7.03-4.76a5.71 5.71 0 0 0 2.67 3.92s1.82-1.56 1.41-4.31c-.41-2.76-2.4-4.17-2.4-4.17s-2.08 1.87-1.68 4.56zM46 33.3a5.7 5.7 0 0 0 2.13 4.23s2.01-1.31 1.96-4.09c-.04-2.78-1.82-4.44-1.82-4.44s-2.31 1.59-2.27 4.3zm-4.98 3.77a5.67 5.67 0 0 0 1.72 4.41s2.13-1.11 2.34-3.89c.21-2.77-1.4-4.59-1.4-4.59s-2.45 1.37-2.66 4.07zm-4.66 3.07c-.99 2.53.37 4.71.37 4.71s2.36-.45 3.37-3.05c1.01-2.6-.01-4.8-.01-4.8s-2.74.61-3.73 3.14zm20.79-18.53c.49-2.67-1.53-4.61-1.53-4.61s-2.03 1.35-2.53 4.08c-.5 2.74 1.26 4.36 1.26 4.36s2.31-1.16 2.8-3.83zM55.6 32.82c-2.45 1.34-2.6 3.72-2.6 3.72s2.36 1.04 4.76-.26c2.39-1.31 2.64-4.09 2.64-4.09s-2.34-.71-4.8.63z"/><path fill="#707070" d="M52.37 37.25A4.92 4.92 0 0 0 49 40.31s2.07 1.53 4.7.79c2.63-.75 3.48-3.4 3.48-3.4s-2.11-1.21-4.81-.45zM49.15 42A4.95 4.95 0 0 0 45 43.9s1.5 2.09 4.24 2.17c2.73.08 4.36-2.2 4.36-2.2s-1.65-1.79-4.45-1.87zm-6.81 3.06c-2.77-.41-4.34 1.39-4.34 1.39s1.24 2.25 3.94 2.66c2.71.4 4.6-1.66 4.6-1.66s-1.42-1.98-4.2-2.39zM55.01 26l-1.33.05c.02.54.18 13.52-20.68 19.59l.38 1.28C55.28 40.54 55.02 26.14 55.01 26z"/></svg><view viewBox="91 94 51 51"/><svg width="51" height="51" viewBox="0 0 51 51" x="91" y="94" xmlns="http://www.w3.org/2000/svg"><path fill="#4f77a8" d="M0 25.5a25.5 25.5 0 1 1 51 0 25.5 25.5 0 0 1-51 0z"/><path fill="#434a54" d="M13.83 40.44a2.43 2.43 0 0 1-2.42 2.44A2.42 2.42 0 0 1 9 40.44 2.42 2.42 0 0 1 11.41 38a2.43 2.43 0 0 1 2.42 2.44zm21 0a2.43 2.43 0 0 1-2.42 2.44A2.42 2.42 0 0 1 30 40.44 2.42 2.42 0 0 1 32.41 38a2.43 2.43 0 0 1 2.42 2.44z"/><path fill="#656d78" d="M10.43 33.27a.78.78 0 0 1-.57-.24L8.24 31.4a.82.82 0 0 1 0-1.16.8.8 0 0 1 1.14 0l1.11 1.12.2-.1c.77-.35 1.9-.52 3.36-.52.45 0 .81.37.81.82 0 .45-.36.82-.81.82-2.22 0-2.84.43-2.94.51a.8.8 0 0 1-.52.37l-.16.01z"/><path fill="#83b35f" d="M32.42 31H14.19c-.23 0-.45.1-.61.28l-1.38 1.64a.81.81 0 0 0 .61 1.35h19.61c.44 0 .81-.37.81-.82v-1.63a.82.82 0 0 0-.81-.82z"/><path fill="#434a54" d="M35.49 5.1a2.8 2.8 0 0 0-.74-.91.8.8 0 0 0-.52-.19.82.82 0 0 0-.81.82c0 .27.14.52.35.67l-.01-.01s.19.15.3.39c.04.09.17.39-.16.92l-1.88 2.35L10.2 34.48a.83.83 0 0 0 .08 1.16c.15.13.34.2.53.2.22 0 .45-.1.61-.28L33.25 10.2l.02-.02 1.91-2.4.05-.06c.57-.87.66-1.8.26-2.62z"/><path fill="#656d78" d="M20.05 24.91a.85.85 0 0 1-.43-.12l-5.24-3.28a.82.82 0 0 1-.26-1.12.8.8 0 0 1 1.11-.27l5.24 3.27c.38.24.5.74.27 1.13a.82.82 0 0 1-.69.39z"/><path fill="#b0cd7a" d="M32.94 10.33a.81.81 0 0 0-.32-.57A10.34 10.34 0 0 0 26.81 8h-.01c-4.51 0-6.55 2.63-6.63 2.74a.78.78 0 0 0-.16.61c.03.22.14.41.32.55l6.51 4.87c.14.11.31.16.48.16.23 0 .46-.1.62-.28l4.81-5.7c.15-.17.22-.4.19-.62z"/><path fill="#434a54" d="M10.81 34a.82.82 0 0 0-.81.82v1.63a.8.8 0 1 0 1.62 0v-1.63a.82.82 0 0 0-.81-.82zm21-24a.82.82 0 0 0-.81.82v26.17c0 .45.36.82.81.82.45 0 .81-.37.81-.82V10.82a.82.82 0 0 0-.81-.82z"/><path fill="#b0cd7a" d="M13.81 32.9a.81.81 0 0 1-.61-1.35l18.22-21.27a.8.8 0 0 1 .94-.21c.05.02 1.36.61 2.66 1.87a8.45 8.45 0 0 1 2.68 6.16c0 4.85-2.67 8.81-7.73 11.43-4.19 2.17-9.93 3.37-16.16 3.37z"/><path fill="#ccd1d9" d="M11.62 39.82c0 .45-.36.82-.81.82a.82.82 0 0 1-.81-.82c0-.45.36-.82.81-.82.45 0 .81.37.81.82zm21 0c0 .45-.36.82-.81.82a.82.82 0 0 1-.81-.82c0-.45.36-.82.81-.82.45 0 .81.37.81.82z"/><path fill="#656d78" d="M11.24 43.54A3.26 3.26 0 0 1 8 40.27C8 38.47 9.45 37 11.24 37a3.26 3.26 0 0 1 3.23 3.27c0 1.8-1.45 3.27-3.23 3.27zm0-4.9c-.9 0-1.62.73-1.62 1.63 0 .9.72 1.64 1.62 1.64a1.64 1.64 0 0 0 0-3.27zm21 4.9A3.26 3.26 0 0 1 29 40.27c0-1.8 1.45-3.27 3.24-3.27a3.26 3.26 0 0 1 3.23 3.27c0 1.8-1.45 3.27-3.23 3.27zm0-4.9c-.9 0-1.62.73-1.62 1.63 0 .9.72 1.64 1.62 1.64a1.64 1.64 0 0 0 0-3.27z"/></svg><view viewBox="142 145 51 51"/><svg width="51" height="51" viewBox="0 0 51 51" x="142" y="145" xmlns="http://www.w3.org/2000/svg"><path fill="#4f77a8" d="M0 25.5a25.5 25.5 0 1 1 51 0 25.5 25.5 0 0 1-51 0z"/><path fill="#d6d5d6" d="M42.48 28.59h-3.73l2.63-2.62-.88-.88-2.64 2.62V24h-1.25v3.71l-2.63-2.62-.89.88 2.64 2.62H32v1.25h3.73l-2.64 2.62.89.88 2.63-2.62v3.71h1.25v-3.71l2.64 2.62.88-.88-2.63-2.62h3.73z"/><path fill="#444" d="M37.39 21A7.37 7.37 0 0 0 30 28.35a7.37 7.37 0 0 0 7.39 7.36 7.37 7.37 0 0 0 7.39-7.36A7.37 7.37 0 0 0 37.39 21zm0 12.49a5.15 5.15 0 0 1 0-10.27 5.15 5.15 0 1 1 0 10.27z"/><path fill="#d6d5d6" d="M18.48 28.59h-4.62V24h-1.25v3.71l-2.63-2.62-.89.88 2.64 2.62H8v1.25h3.73l-2.64 2.62.89.88 2.63-2.62v3.71h1.25v-3.71l2.64 2.62.88-.88-2.63-2.62h3.73z"/><path fill="#444" d="M13.39 21A7.37 7.37 0 0 0 6 28.35a7.37 7.37 0 0 0 7.39 7.36 7.37 7.37 0 0 0 7.39-7.36A7.37 7.37 0 0 0 13.39 21zm0 12.49a5.15 5.15 0 0 1 0-10.27 5.15 5.15 0 1 1 0 10.27z"/><path d="M7.27 28.35c0-3.84 2.97-7 6.75-7.32A7.37 7.37 0 0 0 6 28.35a7.37 7.37 0 0 0 8.02 7.33 7.37 7.37 0 0 1-6.75-7.33z"/><path fill="#b0cd7a" d="M31.98 20l-6.93 7.98H13.6a.6.6 0 0 0-.6.59c0 .33.27.59.6.59h11.72c.18 0 .34-.07.45-.2l7.69-8.85.08-.11z"/><path fill="#b0cd7a" d="M33.82 15h-1.27l1.58 4.3H23.31l-1.12-3.28h-1.26l1.28 3.73L14 28.04l.85.83 7.79-7.86 2.62 7.69 1.13-.39-2.68-7.83h10.85l2.96 8.04 1.12-.4z"/><path fill="#ff9b4b" d="M12 28.5a1.5 1.5 0 1 1 3 0 1.5 1.5 0 0 1-3 0z"/><path d="M13.32 28.56c0-.63.37-1.17.91-1.41a1.56 1.56 0 1 0 0 2.83 1.56 1.56 0 0 1-.91-1.42z"/><path fill="#b0cd7a" d="M37.05 12H34v1.18h3.05c.7 0 1.27.57 1.27 1.27 0 .69-.57 1.26-1.27 1.26h-1.72a.58.58 0 0 0-.59.59c0 .33.26.59.59.59h1.72c1.36 0 2.46-1.1 2.46-2.44 0-1.35-1.1-2.45-2.46-2.45z"/><path fill="#868686" d="M33.9 15.23a.4.4 0 0 1-.41.4h-2.08a.4.4 0 0 1-.41-.4v-.82a.4.4 0 0 1 .41-.41h2.08a.4.4 0 0 1 .41.41z"/><path fill="#444" d="M35.43 13.02c0 .45-.37.82-.82.82h-2.79a.82.82 0 0 1-.82-.82v-.2c0-.45.37-.82.82-.82h2.79c.45 0 .82.37.82.82z"/><path d="M32.71 13.02v-.2c0-.45.37-.82.82-.82h-1.71a.82.82 0 0 0-.82.82v.2c0 .45.37.82.82.82h1.71a.82.82 0 0 1-.82-.82z"/><path fill="#ff9b4b" d="M36 28.5a1.5 1.5 0 1 1 3 0 1.5 1.5 0 0 1-3 0z"/><path fill="#868686" d="M22.9 17.23a.4.4 0 0 1-.41.4h-2.08a.4.4 0 0 1-.41-.4v-.82a.4.4 0 0 1 .41-.41h2.08a.4.4 0 0 1 .41.41z"/><path fill="#444" d="M24.74 15.39c0 .45-.37.82-.82.82h-5.1a.82.82 0 0 1-.82-.82v-.57c0-.45.37-.82.82-.82h5.1c.45 0 .82.37.82.82z"/><path d="M19.72 15.39v-.57c0-.45.37-.82.82-.82h-1.72a.82.82 0 0 0-.82.82v.57c0 .45.37.82.82.82h1.72a.82.82 0 0 1-.82-.82z"/><path fill="#d6d5d6" d="M22 29a3 3 0 1 1 6 0 3 3 0 0 1-6 0z"/><path d="M23.49 28.98a3 3 0 0 1 2.25-2.89 2.99 2.99 0 1 0 0 5.78 3 3 0 0 1-2.25-2.89z"/><path fill="#868686" d="M26.19 34.2v-4.61a.6.6 0 0 0-.59-.59.6.6 0 0 0-.6.59v4.61z"/><path fill="#b0cd7a" d="M26.88 35.06c0 .23-.19.41-.41.41h-3.06a.4.4 0 0 1-.41-.41v-.65a.4.4 0 0 1 .41-.41h3.06c.22 0 .41.18.41.41z"/></svg><view viewBox="193 196 37 41"/><svg width="37" height="41" viewBox="0 0 37 41" x="193" y="196" xmlns="http://www.w3.org/2000/svg"><defs><clipPath id="a"><path fill="#fff" d="M277 16a7 7 0 0 1 7-7h23a7 7 0 0 1 7 7v27a7 7 0 0 1-7 7h-23a7 7 0 0 1-7-7z"/></clipPath></defs><path fill="#e2574c" d="M11.41 9h14.1c.78 0 1.41.64 1.41 1.43v20.06c0 .83-.62 1.43-1.41 1.43-.66 0-5.66-3.18-6.34-3.58-.69-.41-.7-.43-1.41 0-.72.43-5.68 3.58-6.35 3.58-.8 0-1.41-.57-1.41-1.43V10.43c0-.79.63-1.43 1.41-1.43z"/><path fill="#e45448" d="M25.05 9H18v19.03c.18 0 .36.1.71.31.68.4 5.64 3.56 6.33 3.58h.03c.78-.01 1.39-.6 1.39-1.43V10.43c0-.79-.63-1.43-1.41-1.43z"/><path fill="#efc75e" d="M24.28 17.33l-3.71-.28L18.64 13l-1.95 4.05-3.69.28 2.47 3.13-.71 4 3.88-1.84 3.88 1.84-.72-4z"/><path fill="#d7b354" d="M21.88 24.46l-.72-4 2.48-3.13-3.71-.28L18 13v9.62z"/><path fill="none" stroke="#dcdcdc" stroke-miterlimit="50" stroke-width="2" d="M277 16a7 7 0 0 1 7-7h23a7 7 0 0 1 7 7v27a7 7 0 0 1-7 7h-23a7 7 0 0 1-7-7z" clip-path="url(#a)" transform="translate(-277 -9)"/></svg><view viewBox="230 237 41 52"/><svg width="41" height="52" viewBox="0 0 41 52" x="230" y="237" xmlns="http://www.w3.org/2000/svg"><path fill="#707070" d="M8.58 14.59c-1.68.6-2.28 2.98-1.35 5.64.56 1.62 1.55 2.9 2.63 3.42.25.12.45.2.69.24.74 1.5 1.7 2.99 2.72 4.28v4H9.19A9.34 9.34 0 0 0 0 41.53v4.75c0 .52.32 1 .79 1.22a45.77 45.77 0 0 0 27.7 3.81c7.1-1.26 11.51-3.75 11.69-3.86.42-.23.65-.68.65-1.17v-4.75c0-5.09-4.03-9.36-9.08-9.36h-4.02v-4.35a19.15 19.15 0 0 0 2.48-3.92 3.34 3.34 0 0 0 1.81-.97 7.13 7.13 0 0 0 1.64-2.7c.68-1.95.57-3.75-.21-4.8C33.45 5.72 26.91 1 20.41 1H8.7c-.4-.01-.78.18-1.04.49-.25.31-.36.72-.28 1.12.42 2.11 1.2 4.01 2.33 5.69zm4.46-2.69c-.01 1.37-.3 2.33-.85 2.71-.27.19-.62.25-.95.25l.7-3.92c.35.33.72.65 1.1.96zm2.95 21.74v-3.03a7.73 7.73 0 0 0 4.36 1.46c1.7 0 3.3-.64 4.66-1.66v3.23c0 .35.18.67.4.91-.3 1.96-2.86 5.34-4.96 7.64-2.13-2.34-4.57-5.58-4.96-7.5.31-.24.5-.62.5-1.05zm15.4-16.61a4.92 4.92 0 0 1-1.46 4.17 1.33 1.33 0 0 0-1.72.7c-1.51 3.45-4.46 7.48-7.8 7.48-2.39 0-4.59-2.08-6.2-4.54a8.5 8.5 0 0 0 3.1.61c.33.44.86.71 1.45.71h2.36c1.01 0 1.85-.8 1.85-1.82v-.59a1.9 1.9 0 0 0-1.85-1.89h-2.36c-.67 0-1.26.38-1.58.92-.5-.02-1.13-.1-1.79-.35-1.85-.7-3.22-2.34-4.07-4.89.74 0 1.59-.17 2.37-.7a4.79 4.79 0 0 0 1.88-3.26 24.7 24.7 0 0 0 5.6 2.23c3.61.97 8.16 1.19 10.22 1.22zM20.42 3.68c4.63 0 10.02 2.9 10.37 10.63h-.01c-4.13 0-17.13-.8-20.36-10.63 2.73.03 7.89 0 10 0zm7.45 44.99a42.66 42.66 0 0 1-25.15-3.25v-3.89a6.57 6.57 0 0 1 6.47-6.62h3.68c.67 3.95 6.01 9.49 6.66 10.14.26.26.6.41.94.41.34 0 .68-.16.94-.42.65-.65 5.99-6.18 6.66-10.13h3.68a6.48 6.48 0 0 1 6.36 6.62v3.93c-1.36.7-5.1 2.32-10.24 3.21z"/></svg><view viewBox="271 289 31 32"/><svg width="31" height="32" viewBox="0 0 31 32" x="271" y="289" xmlns="http://www.w3.org/2000/svg"><title>new_icon</title><g fill="none" fill-rule="evenodd"><g fill-rule="nonzero"><ellipse fill="#FFDA44" cx="11.313" cy="13.256" rx="1.317" ry="1.335"/><ellipse fill="#FFDA44" cx="19.683" cy="18.674" rx="1.317" ry="1.335"/><path d="M30.546 17.732l-.478-.661a2.106 2.106 0 0 1-.02-2.428l.465-.668c.71-1.02.381-2.44-.71-3.036l-.71-.386a2.082 2.082 0 0 1-1.053-2.18l.135-.804c.207-1.23-.704-2.369-1.937-2.421l-.807-.033a2.064 2.064 0 0 1-1.886-1.499l-.226-.785a2.04 2.04 0 0 0-2.784-1.328l-.743.32a2.028 2.028 0 0 1-2.338-.523l-.536-.61a2.03 2.03 0 0 0-3.074.026l-.53.616a2.035 2.035 0 0 1-2.33.556l-.75-.314c-1.143-.478-2.435.17-2.764 1.374l-.213.792a2.046 2.046 0 0 1-1.86 1.524l-.808.046c-1.233.072-2.124 1.224-1.898 2.454l.148.805a2.084 2.084 0 0 1-1.02 2.192l-.704.4a2.092 2.092 0 0 0-.659 3.043l.478.66c.517.72.53 1.695.02 2.428l-.466.668a2.098 2.098 0 0 0 .71 3.036l.711.386a2.082 2.082 0 0 1 1.053 2.18l-.136.804c-.206 1.23.704 2.37 1.938 2.422l.807.032c.878.04 1.64.642 1.886 1.499l.226.785a2.04 2.04 0 0 0 2.784 1.329l.742-.321a2.028 2.028 0 0 1 2.338.523l.536.609a2.03 2.03 0 0 0 3.074-.026l.53-.615a2.035 2.035 0 0 1 2.331-.557l.75.315c1.143.477 2.434-.17 2.764-1.375l.213-.791a2.046 2.046 0 0 1 1.86-1.525l.807-.046c1.234-.072 2.125-1.224 1.899-2.454l-.149-.805a2.084 2.084 0 0 1 1.02-2.192l.705-.4c1.078-.601 1.388-2.028.659-3.042z" fill="#AED37E"/></g><path d="M9.406 20.485c-.392 0-.613-.214-.663-.642l-.192-1.497a12.642 12.642 0 0 1-.095-1.497c0-.128.008-.344.023-.65.016-.305.024-.522.024-.65 0-.984-.182-1.476-.546-1.476-.51 0-.999.303-1.463.91-.42.55-.748 1.248-.985 2.091-.009.178-.03.401-.061.67a5.566 5.566 0 0 0-.041.663c0 .137.013.342.04.615.028.274.042.479.042.616a.682.682 0 0 1-.188.499.646.646 0 0 1-.482.191.644.644 0 0 1-.486-.191.689.689 0 0 1-.184-.5 6.26 6.26 0 0 0-.045-.615 6.26 6.26 0 0 1-.044-.615c0-.47.033-1.12.1-1.951.065-.832.098-1.483.098-1.952 0-.146-.008-.362-.024-.65a12.76 12.76 0 0 1-.024-.649.64.64 0 0 1 .195-.482.667.667 0 0 1 .482-.188c.42 0 .65.296.69.889l.021.8c.766-1.021 1.552-1.532 2.359-1.532.729 0 1.237.322 1.524.964.196.429.303 1.062.321 1.9v.691l-.007.636c0 .378.05.867.147 1.466.098.6.147 1.086.147 1.46a.65.65 0 0 1-.194.488.676.676 0 0 1-.49.188zm5.277-.17c-1.03 0-1.864-.258-2.502-.773-.697-.57-1.046-1.367-1.046-2.393 0-1.184.287-2.178.862-2.98.624-.875 1.458-1.313 2.502-1.313.756 0 1.374.128 1.852.383.588.315.882.798.882 1.45 0 .455-.258.87-.773 1.244-.227.164-.71.419-1.449.765L12.4 17.936c.255.378.573.663.954.854.38.191.823.287 1.33.287.314 0 .683-.06 1.107-.178.537-.15.884-.347 1.039-.59.155-.245.32-.367.499-.367a.6.6 0 0 1 .427.182c.125.12.188.26.188.42 0 .506-.408.941-1.224 1.306-.697.31-1.376.464-2.037.464zm-.184-6.228c-.556 0-1.019.215-1.388.646-.37.43-.645 1.079-.827 1.945l2.098-.998c.825-.401 1.413-.75 1.764-1.046-.392-.365-.941-.547-1.647-.547zm12.844-.205a84.441 84.441 0 0 1-1.394 5.038 4.86 4.86 0 0 1-.636 1.278c-.16.242-.376.36-.65.356-.496-.01-.884-.627-1.162-1.853a19.534 19.534 0 0 1-.28-1.6l-.225-1.524-.56 1.306-1.04 2.823a.84.84 0 0 1-.26.397.715.715 0 0 1-.656.41c-.346.013-.681-.666-1.005-2.037-.164-.707-.328-1.664-.492-2.872l-.164-1.025a7.438 7.438 0 0 1-.089-1.032c0-.192.067-.35.202-.475a.69.69 0 0 1 .488-.188c.347 0 .561.189.643.567.06.27.107.602.144.998l.102 1.005.403 3.07a88.818 88.818 0 0 0 1.573-4.854c.15-.506.412-.759.786-.759.36 0 .604.283.731.848.119.533.267 1.353.445 2.46a49.16 49.16 0 0 0 .485 2.687l.499-1.86.882-3.725c.068-.278.264-.417.588-.417.191 0 .357.065.499.195.141.13.212.286.212.468 0 .023-.023.128-.069.315z" fill="#FFF"/></g></svg><view viewBox="302 321 214 25"/><svg width="214" height="25" viewBox="0 0 214 25" x="302" y="321" xmlns="http://www.w3.org/2000/svg"><title>copygukov</title><g fill="none" fill-rule="evenodd"><g font-size="18"><text fill="#F2F2F2" font-family="OpenSans, Open Sans" transform="translate(51 5)"><tspan x=".009" y="19">GUKOV</tspan></text><text fill="#9E9E9E" font-family="OpenSans-Light, Open Sans" font-weight="300" transform="translate(51 5)"><tspan x="66.138" y="19">ALEXANDER</tspan></text></g><text transform="translate(52 -3)" font-size="9" font-family="OpenSans, Open Sans" fill="#9E9E9E"><tspan x=".854" y="10">Create</tspan> <tspan x="28.306" y="10">d by</tspan></text><text fill="#FB0" font-family="OpenSans-Light, Open Sans" font-size="15" font-weight="300" transform="translate(-14 -3)"><tspan x="14" y="22.657">&lt;</tspan></text><text fill="#FB0" font-family="RobotoCondensed-Regular, Roboto Condensed" font-size="25" font-style="condensed" transform="translate(-14 -3)"><tspan x="26.595" y="26">G</tspan></text><text transform="rotate(180 22.083 13.071)" font-size="15" font-family="OpenSans-Light, Open Sans" fill="#FB0" font-weight="300"><tspan x=".246" y="16.571">&lt;/</tspan></text></g></svg><view viewBox="516 346 51 51"/><svg width="51" height="51" viewBox="0 0 51 51" x="516" y="346" xmlns="http://www.w3.org/2000/svg"><path fill="#72d4ff" d="M0 25.5a25.5 25.5 0 1 1 51 0 25.5 25.5 0 0 1-51 0z"/><path fill="#6d6d6d" d="M20.13 31.65l-.02-.51a7.65 7.65 0 0 0-2.95-5.58c-.55-.43-.98-.64-1.06-.69A7.58 7.58 0 0 0 5 31.65a7.59 7.59 0 0 0 11.1 6.78c.15-.09 1.07-.55 2-1.56a7.68 7.68 0 0 0 2.03-5.22zm-12.88 0a5.33 5.33 0 0 1 8.04-4.63c4.24 2.56 3.05 9.09-1.82 9.94-3.28.57-6.22-2-6.22-5.31z"/><path fill="#98c44d" d="M30.66 25.86L36.79 19h-2.61L29 24.79z"/><path fill="#7fa338" d="M29.85 25.34L35.51 19h-1.33L29 24.79z"/><path fill="#6d6d6d" d="M45.9 29.79a7.54 7.54 0 0 0-11.8-4.31 7.7 7.7 0 0 0-3.04 7.16 7.6 7.6 0 0 0 7.51 6.69 7.64 7.64 0 0 0 7.33-9.54zm-12.29-.09a5.27 5.27 0 0 1 9.91 0 5.39 5.39 0 0 1-4.95 7.36 5.4 5.4 0 0 1-4.96-7.36z"/><path fill="#545454" d="M33.39 32.93c-.78-3.33 1.6-8.11 6.32-8.84a7.62 7.62 0 0 0-8.65 8.55 7.6 7.6 0 0 0 8.65 6.61 7.63 7.63 0 0 1-6.32-6.32zm-26 0c-.68-2.9 1.23-8.05 6.32-8.84a7.45 7.45 0 0 0-3.23.21h-.03a7.68 7.68 0 0 0-5.39 8.34 7.58 7.58 0 0 0 8.65 6.6 7.62 7.62 0 0 1-6.32-6.31z"/><path fill="#f95753" d="M40.86 17.5c0 .83-.67 1.5-1.48 1.5h-6.9c-.82 0-1.48-.67-1.48-1.5s.66-1.5 1.48-1.5h6.9c.81 0 1.48.67 1.48 1.5z"/><path fill="#cc4a4a" d="M39.38 16.75h-6.9c-.55 0-1.02-.3-1.28-.75a1.5 1.5 0 0 0 1.28 2.25h6.9A1.5 1.5 0 0 0 40.66 16c-.26.45-.73.75-1.28.75z"/><path fill="#cde06e" d="M39.07 31.19L18.74 18 18 19.95l19.98 12.96a.99.99 0 0 0 1.39-.31c.3-.48.17-1.11-.3-1.41z"/><path fill="#a8d855" d="M38.89 32.12a1 1 0 0 1-.54-.16L18.37 19l-.37.99 19.98 12.96c.74.48 1.69-.17 1.53-1.05a1 1 0 0 1-.62.22z"/><path fill="#bababa" d="M23.29 10h-5.07A3.25 3.25 0 0 0 15 13.27c0 1.34.8 2.49 1.95 2.99.5-1.34.52-1.55.9-1.77a1.27 1.27 0 0 1-.89-1.22c0-.71.56-1.29 1.26-1.29h5.07c.54 0 .98-.44.98-.99a.98.98 0 0 0-.98-.99z"/><path fill="#90938f" d="M24.26 11.44a.74.74 0 0 0-.67-.44h-5.18A2.42 2.42 0 0 0 16 13.44c0 .93.52 1.75 1.29 2.15.16-.44.22-.69.54-.9l.02-.05c-.5-.17-.86-.65-.86-1.21 0-.71.56-1.28 1.26-1.28h5.07c.44 0 .82-.3.94-.71z"/><path fill="#98c44d" d="M11.62 32.32a.98.98 0 0 1-.56-1.26l6.2-16.43a.95.95 0 0 1 1.25-.56c.5.19.75.76.56 1.26l-6.2 16.43a.96.96 0 0 1-1.25.56z"/><path fill="#7fa338" d="M11.93 31.31l6.2-16.43c.12-.32.4-.54.71-.61a.83.83 0 0 0-.32-.2.97.97 0 0 0-1.26.56l-6.19 16.43a.98.98 0 0 0 1.1 1.31.99.99 0 0 1-.24-1.06z"/></svg><view viewBox="567 397 48 48"/><svg width="48" height="48" viewBox="0 0 48 48" x="567" y="397" xmlns="http://www.w3.org/2000/svg"><path fill="#39bcf6" d="M0 23.5C0 10.52 10.75 0 24 0s24 10.52 24 23.5S37.25 47 24 47 0 36.48 0 23.5z"/><path fill="#f1543f" d="M31.02 26.83s-3.85-1.52-7.02-.44v3.72c.49-.07.94-.19 1.4-.3l5.24-1.11z"/><path fill="#f1543f" d="M17 26.8l.38 1.86 6.64 1.46v-3.73c-3.17-1.08-7.02.41-7.02.41z"/><path fill="#fff" d="M34.1 31.44L29.31 26h-9.52L15 31.44z"/><path fill="#ff7058" d="M21 34v-4h7v4z"/><path fill="#fff" d="M28.66 26.7c-.03-.03-.03-.11-.07-.14 0 0-.08.4-.57 1a5.46 5.46 0 0 1-8.38 0c-.49-.63-.56-1-.56-1-.04.03-.04.07-.08.11.19-.3.26-.67.3-1.01l.12-1.38.26-4.28h8.23l.41 5.66c.04.3.12.6.23.9.04.03.08.07.11.14z"/><path fill="#e6e9ee" d="M28.91 24.77c-1.29 1.49-2.83 2.46-4.46 2.46-1.66 0-3.2-.97-4.45-2.46l.04-.52.3-4.25h8.23z"/><path fill="#fff" d="M16.75 11a8.47 8.47 0 0 0-.75 3.61c0 5.33 3.55 12.03 7.89 12.03s7.89-6.7 7.89-12.03a7.9 7.9 0 0 0-.76-3.61z"/><path fill="#fff" d="M33.79 17c-.56 1.27-1.54 1.98-2.22 1.61-.68-.38-.76-1.68-.19-2.91.56-1.27 1.55-1.97 2.23-1.6.67.33.75 1.64.18 2.9zm-18.41 0c.56 1.27 1.55 1.98 2.23 1.61.67-.38.75-1.68.18-2.91-.56-1.27-1.54-1.97-2.22-1.6-.68.33-.76 1.64-.19 2.9z"/><path fill="#2b3b4e" d="M17.19 10h-1.81a8.57 8.57 0 0 0 1.36 7.64 14.98 14.98 0 0 1-.49-3.62c0-1.64.34-2.98.94-4.02zM31 10c.6 1.04.94 2.38.94 4.02 0 1.16-.15 2.42-.49 3.62A8.57 8.57 0 0 0 32.81 10z"/><path fill="#2b3b4e" d="M33.19 12.5c0 .63-.07 1.23-.19 1.83-.33-.12-.71 0-1.05.26v-.93a2.23 2.23 0 0 0-3.1-1.98 12.9 12.9 0 0 1-4.75.82c-1.82 0-3.48-.3-4.76-.82a2.23 2.23 0 0 0-3.09 1.98v.93c-.38-.26-.76-.38-1.06-.26-.11-.6-.19-1.2-.19-1.83 0-.86.11-1.71.38-2.49.04-.08.04-.19.07-.27 2.46-.48 5.48-.74 8.68-.74 3.21 0 6.19.26 8.69.74.03.08.03.19.07.27.15.78.3 1.63.3 2.49z"/><path fill="#f1543f" d="M23 31h1.13H23z"/><path fill="#ff7058" d="M43.24 38.35a24.08 24.08 0 0 1-19.14 9.38h-.79A23.88 23.88 0 0 1 5 38.35c0-9.69 10.12-8.75 11.44-9.16.07-.08.15-.12.22-.19.91 1.42 3.93 2.46 7.48 2.46 3.47 0 6.41-.97 7.4-2.35.18.04 11.47-.45 11.7 9.24z"/><path fill="#ffd05b" d="M23 33a1 1 0 1 1 2 0 1 1 0 0 1-2 0zm0 3a1 1 0 1 1 2 0 1 1 0 0 1-2 0z"/><path fill="#f1543f" d="M33.27 12.2c0 1.23-4.08 2.16-9.14 2.16-5.02 0-9.13-.97-9.13-2.16 0-1.23 4.08-2.2 9.13-2.2 5.06 0 9.14.97 9.14 2.2z"/><path fill="#ff7058" d="M33.23 11.79a33.03 33.03 0 0 0-18.23 0c.04-.37.11-.74.15-1.12A9.01 9.01 0 0 1 24.06 3h.15a8.97 8.97 0 0 1 8.87 7.71c.08.34.11.71.15 1.08z"/><path fill="#ff7058" d="M33.16 11.79a32.6 32.6 0 0 0-8.8-1.27h-.57A32.75 32.75 0 0 0 15 11.79c.04-.37.11-.74.15-1.12A8.88 8.88 0 0 1 23.98 3h.15c4.5 0 8.23 3.31 8.87 7.71.08.34.12.71.16 1.08z"/><path fill="#f1543f" d="M29.02 10.86c-1.4-.19-2.83-.3-4.23-.3h-.56c-1.44 0-2.83.11-4.23.3v-.15c.3-4.36 2.23-7.67 4.49-7.71h.08c2.26 0 4.15 3.31 4.49 7.71-.04.07-.04.11-.04.15z"/><path fill="#e6e9ee" d="M31.02 26s-3.59 2.53-7.02 3.31c0 0 2.15 1.05 2.76 4.18l5.58-5.03z"/><path fill="#e6e9ee" d="M17.32 26s3.59 2.53 7.02 3.31c0 0-2.15 1.05-2.75 4.18L16 28.42z"/><path fill="#fff" d="M23 3.5c0-.28.67-.5 1.5-.5s1.5.22 1.5.5-.67.5-1.5.5-1.5-.22-1.5-.5z"/><path fill="#2b3b4e" d="M38.8 30.34l-11.93 16.8c-.91.11-1.85.15-2.83.15h-.79c-.42 0-.83-.04-1.25-.08L34.91 29c1.24.22 2.64.63 3.89 1.34z"/></svg><view viewBox="615 445 12 24"/><svg width="12" height="24" viewBox="0 0 12 24" x="615" y="445" xmlns="http://www.w3.org/2000/svg"><path fill="#fff" d="M10.61 11.96H7.33v12.01H2.36V11.96H0V7.74h2.36V5.01C2.36 3.06 3.29 0 7.37 0l3.68.02v4.09H8.38c-.44 0-1.05.22-1.05 1.15v2.49h3.71z"/></svg><view viewBox="627 469 26 17"/><svg width="26" height="17" viewBox="0 0 26 17" x="627" y="469" xmlns="http://www.w3.org/2000/svg"><path fill="#fff" d="M1 8.52a7.5 7.5 0 0 1 7.19-7.5c1.99-.17 3.93.6 5.43 1.85-.61.68-1.24 1.34-1.92 1.97-1.32-.8-2.92-1.41-4.47-.87a4.74 4.74 0 1 0 3.22 8.92 4.18 4.18 0 0 0 2.46-2.84c-1.45-.03-2.89-.01-4.34-.05V7.44c2.41 0 4.82-.01 7.24.01.15 2.09-.16 4.33-1.53 6.01-1.88 2.39-5.35 3.09-8.17 2.15A7.51 7.51 0 0 1 1 8.52zM21.18 5h2.15l.02 2.14 2.16.02v2.13l-2.16.01-.02 2.15h-2.15l-.02-2.14L19 9.29V7.16l2.16-.02.02-2.14z"/></svg><view viewBox="653 486 51 51"/><svg width="51" height="51" viewBox="0 0 51 51" x="653" y="486" xmlns="http://www.w3.org/2000/svg"><path fill="#4f77a8" d="M0 25.5a25.5 25.5 0 1 1 51 0 25.5 25.5 0 0 1-51 0z"/><path fill="#b0cd7a" d="M39.71 24.81v3.14c0 1.12-.81 2.1-1.91 2.32l-6.14 1.24-.51 2.07a2.37 2.37 0 0 1-1.8 1.74l-3.14.67-9.38 1.99a.79.79 0 0 1-.86-.4 25.38 25.38 0 0 1-1.85-4.49l1.41-1.73-.77-7.91L13 21.76A13.67 13.67 0 0 1 26.21 11h.13c3.34 0 6.7 1.43 9.21 3.93a14.05 14.05 0 0 1 4.16 9.88z"/><path fill="#b0cd7a" d="M39.5 24.81v3.14c0 1.12-.81 2.1-1.92 2.32l-6.13 1.24-.51 2.07a2.38 2.38 0 0 1-1.8 1.74l-3.14.67V11h.13c3.33 0 6.69 1.43 9.21 3.93a14.05 14.05 0 0 1 4.16 9.88z"/><path fill="#578e2e" d="M33.16 28.33a3.17 3.17 0 1 1 .02-6.34 3.17 3.17 0 0 1-.02 6.34z"/><path fill="#66728b" d="M22.44 22.41v5.6l-1.58 2.27-6.5 2.84A29.38 29.38 0 0 1 13 24.31c0-.86.04-1.71.23-2.52l7.63-.79z"/><path fill="#66728b" d="M23.11 21.01l-2.11.22v9.3l3.34-1.46a2.38 2.38 0 0 0 1.41-2.17v-3.53c0-1.4-1.22-2.51-2.64-2.36z"/></svg><view viewBox="704 537 37 37"/><svg width="37" height="37" viewBox="0 0 37 37" x="704" y="537" xmlns="http://www.w3.org/2000/svg"><path fill="#6a453b" d="M24.18 10h-11A3.19 3.19 0 0 0 10 13.18v11a3.19 3.19 0 0 0 3.18 3.19h11a3.2 3.2 0 0 0 3.19-3.19v-11A3.19 3.19 0 0 0 24.18 10zm-5.5 14.4a5.72 5.72 0 1 1 .01-11.43 5.72 5.72 0 0 1-.01 11.43zm5.9-10.25a1.36 1.36 0 0 1 0-2.71c.75 0 1.36.61 1.36 1.36 0 .74-.61 1.35-1.36 1.35z"/><path fill="#6a453b" d="M18.3 15a3.3 3.3 0 1 0 0 6.6 3.3 3.3 0 0 0 0-6.6z"/><path fill="#6a453b" d="M18.45 0a18.45 18.45 0 1 0 0 36.9 18.45 18.45 0 0 0 0-36.9zm11.1 24a5.6 5.6 0 0 1-5.6 5.6h-11a5.6 5.6 0 0 1-5.6-5.6V13a5.6 5.6 0 0 1 5.6-5.6h11a5.6 5.6 0 0 1 5.6 5.6z"/></svg><view viewBox="741 574 51 51"/><svg width="51" height="51" viewBox="0 0 51 51" x="741" y="574" xmlns="http://www.w3.org/2000/svg"><path fill="#4f77a8" d="M0 25.5a25.5 25.5 0 1 1 51 0 25.5 25.5 0 0 1-51 0z"/><path fill="#6d6e72" d="M6 33.5c0-2.49 2.24-4.5 5-4.5s5 2.01 5 4.5-2.24 4.5-5 4.5-5-2.01-5-4.5z"/><path fill="#414356" d="M9 33a2 2 0 1 1 4 0 2 2 0 0 1-4 0z"/><path fill="#6d6e72" d="M34 33.5c0-2.49 2.24-4.5 5-4.5s5 2.01 5 4.5-2.24 4.5-5 4.5-5-2.01-5-4.5z"/><path fill="#585a60" d="M34.58 33.49c0-2.24 1.81-4.09 4.19-4.43a5.25 5.25 0 0 0-.79-.06C35.23 29 33 31.01 33 33.49c0 2.48 2.23 4.49 4.98 4.49.26 0 .53-.02.79-.05-2.38-.35-4.19-2.2-4.19-4.44zm-27 0c0-2.24 1.81-4.09 4.19-4.43a5.25 5.25 0 0 0-.79-.06C8.23 29 6 31.01 6 33.49c0 2.48 2.23 4.49 4.98 4.49.26 0 .53-.02.79-.05-2.38-.35-4.19-2.2-4.19-4.44z"/><path fill="#414356" d="M40.38 32.98c0 1.09-.98 1.98-2.19 1.98S36 34.07 36 32.98c0-1.09.98-1.98 2.19-1.98s2.19.89 2.19 1.98z"/><path fill="#2d313f" d="M39.19 32.98c0-.73.44-1.37 1.1-1.71-.33-.17-.7-.27-1.1-.27-1.21 0-2.19.89-2.19 1.98 0 1.09.98 1.98 2.19 1.98.4 0 .77-.1 1.1-.27a1.94 1.94 0 0 1-1.1-1.71zm-28 0c0-.73.44-1.37 1.1-1.71-.33-.17-.7-.27-1.1-.27C9.98 31 9 31.89 9 32.98c0 1.09.98 1.98 2.19 1.98.4 0 .77-.1 1.1-.27a1.94 1.94 0 0 1-1.1-1.71z"/><path fill="#49b5ce" d="M18 30c.38.79.59 1.65.59 2.57h11.19c0-.9.17-1.76.49-2.57z"/><path fill="#83b35f" d="M18 30c.38.79.59 1.65.59 2.57h11.19c0-.9.17-1.76.49-2.57z"/><path fill="#34a4b7" d="M20.15 30H18c.38.79.59 1.65.59 2.57h2.12a8.8 8.8 0 0 0-.56-2.57z"/><path fill="#cde06e" d="M30.13 33.25H18.94c-.31 0-.56-.23-.56-.51 0-2.4-1.59-4.56-4.03-5.49-.29-.11-.43-.41-.31-.67a.6.6 0 0 1 .75-.27 7.07 7.07 0 0 1 4.7 5.92h10.1a8.17 8.17 0 0 1 2.56-5.28 11.1 11.1 0 0 1 6.08-2.94c.31-.05.6.14.65.42.05.28-.16.54-.47.58-4.39.66-7.71 3.98-7.71 7.73 0 .28-.25.51-.57.51z"/><path fill="#bababa" d="M38.78 33.12c-.31 0-.56-.22-.56-.51V11.79c0-.42-.38-.77-.86-.77h-3.79c-.32 0-.57-.23-.57-.51s.25-.51.57-.51h3.79c1.1 0 1.99.8 1.99 1.79v20.82c0 .29-.25.51-.57.51z"/><path fill="#989da0" d="M40.49 20.02h-2.92c-.32 0-.57-.23-.57-.51s.25-.51.57-.51h2.92c.31 0 .56.23.56.51s-.25.51-.56.51z"/><path fill="#c9e073" d="M21.02 31.96h-1.53a7.07 7.07 0 0 0-4.7-5.92.6.6 0 0 0-.75.27c-.12.26.02.56.31.67a5.99 5.99 0 0 1 4.03 5.49c0 .28.25.51.56.51h2.15c-.01-.34-.03-.68-.07-1.02z"/></svg><view viewBox="792 625 10 15"/><svg width="10" height="15" viewBox="0 0 10 15" x="792" y="625" xmlns="http://www.w3.org/2000/svg"><path fill="#9e9e9e" d="M9.72 5.63h-.83V4.37C8.89 1.96 7.14 0 5 0S1.11 1.96 1.11 4.37v1.26H.28c-.16 0-.28.13-.28.31v7.81C0 14.44.5 15 1.11 15h7.78c.61 0 1.11-.56 1.11-1.25V5.94c0-.18-.12-.31-.28-.31zm-3.89 6.52a.32.32 0 0 1-.07.25.28.28 0 0 1-.2.1H4.44a.28.28 0 0 1-.2-.1.32.32 0 0 1-.07-.25l.17-1.77a1.3 1.3 0 0 1-.45-1.01c0-.68.5-1.25 1.11-1.25.61 0 1.11.57 1.11 1.25 0 .41-.17.78-.45 1.01zM2.78 5.63V4.37C2.78 3 3.77 1.88 5 1.88c1.23 0 2.22 1.12 2.22 2.49v1.26z"/></svg><view viewBox="802 640 67 49"/><svg width="67" height="49" viewBox="0 0 67 49" x="802" y="640" xmlns="http://www.w3.org/2000/svg"><path fill="#6d6d6d" d="M25 35.5l-.03-.83a12.5 12.5 0 0 0-4.88-9.12c-.91-.7-1.62-1.05-1.75-1.13A12.5 12.5 0 0 0 0 35.5a12.5 12.5 0 0 0 18.34 11.08c.24-.14 1.77-.89 3.31-2.54A12.52 12.52 0 0 0 25 35.5zm-21.29 0A8.8 8.8 0 0 1 17 27.93c7 4.19 5.03 14.87-3.01 16.25A8.8 8.8 0 0 1 3.71 35.5z"/><path fill="#98c44d" d="M41.76 25L52 14h-4.36L39 23.28z"/><path fill="#7fa338" d="M40.43 24L50 14h-2.25L39 23.14z"/><path fill="#6d6d6d" d="M66.61 32.44a12.5 12.5 0 0 0-24.51 4.65 12.5 12.5 0 1 0 24.51-4.65zm-20.29-.15a8.78 8.78 0 0 1 16.35 0 8.8 8.8 0 0 1-8.17 12 8.8 8.8 0 0 1-8.18-12z"/><path fill="#545454" d="M45.9 37.51c-1.28-5.4 2.6-13.17 10.29-14.36-8.1-1.25-15.12 5.68-14.09 13.9a12.37 12.37 0 0 0 14.09 10.72A12.39 12.39 0 0 1 45.9 37.51zm-42 0c-1.12-4.71 2-13.08 10.29-14.37-1.8-.27-3.6-.14-5.27.34l-.05.02A12.46 12.46 0 0 0 .1 37.04a12.35 12.35 0 0 0 14.09 10.73A12.39 12.39 0 0 1 3.9 37.51z"/><path fill="#f95753" d="M58 11.5c0 1.38-1.07 2.5-2.4 2.5H44.4a2.45 2.45 0 0 1-2.4-2.5c0-1.38 1.07-2.5 2.4-2.5h11.2c1.33 0 2.4 1.12 2.4 2.5z"/><path fill="#cc4a4a" d="M55.6 12.33H44.4c-.89 0-1.66-.53-2.07-1.33-.93 1.78.23 4 2.07 4h11.2c1.84 0 3-2.22 2.07-4a2.34 2.34 0 0 1-2.07 1.33z"/><path fill="#cde06e" d="M55.24 34.87L22.2 13 21 16.24l32.47 21.49a1.6 1.6 0 0 0 2.27-.51c.49-.79.27-1.84-.5-2.35z"/><path fill="#a8d855" d="M54.96 35.39c-.3 0-.61-.09-.88-.26L21.6 14l-.6 1.61 32.48 21.12c1.2.79 2.75-.27 2.49-1.7-.29.23-.65.36-1.01.36z"/><path fill="#bababa" d="M30.42 0h-8.21a5.22 5.22 0 0 0-2.06 10c.82-2.14.85-2.48 1.46-2.83a2.05 2.05 0 0 1 .6-4h8.21a1.59 1.59 0 0 0 0-3.17z"/><path fill="#90938f" d="M31 1.76A1.15 1.15 0 0 0 29.95 1h-8.16C19.7 1 18 2.9 18 5.24c0 1.63.82 3.05 2.03 3.76.26-.77.35-1.21.84-1.57l.04-.09a2.22 2.22 0 0 1-1.36-2.11c0-1.23.9-2.23 1.99-2.23h7.98c.7 0 1.29-.52 1.48-1.24z"/><path fill="#98c44d" d="M12 36.89a1.62 1.62 0 0 1-.9-2.06l9.91-26.8c.3-.83 1.2-1.24 1.99-.92.8.31 1.2 1.24.9 2.06l-9.91 26.8c-.3.83-1.2 1.24-1.99.92z"/><path fill="#7fa338" d="M12.54 35.23L22.83 8.44c.2-.53.65-.89 1.17-1a1.48 1.48 0 0 0-.54-.33 1.6 1.6 0 0 0-2.07.92l-10.28 26.8a1.6 1.6 0 0 0 1.83 2.14 1.62 1.62 0 0 1-.4-1.74z"/></svg><view viewBox="869 689 54 52"/><svg width="54" height="52" viewBox="0 0 54 52" x="869" y="689" xmlns="http://www.w3.org/2000/svg"><path fill="#707070" d="M40.17 13.5a1.67 1.67 0 0 0-2.39 0L14.49 36.83a1.7 1.7 0 0 0 0 2.39c.33.33.77.5 1.2.5.43 0 .86-.16 1.19-.5l23.29-23.33c.66-.66.66-1.73 0-2.39zM18.68 11a6.7 6.7 0 0 0 0 13.39 6.7 6.7 0 0 0 0-13.39zm0 10.01a3.31 3.31 0 1 1 .02-6.62 3.31 3.31 0 0 1-.02 6.62z"/><path fill="#707070" d="M51.33 31.06c1.25-1.4 2.67-3 2.67-5.1 0-2.11-1.42-3.7-2.67-5.11-.7-.8-1.44-1.62-1.65-2.28-.23-.72-.12-1.86-.02-2.96.18-1.84.37-3.92-.82-5.56-1.2-1.65-3.25-2.11-5.06-2.51-1.07-.24-2.17-.48-2.77-.92-.58-.42-1.14-1.39-1.69-2.32-.94-1.61-2.01-3.44-3.98-4.09a4.6 4.6 0 0 0-1.4-.21c-1.41 0-2.76.59-4.07 1.15-1.02.45-2.09.91-2.87.91-.78 0-1.85-.46-2.87-.91C22.82.59 21.47 0 20.06 0c-.49 0-.96.07-1.4.21-1.97.65-3.04 2.48-3.99 4.09-.54.94-1.1 1.9-1.68 2.32-.6.44-1.7.68-2.77.92-1.81.4-3.86.86-5.06 2.51-1.19 1.64-1 3.72-.82 5.57.1 1.09.21 2.23-.02 2.95-.21.66-.94 1.48-1.65 2.28-1.25 1.41-2.67 3-2.67 5.11 0 2.1 1.42 3.69 2.66 5.1.71.8 1.44 1.62 1.66 2.28.23.72.12 1.86.02 2.96-.18 1.84-.37 3.93.82 5.56 1.2 1.66 3.25 2.11 5.06 2.51 1.07.24 2.17.48 2.77.91.58.43 1.14 1.39 1.69 2.33.94 1.61 2.01 3.44 3.98 4.09.43.14.9.21 1.39.21 1.42 0 2.77-.59 4.07-1.15 1.03-.45 2.09-.91 2.88-.91.78 0 1.85.46 2.88.91 1.3.56 2.65 1.15 4.06 1.15.49 0 .96-.07 1.4-.21 1.97-.64 3.04-2.47 3.98-4.09.55-.93 1.11-1.9 1.7-2.32.59-.44 1.7-.68 2.76-.92 1.81-.4 3.86-.85 5.06-2.5 1.2-1.64 1-3.73.82-5.57-.1-1.1-.21-2.24.02-2.96.21-.66.95-1.48 1.65-2.28zm-2.52-2.25c-.94 1.06-1.91 2.15-2.34 3.49-.45 1.38-.31 2.87-.17 4.32.12 1.3.25 2.65-.19 3.25-.44.62-1.77.91-3.06 1.2-1.4.31-2.86.63-4.02 1.48-1.15.84-1.9 2.12-2.62 3.35-.67 1.15-1.37 2.33-2.11 2.58-.64.2-1.9-.31-3.08-.83-1.35-.58-2.74-1.18-4.22-1.18-1.49 0-2.88.6-4.22 1.18-1.18.51-2.45 1.03-3.08.83-.75-.24-1.44-1.43-2.11-2.58-.72-1.24-1.47-2.51-2.62-3.35-1.16-.85-2.62-1.17-4.02-1.48-1.29-.29-2.62-.58-3.06-1.2-.44-.6-.31-1.95-.19-3.25.14-1.45.28-2.94-.17-4.32-.43-1.34-1.4-2.43-2.34-3.49-.89-1-1.81-2.04-1.81-2.85 0-.82.92-1.86 1.81-2.86.94-1.06 1.91-2.15 2.34-3.48.45-1.39.31-2.88.17-4.32-.12-1.31-.25-2.66.19-3.26.44-.62 1.77-.91 3.06-1.2 1.4-.31 2.86-.63 4.02-1.48 1.15-.84 1.89-2.11 2.62-3.35.67-1.14 1.36-2.33 2.11-2.58.65-.21 1.9.31 3.08.83 1.35.58 2.74 1.19 4.22 1.19 1.48 0 2.87-.61 4.22-1.19 1.18-.51 2.44-1.04 3.08-.83.74.24 1.44 1.43 2.11 2.58.72 1.23 1.47 2.51 2.62 3.35 1.16.85 2.62 1.17 4.02 1.48 1.29.29 2.62.58 3.06 1.2.44.6.31 1.95.19 3.25-.14 1.45-.28 2.94.17 4.32.43 1.34 1.4 2.43 2.34 3.49.89 1 1.82 2.04 1.82 2.86 0 .81-.93 1.85-1.82 2.85z"/><path fill="#707070" d="M35.68 28a6.7 6.7 0 0 0 0 13.39 6.7 6.7 0 0 0 0-13.39zm0 10.01a3.31 3.31 0 0 1 0-6.63 3.31 3.31 0 0 1 0 6.63z"/></svg><view viewBox="923 741 39 36"/><svg width="39" height="36" viewBox="0 0 39 36" x="923" y="741" xmlns="http://www.w3.org/2000/svg"><path fill="#1bb7ea" d="M30.59 31.09c.9-.93.89-2.41-.03-3.32l-5.31-4.19c-1.19-.94-2.5-1.03-3.3.03l-1.79 2.44a70.56 70.56 0 0 1-5.19-4.75 74.34 74.34 0 0 1-4.85-5.35l2.47-1.76c1.08-.79.98-2.09.03-3.26L8.38 5.69a2.44 2.44 0 0 0-3.37-.03L1.8 8.64c-.39.38-.65.86-.77 1.45-.59 2.98 6.59 11.64 10.04 15.05 3.46 3.41 12.01 10.47 15.04 9.88a2.75 2.75 0 0 0 1.46-.76z"/><path fill="#dadee0" d="M35.55 0H18.79A2.78 2.78 0 0 0 16 2.76v10.57a2.78 2.78 0 0 0 2.79 2.75h8.85v4.6l5.58-4.6h2.33a2.78 2.78 0 0 0 2.79-2.75V2.76A2.78 2.78 0 0 0 35.55 0z"/><path fill="#1f4254" d="M31.33 10.15c0 .63-.52 1.15-1.17 1.15-.64 0-1.16-.52-1.16-1.15 0-.64.52-1.15 1.16-1.15.65 0 1.17.51 1.17 1.15m-3 0c0 .63-.52 1.15-1.17 1.15-.64 0-1.16-.52-1.16-1.15 0-.64.52-1.15 1.16-1.15.65 0 1.17.51 1.17 1.15m-3 0c0 .63-.52 1.15-1.17 1.15-.64 0-1.16-.52-1.16-1.15 0-.64.52-1.15 1.16-1.15.65 0 1.17.51 1.17 1.15"/><path fill="#c7ced2" d="M31.05 9l-.02.01c.25.22.4.52.4.87 0 .63-.52 1.15-1.17 1.15-.41 0-.77-.22-.98-.54L27.77 9l-.01.01c.25.21.41.52.41.87 0 .63-.52 1.14-1.16 1.14-.42 0-.78-.21-.99-.53L24.51 9v.01c.24.21.4.52.4.87 0 .63-.52 1.14-1.16 1.14-.29 0-.55-.1-.75-.26l7.22 7.12 2.61-2.14h2.33c.75 0 1.43-.3 1.93-.77z"/></svg><view viewBox="962 777 55.74 55.58"/><svg width="55.74" height="55.58" viewBox="0 0 55.74 55.58" x="962" y="777" xmlns="http://www.w3.org/2000/svg"><path fill="#707070" d="M18.63 19.56a.94.94 0 0 0 0 1.3c.19.17.43.27.65.27a.92.92 0 0 0 .66-1.57.93.93 0 0 0-1.31 0zm-2.99 23a.92.92 0 0 0 1.29 1.3.92.92 0 0 0-1.3-1.3zm0-20a.92.92 0 1 0 1.3 1.3.92.92 0 0 0-1.3-1.3zm3 23a.92.92 0 0 0 1.29 1.3.92.92 0 0 0-1.3-1.3zm4.99 3.01a.92.92 0 0 0 0 1.3c.2.16.43.25.66.25.23 0 .47-.09.66-.28a.92.92 0 0 0-.02-1.29.92.92 0 0 0-1.3.02zm-2.99-32.01a.9.9 0 0 0 0 1.3c.18.17.4.27.65.27.24 0 .47-.1.65-.28a.9.9 0 0 0-.01-1.29.9.9 0 0 0-1.3 0zm0 32a.92.92 0 0 0 .64 1.57.92.92 0 1 0-.64-1.57zm-8-24a.9.9 0 0 0 0 1.3c.18.17.4.26.65.26a.9.9 0 0 0 .65-.27.9.9 0 0 0-.01-1.29.9.9 0 0 0-1.3 0zm-5 11a.9.9 0 0 0 0 1.3c.18.17.4.27.65.27.24 0 .47-.1.65-.28a.92.92 0 0 0-1.3-1.29zm0-6a.92.92 0 0 0 .65 1.57.9.9 0 0 0 .64-.28.9.9 0 0 0 0-1.29.9.9 0 0 0-1.3 0zm-2 3a.92.92 0 1 0 1.3 1.3.92.92 0 0 0-1.3-1.3zm18-18a.92.92 0 1 0 1.3 1.3.92.92 0 0 0-1.3-1.3zm-13 23a.9.9 0 0 0 0 1.3.92.92 0 0 0 1.3 0 .92.92 0 0 0-1.3-1.29zm2 3a.9.9 0 0 0 0 1.3.9.9 0 0 0 1.29 0 .9.9 0 0 0 0-1.3.9.9 0 0 0-1.3 0zm-2.01-13a.94.94 0 0 0 0 1.3c.19.17.43.27.65.27.24 0 .48-.1.66-.28a.92.92 0 1 0-1.31-1.29zm18 15.01a.9.9 0 0 0 .02 1.3c.17.17.4.25.63.25a.9.9 0 0 0 .66-.28.9.9 0 0 0-.02-1.29.9.9 0 0 0-1.3.02zm13-13a.9.9 0 0 0 .02 1.3c.17.17.4.26.64.26s.48-.09.65-.28a.9.9 0 0 0-.02-1.3.9.9 0 0 0-1.3.02zm-5 6a.9.9 0 0 0 .02 1.3.9.9 0 0 0 1.29-.01.9.9 0 0 0-.02-1.3.9.9 0 0 0-1.3.01zm2-3a.9.9 0 0 0 .02 1.3c.17.17.4.25.63.25.25 0 .49-.09.66-.28a.9.9 0 0 0-.02-1.29.9.9 0 0 0-1.3.02zm5-5.01a.92.92 0 0 0 .02 1.31c.17.17.4.25.64.25a.9.9 0 0 0 .63-1.57.92.92 0 0 0-1.3.01zm1.74-9.26a1 1 0 1 1 2 0 1 1 0 0 1-2 0zM25.63 45.56a.9.9 0 0 0 .02 1.3c.17.18.4.26.63.26.24 0 .48-.09.66-.27a.92.92 0 0 0-1.31-1.29zM45.37 25.3a1 1 0 1 1 2 0 1 1 0 0 1-2 0zm0-4a1 1 0 1 1 2 0 1 1 0 0 1-2 0zM30.63 40.56a.92.92 0 0 0 .02 1.31.93.93 0 0 0 1.29-.02.9.9 0 0 0-.02-1.3.92.92 0 0 0-1.3.01zM37.2 8.21a.92.92 0 1 0-1.83 0 .92.92 0 0 0 1.83 0zm-11.57 3.35a.94.94 0 0 0 0 1.3c.19.17.43.27.65.27a.92.92 0 0 0 .66-1.57.93.93 0 0 0-1.31 0zm3.01-2a.92.92 0 1 0 1.3 1.29.9.9 0 0 0-.01-1.29.9.9 0 0 0-1.3 0zm3.65-2.26a.91.91 0 0 0-.92.91c0 .5.4.91.92.91a.91.91 0 0 0 0-1.83zm1.34 30.27a.9.9 0 0 0 .02 1.3c.17.17.4.25.63.25a.9.9 0 0 0 .66-.28.9.9 0 0 0-.02-1.29.9.9 0 0 0-1.3.02z"/><path fill="#707070" d="M54.19.56a.92.92 0 0 0-1.3 0l-3.4 3.4H28.15L1.32 31.01a3.21 3.21 0 0 0 0 4.57l18.76 18.76a3.21 3.21 0 0 0 4.58 0L50.79 27.5V5.25l3.39-3.4a.91.91 0 0 0 0-1.29zm-5.24 26.2l-25.6 26.3c-.54.53-1.43.53-1.98 0L2.6 34.28a1.4 1.4 0 0 1 .01-1.99L28.9 5.8h18.75l-4.43 4.42a4.57 4.57 0 0 0-7.11 3.82 4.59 4.59 0 1 0 8.4-2.52l4.43-4.43zm-5.5-12.72a2.75 2.75 0 1 1-1.57-2.47l-1.82 1.82a.92.92 0 0 0 1.29 1.3l1.83-1.83c.17.36.27.76.27 1.18z"/><path fill="none" stroke="#707070" stroke-miterlimit="50" d="M54.19.56a.92.92 0 0 0-1.3 0l-3.4 3.4H28.15L1.32 31.01a3.21 3.21 0 0 0 0 4.57l18.76 18.76a3.21 3.21 0 0 0 4.58 0L50.79 27.5V5.25l3.39-3.4a.91.91 0 0 0 0-1.29zm-5.24 26.2l-25.6 26.3c-.54.53-1.43.53-1.98 0L2.6 34.28a1.4 1.4 0 0 1 .01-1.99L28.9 5.8h18.75l-4.43 4.42a4.57 4.57 0 0 0-7.11 3.82 4.59 4.59 0 1 0 8.4-2.52l4.43-4.43zm-5.5-12.72a2.75 2.75 0 1 1-1.57-2.47l-1.82 1.82a.92.92 0 0 0 1.29 1.3l1.83-1.83c.17.36.27.76.27 1.18z"/></svg><view viewBox="1018 833 34 35"/><svg width="34" height="35" viewBox="0 0 34 35" x="1018" y="833" xmlns="http://www.w3.org/2000/svg"><path fill="#22b9ea" d="M0 17.5C0 7.84 7.61 0 17 0s17 7.84 17 17.5S26.39 35 17 35 0 27.16 0 17.5z"/><path fill="#ecf0f0" d="M26.02 21.28a9.76 9.76 0 0 0 0-13.49 9.07 9.07 0 0 0-13.09 0 9.76 9.76 0 0 0-.91 12.39l-2.86 2.95a.57.57 0 0 0-.01.78l1.21 1.25c.21.21.54.19.75-.02l2.86-2.94a9.06 9.06 0 0 0 12.05-.92z"/><path fill="#5d5d5d" d="M9.17 22.54a.58.58 0 0 0-.03.79l1.2 1.24c.2.21.58.2.78-.02l.56-.53V20z"/><path fill="#76bed6" d="M23.89 19.25a6.8 6.8 0 0 1-9.85 0 7.33 7.33 0 0 1 0-10.15 6.83 6.83 0 0 1 9.85 0 7.33 7.33 0 0 1 0 10.15z"/><path fill="#83d2ed" d="M13.91 19.48a6.87 6.87 0 0 1 0-9.51 6.39 6.39 0 0 1 9.23 0 6.87 6.87 0 0 1 0 9.51 6.4 6.4 0 0 1-9.23 0z"/><path fill="#fbffff" d="M24.81 8.2a8.55 8.55 0 0 0-10.66-.62c-.35.25-.03.84.32.59a7.89 7.89 0 0 1 9.87.51c.32.28.79-.2.47-.48z"/><path fill="#b0ebff" d="M23.64 17.78a2.66 2.66 0 0 1-3.84 0 2.84 2.84 0 0 1 0-3.96 2.66 2.66 0 0 1 3.84 0 2.86 2.86 0 0 1 0 3.96zm-.37-5.47c-.29.3-.76.3-1.05 0a.8.8 0 0 1 0-1.09.73.73 0 0 1 1.05.01c.29.29.29.78 0 1.08z"/><path fill="#334d5c" d="M8.71 22.12L3 28c.71.97 1.51 1.85 2.39 2.65l5.8-5.98c.68-.7-1.8-3.25-2.48-2.55z"/><path fill="#5d5d5d" d="M11.33 24.67c.68-.7-1.78-3.25-2.46-2.55L7 24.07v5.11z"/><path fill="#efc84a" d="M11.57 25.41a.42.42 0 0 1-.62 0L8.13 22.5a.45.45 0 0 1 0-.63l.71-.74a.44.44 0 0 1 .62 0l2.82 2.91c.17.17.17.46 0 .64z"/></svg><view viewBox="1052 868 55 54"/><svg width="55" height="54" viewBox="0 0 55 54" x="1052" y="868" xmlns="http://www.w3.org/2000/svg"><path fill="#707070" d="M34.62 38.62a97.8 97.8 0 0 0-1.73-1.01c.13-1.17.13-2.35 0-3.51l1.72-1.02a2.28 2.28 0 0 0 .93-2.8l-1.24-2.99a2.27 2.27 0 0 0-2.63-1.33l-1.95.5a14.92 14.92 0 0 0-2.48-2.48l.51-1.94a2.29 2.29 0 0 0-1.33-2.63l-3-1.24a2.28 2.28 0 0 0-2.8.92 97.8 97.8 0 0 0-1.01 1.73 14.72 14.72 0 0 0-3.51 0l-1.02-1.73a2.27 2.27 0 0 0-2.8-.92l-2.99 1.24a2.26 2.26 0 0 0-1.33 2.63l.5 1.94c-.92.73-1.75 1.56-2.48 2.48l-1.94-.5a2.26 2.26 0 0 0-2.63 1.33L.17 30.28a2.27 2.27 0 0 0 .92 2.8l1.73 1.02a14.72 14.72 0 0 0 0 3.51l-1.73 1.01a2.28 2.28 0 0 0-.92 2.8l1.24 3a2.28 2.28 0 0 0 2.63 1.33l1.94-.51c.73.92 1.56 1.76 2.48 2.48l-.5 1.95c-.27 1.07.3 2.2 1.33 2.63l2.99 1.24a2.28 2.28 0 0 0 2.8-.92l1.02-1.73c1.16.13 2.34.13 3.51 0l1.01 1.73a2.3 2.3 0 0 0 2.81.92l2.99-1.24a2.3 2.3 0 0 0 1.33-2.63l-.51-1.95c.92-.72 1.76-1.56 2.48-2.48l1.95.51a2.3 2.3 0 0 0 2.63-1.33l1.24-3a2.29 2.29 0 0 0-.92-2.8zm-2.5 4.75l-1.87-.48a2.25 2.25 0 0 0-2.37.79c-.64.82-1.38 1.56-2.2 2.21a2.22 2.22 0 0 0-.79 2.36l.48 1.87-2.75 1.14-.97-1.66a2.27 2.27 0 0 0-2.24-1.12c-1.03.13-2.08.13-3.12 0-.9-.11-1.78.32-2.23 1.12l-.98 1.66-2.75-1.14.49-1.87a2.26 2.26 0 0 0-.79-2.37 12.44 12.44 0 0 1-2.21-2.2 2.25 2.25 0 0 0-2.37-.79l-1.86.48-1.14-2.75 1.66-.97a2.27 2.27 0 0 0 1.12-2.24 12.53 12.53 0 0 1 0-3.12c.11-.9-.33-1.78-1.12-2.23l-1.66-.98 1.14-2.75 1.86.49c.88.23 1.81-.08 2.37-.79a12.5 12.5 0 0 1 2.21-2.21 2.26 2.26 0 0 0 .79-2.37l-.49-1.86 2.75-1.14.98 1.66a2.25 2.25 0 0 0 2.23 1.12c1.03-.13 2.09-.13 3.12 0 .9.11 1.78-.33 2.24-1.12l.97-1.66 2.75 1.14-.48 1.86c-.24.88.07 1.81.79 2.37a13.2 13.2 0 0 1 2.21 2.21 2.26 2.26 0 0 0 2.36.79l1.87-.49 1.14 2.75-1.66.98a2.25 2.25 0 0 0-1.12 2.23c.13 1.03.13 2.09 0 3.12-.11.9.32 1.78 1.12 2.24l1.66.97z"/><path fill="#707070" d="M25.82 33.08a8.23 8.23 0 1 0-15.2 6.3 8.23 8.23 0 0 0 15.2-6.3zm-5.38 8.51a5.79 5.79 0 0 1-7.59-3.15 5.83 5.83 0 0 1 5.36-8.03 5.82 5.82 0 0 1 2.23 11.18zm32.32-30.97l-1.28-.18c-.21-.72-.5-1.42-.86-2.08l.77-1.03c.56-.75.48-1.82-.18-2.49l-1.67-1.66a1.9 1.9 0 0 0-2.48-.19c-.35.25-.69.51-1.03.78-.67-.36-1.37-.65-2.09-.87l-.18-1.27A1.92 1.92 0 0 0 41.87 0h-2.35c-.94 0-1.76.7-1.89 1.63l-.19 1.27c-.72.22-1.42.51-2.08.87a34.9 34.9 0 0 0-1.03-.78 1.92 1.92 0 0 0-2.49.19l-1.66 1.66a1.92 1.92 0 0 0-.19 2.49l.78 1.03c-.36.66-.65 1.36-.87 2.08l-1.27.18c-.93.14-1.63.96-1.63 1.9v2.35c0 .94.7 1.75 1.63 1.89l1.27.18c.22.72.51 1.42.87 2.09l-.78 1.03a1.9 1.9 0 0 0 .19 2.48l1.66 1.67c.67.66 1.74.74 2.49.18l1.03-.77c.66.36 1.36.65 2.08.86l.18 1.28c.14.93.96 1.62 1.9 1.62h2.35c.94 0 1.75-.69 1.89-1.62l.18-1.28c.72-.21 1.42-.5 2.09-.86l1.03.77c.75.56 1.82.48 2.48-.18l1.67-1.67c.66-.66.74-1.73.18-2.48l-.77-1.03c.36-.67.65-1.37.86-2.09l1.28-.18a1.91 1.91 0 0 0 1.62-1.89v-2.35c0-.94-.69-1.76-1.62-1.9zm-.67 3.92l-1.15.16a1.9 1.9 0 0 0-1.59 1.38c-.2.71-.48 1.4-.85 2.04-.38.67-.32 1.49.15 2.11l.7.92-1.2 1.2-.92-.7a1.91 1.91 0 0 0-2.11-.15c-.64.37-1.33.65-2.04.85a1.9 1.9 0 0 0-1.38 1.59l-.16 1.15h-1.7l-.16-1.15a1.9 1.9 0 0 0-1.38-1.59 8.82 8.82 0 0 1-2.03-.85 1.91 1.91 0 0 0-2.11.15l-.93.7-1.2-1.2.7-.92c.47-.62.53-1.44.15-2.11a8.86 8.86 0 0 1-.84-2.04 1.9 1.9 0 0 0-1.6-1.38l-1.15-.16v-1.7l1.15-.16a1.9 1.9 0 0 0 1.6-1.38c.19-.71.48-1.39.84-2.03.38-.67.32-1.5-.15-2.11l-.7-.93 1.2-1.2.93.7c.61.47 1.44.53 2.11.15a8.79 8.79 0 0 1 2.03-.84 1.9 1.9 0 0 0 1.38-1.6l.16-1.15h1.7l.16 1.15c.1.77.64 1.39 1.38 1.6.71.19 1.4.48 2.04.84.67.38 1.49.32 2.11-.15l.92-.7 1.2 1.2-.7.93a1.91 1.91 0 0 0-.15 2.11c.37.64.65 1.32.85 2.03.2.74.83 1.29 1.59 1.38l1.15.16z"/><path fill="#707070" d="M39.88 9a4.89 4.89 0 1 0 .01 9.77A4.89 4.89 0 0 0 39.88 9zm0 7.6a2.72 2.72 0 0 1 0-5.43 2.72 2.72 0 0 1 0 5.43z"/></svg><view viewBox="1107 922 51 51"/><svg width="51" height="51" viewBox="0 0 51 51" x="1107" y="922" xmlns="http://www.w3.org/2000/svg"><path fill="#4f77a8" d="M0 25.5a25.5 25.5 0 1 1 51 0 25.5 25.5 0 0 1-51 0z"/><path fill="#8e8284" d="M33.8 13.23H17.63a.62.62 0 0 1-.63-.61c0-.34.28-.62.63-.62H33.8a.61.61 0 1 1 0 1.23zm0 24H17.63a.62.62 0 0 1-.63-.61c0-.34.28-.62.63-.62H33.8a.61.61 0 1 1 0 1.23z"/><path fill="#b1a7a8" d="M16.87 15.8H15a1 1 0 0 1-1-.99v-2.83a1 1 0 0 1 1-.98h1.87a1 1 0 0 1 1 .98v2.83a1 1 0 0 1-1 .99z"/><path fill="#8e8284" d="M17.87 11.98v2.83a1 1 0 0 1-1 .99H15a1 1 0 0 1-1-.99v-.16h1.71a1 1 0 0 0 1-.98V11h.16a1 1 0 0 1 1 .98z"/><path fill="#b1a7a8" d="M36.87 15.8H35a1 1 0 0 1-1-.99v-2.83a1 1 0 0 1 1-.98h1.87a1 1 0 0 1 1 .98v2.83a1 1 0 0 1-1 .99z"/><path fill="#8e8284" d="M37.87 11.98v2.83a1 1 0 0 1-1 .99H35a1 1 0 0 1-1-.99v-.16h1.71a1 1 0 0 0 1-.98V11h.16a1 1 0 0 1 1 .98z"/><path fill="#b1a7a8" d="M16.87 39.8H15a1 1 0 0 1-1-.99v-2.83a1 1 0 0 1 1-.98h1.87a1 1 0 0 1 1 .98v2.83a1 1 0 0 1-1 .99z"/><path fill="#8e8284" d="M17.87 35.98v2.83a1 1 0 0 1-1 .99H15a1 1 0 0 1-1-.99v-.16h1.71a1 1 0 0 0 1-.98V35h.16a1 1 0 0 1 1 .98z"/><path fill="#b1a7a8" d="M36.87 39.8H35a1 1 0 0 1-1-.99v-2.83a1 1 0 0 1 1-.98h1.87a1 1 0 0 1 1 .98v2.83a1 1 0 0 1-1 .99z"/><path fill="#8e8284" d="M37.87 35.98v2.83a1 1 0 0 1-1 .99H35a1 1 0 0 1-1-.99v-.16h1.71a1 1 0 0 0 1-.98V35h.16a1 1 0 0 1 1 .98z"/><path fill="#b0cd7a" d="M32.49 10.56l.01-.09h-.01l.01-.32A6.2 6.2 0 0 0 26.25 4a6.2 6.2 0 0 0-6.24 6.47H20l.02.09c.02.39.08.77.18 1.14.44 2.79 1.46 9.57 1.45 12.57v1.47c.01 2.99-1.01 9.77-1.45 12.56a5.42 5.42 0 0 0-.2 1.23h.01l-.01.32A6.2 6.2 0 0 0 26.25 46a6.2 6.2 0 0 0 6.25-6.15l-.01-.32h.01l-.01-.09a6.17 6.17 0 0 0-.19-1.14c-.44-2.79-1.46-9.57-1.45-12.57v-1.46c-.01-3 1.01-9.78 1.45-12.57.1-.37.16-.75.19-1.14z"/><path fill="#83b35f" d="M32.06 11.7c-.44 2.79-1.46 9.57-1.45 12.56v1.48c-.01 2.99 1.01 9.77 1.45 12.56a5.42 5.42 0 0 1 .2 1.23h-.01l.01.32A6.2 6.2 0 0 1 25 45.92a6.19 6.19 0 0 0 5.24-6.07l-.01-.32h.01l-.01-.09a6.17 6.17 0 0 0-.19-1.14c-.44-2.79-1.46-9.57-1.45-12.56v-1.48c-.01-2.99 1.01-9.77 1.45-12.56.1-.37.16-.75.19-1.14l.01-.09h-.01l.01-.32A6.19 6.19 0 0 0 25 4.08a6.2 6.2 0 0 1 7.26 6.07l-.01.32h.01l-.02.09c-.02.39-.08.77-.18 1.14z"/><path fill="#4ba8b7" d="M24 13.5a.5.5 0 1 1 1 0 .5.5 0 0 1-1 0zm2 0a.5.5 0 1 1 1 0 .5.5 0 0 1-1 0zm-2 2a.5.5 0 1 1 1 0 .5.5 0 0 1-1 0zm2 0a.5.5 0 1 1 1 0 .5.5 0 0 1-1 0zm-2 3a.5.5 0 1 1 1 0 .5.5 0 0 1-1 0zm2 0a.5.5 0 1 1 1 0 .5.5 0 0 1-1 0zm-2 13a.5.5 0 1 1 1 0 .5.5 0 0 1-1 0zm2 0a.5.5 0 1 1 1 0 .5.5 0 0 1-1 0zm-2 3a.5.5 0 1 1 1 0 .5.5 0 0 1-1 0zm2 0a.5.5 0 1 1 1 0 .5.5 0 0 1-1 0zm-2 2a.5.5 0 1 1 1 0 .5.5 0 0 1-1 0zm2 0a.5.5 0 1 1 1 0 .5.5 0 0 1-1 0z"/></svg><view viewBox="1158 973 51 51"/><svg width="51" height="51" viewBox="0 0 51 51" x="1158" y="973" xmlns="http://www.w3.org/2000/svg"><path fill="#4f77a8" d="M0 25.5a25.5 25.5 0 1 1 51 0 25.5 25.5 0 0 1-51 0z"/><path fill="#546080" d="M20.67 34.26h13.46l-.93-2.84H21.6zm-.97 1.42a.72.72 0 0 1-.57-.29.7.7 0 0 1-.09-.64l1.4-4.26a.7.7 0 0 1 .66-.49h12.6c.3 0 .57.2.66.49l1.4 4.26a.7.7 0 0 1-.09.64.72.72 0 0 1-.57.29z"/><path fill="#546080" d="M44.3 35.78h-35A6.36 6.36 0 0 1 3 29.39 6.36 6.36 0 0 1 9.3 23c.39 0 .7.32.7.71a.7.7 0 0 1-.7.71c-2.7 0-4.9 2.23-4.9 4.97 0 2.74 2.2 4.97 4.9 4.97h35c.39 0 .7.32.7.71a.7.7 0 0 1-.7.71"/><path fill="#b0cd7a" d="M44.2 31.48H14.8a2.82 2.82 0 0 1-2.8-2.84v-5.63c0-1.6 1.28-2.89 2.86-2.89 1.3 0 2.56.52 3.49 1.46a9.32 9.32 0 0 0 6.65 2.8h7.3a10.8 10.8 0 0 0 2.1-6.39c0-.79.63-1.42 1.4-1.42 2.69 0 5.27-1.09 7.17-3.02l.4-.41c.31-.3.83-.09.83.35z"/><path fill="#578e2e" d="M38.7 22.26l-.16-.02a.71.71 0 0 1-.52-.85c.46-2.04 1.4-2.99 3.35-3.38.37-.07.74.18.82.56a.72.72 0 0 1-.56.84c-1.4.28-1.9.79-2.25 2.3a.7.7 0 0 1-.68.55m-3 7a.7.7 0 0 1-.69-.57.72.72 0 0 1 .56-.84c1.4-.28 1.91-.79 2.25-2.3a.7.7 0 0 1 .84-.53c.37.09.61.47.52.85-.46 2.04-1.4 2.99-3.35 3.38l-.13.01"/><path fill="#578e2e" d="M41.2 24.13c0-1.18-.94-2.13-2.1-2.13-1.16 0-2.1.95-2.1 2.13s.94 2.13 2.1 2.13c1.16 0 2.1-.95 2.1-2.13m-26.4 2.29a.7.7 0 0 0 .7-.71.7.7 0 0 0-.7-.71H12v1.42zm-2.7 3h3.4a.7.7 0 0 0 .7-.71.7.7 0 0 0-.7-.71H12v.71c0 .25.04.48.1.71"/></svg><view viewBox="1209 1024 31 33"/><svg width="31" height="33" viewBox="0 0 31 33" x="1209" y="1024" xmlns="http://www.w3.org/2000/svg"><path fill="#ffda44" d="M10 14.5a1.5 1.5 0 1 1 3 0 1.5 1.5 0 0 1-3 0zm8 5a1.5 1.5 0 1 1 3 0 1.5 1.5 0 0 1-3 0z"/><path fill="#e84e40" d="M30.49 18.73l-.48-.66a2.1 2.1 0 0 1-.02-2.43l.46-.66a2.1 2.1 0 0 0-.71-3.04l-.71-.39a2.08 2.08 0 0 1-1.05-2.18l.14-.8a2.08 2.08 0 0 0-1.94-2.42l-.81-.04a2.04 2.04 0 0 1-1.88-1.49l-.23-.79a2.05 2.05 0 0 0-2.78-1.33l-.75.32a2 2 0 0 1-2.33-.52l-.54-.61a2.03 2.03 0 0 0-3.08.03l-.52.61c-.59.68-1.52.9-2.34.56l-.75-.32a2.05 2.05 0 0 0-2.76 1.38l-.21.79a2.07 2.07 0 0 1-1.86 1.53l-.81.04a2.08 2.08 0 0 0-1.9 2.46l.15.8c.16.88-.25 1.76-1.02 2.19l-.7.4A2.09 2.09 0 0 0 .4 15.2l.47.67c.52.72.53 1.69.02 2.42l-.46.67A2.1 2.1 0 0 0 1.14 22l.71.38c.77.42 1.2 1.3 1.05 2.18l-.13.81a2.06 2.06 0 0 0 1.93 2.42l.81.03c.88.04 1.64.64 1.89 1.5l.22.79a2.05 2.05 0 0 0 2.79 1.32l.74-.32a2.03 2.03 0 0 1 2.34.53l.53.61c.83.92 2.27.92 3.08-.03l.53-.62a2.04 2.04 0 0 1 2.33-.55l.75.31a2.05 2.05 0 0 0 2.76-1.37l.22-.79c.23-.87.98-1.48 1.86-1.53l.8-.04a2.08 2.08 0 0 0 1.9-2.46l-.15-.8a2.1 2.1 0 0 1 1.02-2.2l.71-.4a2.08 2.08 0 0 0 .66-3.04zM8.07 14.26a3.2 3.2 0 0 1 3.18-3.22 3.2 3.2 0 0 1 3.17 3.22 3.2 3.2 0 0 1-3.17 3.22 3.2 3.2 0 0 1-3.18-3.22zm3.79 8.3a.78.78 0 0 1-1.19-1L19 11.38a.77.77 0 0 1 1.09-.1c.33.27.38.77.11 1.1zm7.76.33a3.2 3.2 0 0 1-3.17-3.22 3.2 3.2 0 0 1 3.17-3.22 3.2 3.2 0 0 1 3.18 3.22 3.2 3.2 0 0 1-3.18 3.22z"/></svg><view viewBox="1240 1057 17 16"/><svg width="17" height="16" viewBox="0 0 17 16" x="1240" y="1057" xmlns="http://www.w3.org/2000/svg"><path d="M16.97 6.17c0-.24-.19-.4-.57-.46l-5.12-.73L8.98.41C8.85.14 8.69 0 8.48 0c-.2 0-.37.14-.5.41L5.69 4.98l-5.12.73c-.38.06-.57.22-.57.46 0 .14.09.31.25.49l3.72 3.55-.88 5.02-.02.2c0 .14.03.26.11.36.07.09.17.14.32.14a.9.9 0 0 0 .41-.12l4.57-2.37 4.58 2.37c.14.08.28.12.41.12.14 0 .24-.05.31-.14.07-.1.11-.22.11-.36l-.01-.2-.88-5.02 3.7-3.55c.18-.18.27-.34.27-.49z"/></svg><view viewBox="1257 1073 24 23"/><svg width="24" height="23" viewBox="0 0 24 23" x="1257" y="1073" xmlns="http://www.w3.org/2000/svg"><path fill="#fbd303" d="M22.75 3.35L19.9.5c-.38-.38-.9-.56-1.42-.48l-5.67.75c-.38.05-.72.21-.97.48L1.5 11.58a1.66 1.66 0 0 0 0 2.38l7.79 7.79c.66.67 1.74.67 2.39 0l10.34-10.34c.27-.26.43-.61.48-.96l.75-5.68a1.7 1.7 0 0 0-.5-1.42zm-2.58 2.14a1.7 1.7 0 1 1-2.4-2.4 1.7 1.7 0 0 1 2.4 2.4z"/><path fill="#f8b517" d="M18.51 10.38l-5.14-5.14a.79.79 0 0 0-1.13 0l-7 6.99a.79.79 0 0 0 0 1.13l5.14 5.15c.32.32.82.32 1.13 0l6.98-6.98a.83.83 0 0 0 .02-1.15z"/></svg><view viewBox="1281 1096 13 12"/><svg width="13" height="12" viewBox="0 0 13 12" x="1281" y="1096" xmlns="http://www.w3.org/2000/svg"><path fill="#fff" d="M13 5.29c0-.78-.65-1.41-1.45-1.41H8.89c.65-.7 1.07-1.5 1.15-2.22.05-.44-.09-.88-.38-1.2A1.42 1.42 0 0 0 8.62 0h-.01c-.39 0-.75.14-1.02.41a1.4 1.4 0 0 0-.43.98c-.01.08-.16.37-.52.7-.3.27-.81.65-1.57.89-.29.09-.57.26-.8.51-.13.13-.32.31-.55.49a.8.8 0 0 0-.38-.1H.82a.81.81 0 0 0-.82.8v6.53c0 .44.37.79.82.79h2.52a.8.8 0 0 0 .71-.41h6.45c.68 0 1.24-.54 1.24-1.2 0-.22-.07-.43-.17-.61.35-.21.59-.59.59-1.02 0-.22-.06-.43-.17-.61.35-.21.59-.59.59-1.02 0-.25-.08-.49-.22-.68.39-.25.64-.68.64-1.16zm-1.45.64h-.21a.38.38 0 0 0-.39.38c0 .21.17.38.39.38.25 0 .45.2.45.44 0 .23-.2.43-.45.43h-.42a.38.38 0 0 0-.39.38c0 .21.17.38.39.38.25 0 .45.2.45.44s-.2.43-.45.43h-.42a.38.38 0 0 0-.39.39c0 .21.17.38.39.38.25 0 .45.19.45.43s-.2.44-.45.44H4.16v-3.7a.4.4 0 0 0-.4-.39.38.38 0 0 0-.39.39v4.08c0 .01-.01.02-.03.02H.82c-.02 0-.03-.01-.03-.02V4.68c0-.02.01-.03.03-.03h2.52c.02 0 .03.01.03.03v.81c0 .21.17.38.39.38a.4.4 0 0 0 .4-.38v-.81l-.01-.06c.3-.22.54-.45.69-.61.15-.15.31-.25.48-.3.92-.3 1.55-.77 1.91-1.11.45-.43.72-.88.72-1.2a.6.6 0 0 1 .2-.45.66.66 0 0 1 .92.02.8.8 0 0 1 .19.6c-.09.76-.71 1.71-1.6 2.4a.36.36 0 0 0-.12.42c.05.16.2.26.37.26h3.64c.37 0 .66.29.66.64 0 .35-.29.64-.66.64z"/></svg><view viewBox="1294 1108 34 38"/><svg width="34" height="38" viewBox="0 0 34 38" x="1294" y="1108" xmlns="http://www.w3.org/2000/svg"><path fill="#f7b081" d="M25.04 17.56c-.19-1.17-.82-2.56-2.68-2.56-.27 0-.5.19-.54.45l-.36 2.09a15.7 15.7 0 0 1-.57 2.34c-.67 2.01-1.52 3.05-3.01 3.68l-1.54.67h-2.79a.54.54 0 0 0-.55.54v9.82c0 .3.24.54.55.54h2.72l1.17.94a5.62 5.62 0 0 0 3.49 1.23h3.33a.54.54 0 1 0 .27-1.01V25.47h-.68l1.14-5.72a6 6 0 0 0 .05-2.19z"/><path fill="#efe7e4" d="M13.79 23H9.55a.54.54 0 0 0-.55.54v11.59c0 .3.24.54.55.54h4.24c.3 0 .54-.24.54-.54V23.54c0-.3-.24-.54-.54-.54z"/><path fill="#d8d1d0" d="M9 33v1.62c0 .3.24.54.55.54h4.24c.3 0 .54-.24.54-.54V33z"/><path fill="#dd9a76" d="M23.78 34.93c0-.87.71-1.56 1.58-1.56-.87 0-1.58-.7-1.58-1.57 0-.86.71-1.56 1.58-1.56-.87 0-1.58-.7-1.58-1.56 0-.86.71-1.56 1.58-1.56-.87 0-1.58-.7-1.58-1.56 0-.86.71-1.56 1.58-1.56h-1.79c-.87 0-1.57.7-1.57 1.56 0 .86.7 1.56 1.57 1.56-.87 0-1.57.7-1.57 1.56 0 .86.7 1.56 1.57 1.56a1.56 1.56 0 1 0 0 3.13 1.56 1.56 0 1 0 0 3.12h1.79c-.87 0-1.58-.7-1.58-1.56z"/><path fill="#f7cb4f" d="M10.71 7.84a1 1 0 0 0-.82-.68L7.41 6.8 6.3 4.56A1.04 1.04 0 0 0 5.38 4c-.39 0-.74.22-.91.56L3.36 6.8l-2.49.36a1 1 0 0 0-.56 1.72l1.79 1.74-.42 2.46a1.02 1.02 0 0 0 1.48 1.06l2.22-1.15 2.22 1.15a1 1 0 1 0 1.48-1.06l-.42-2.46 1.79-1.74a1 1 0 0 0 .26-1.04z"/><path fill="#fbab00" d="M10.05 7.01L9.99 7 7.18 9.75a.6.6 0 0 0-.17.54l.66 3.66.09.05a1 1 0 0 0 1.07-.08 1 1 0 0 0 .41-.99l-.42-2.46 1.79-1.73a1 1 0 0 0 .26-1.04 1 1 0 0 0-.82-.69z"/><path fill="#f7cb4f" d="M22.71 3.84a1 1 0 0 0-.82-.68l-2.48-.36L18.3.56a1.04 1.04 0 0 0-.92-.56c-.39 0-.74.22-.91.56L15.36 2.8l-2.49.36a1 1 0 0 0-.56 1.72l1.79 1.74-.42 2.46a1 1 0 0 0 .41.99 1 1 0 0 0 1.07.07l2.22-1.15 2.22 1.15a1.02 1.02 0 0 0 1.08-.07 1 1 0 0 0 .4-.99l-.42-2.46 1.79-1.74a1 1 0 0 0 .26-1.04z"/><path fill="#fbab00" d="M20.83 9.91c.32-.22.48-.6.41-.99l-.42-2.45 1.79-1.74a1 1 0 0 0 .26-1.04 1.02 1.02 0 0 0-.82-.69h-.03l-2.84 2.74a.6.6 0 0 0-.17.54l.51 2.98.13.67.11.06a1 1 0 0 0 1.07-.08z"/><path fill="#f7cb4f" d="M33.71 7.84a1 1 0 0 0-.82-.68l-2.48-.36-1.11-2.24a1.04 1.04 0 0 0-.92-.56c-.39 0-.74.22-.91.56L26.36 6.8l-2.49.36a1 1 0 0 0-.56 1.72l1.79 1.74-.42 2.46a1 1 0 0 0 .41.99 1 1 0 0 0 1.07.07l2.22-1.15 2.22 1.15a1.02 1.02 0 0 0 1.08-.07 1 1 0 0 0 .4-.99l-.42-2.46 1.79-1.74a1 1 0 0 0 .26-1.04z"/><path fill="#fbab00" d="M33.87 7.7a1 1 0 0 0-.82-.69L33 7l-2.82 2.75a.6.6 0 0 0-.17.54l.6 3.62.15.08a1 1 0 0 0 .47.12 1 1 0 0 0 .6-.19 1 1 0 0 0 .41-.99l-.42-2.46 1.79-1.74a.99.99 0 0 0 .26-1.03z"/><path fill="#546f7a" d="M9.72 22H.55a.54.54 0 0 0-.55.54v13.84c0 .3.24.54.55.54h9.17c.3 0 .55-.24.55-.54V22.54c0-.3-.25-.54-.55-.54z"/><path fill="#465a65" d="M0 35v1.54c0 .3.24.54.55.54h9.17c.3 0 .55-.24.55-.54V35z"/><path fill="#353535" d="M6 33a1 1 0 1 1 2 0 1 1 0 0 1-2 0z"/><path fill="#ffc89f" d="M30.51 24h-5.68c-1.01 0-1.83.81-1.83 1.82v.3c0 1 .82 1.81 1.83 1.81h5.68c1.01 0 1.83-.81 1.83-1.81v-.3c0-1.01-.82-1.82-1.83-1.82z"/><path fill="#f7b081" d="M30.51 27.09h-5.68c-.75 0-1.4-.45-1.68-1.09-.1.22-.15.47-.15.72v.31c0 1 .82 1.81 1.83 1.81h5.68c1.01 0 1.83-.81 1.83-1.81v-.31c0-.25-.05-.5-.15-.72a1.83 1.83 0 0 1-1.68 1.09z"/><path fill="#ffc89f" d="M31.18 27h-6.35c-1.01 0-1.83.81-1.83 1.82v.3c0 1 .82 1.81 1.83 1.81h6.35c1.01 0 1.83-.81 1.83-1.81v-.3c0-1.01-.82-1.82-1.83-1.82z"/><path fill="#f7b081" d="M31.18 29.1h-6.35c-.75 0-1.4-.45-1.68-1.1-.1.22-.15.46-.15.72v.3c0 1 .82 1.81 1.83 1.81h6.35c1.01 0 1.83-.81 1.83-1.81v-.3c0-.26-.06-.5-.15-.72-.28.65-.93 1.1-1.68 1.1z"/><path fill="#ffc89f" d="M30.36 30h-5.38c-1.09 0-1.98.88-1.98 1.97 0 1.08.89 1.96 1.98 1.96h5.38c1.09 0 1.98-.88 1.98-1.96 0-1.09-.89-1.97-1.98-1.97z"/><path fill="#f7b081" d="M30.36 32.08h-5.38A2 2 0 0 1 23.21 31a1.98 1.98 0 0 0 1.77 2.85h5.38A1.98 1.98 0 0 0 32.13 31a2 2 0 0 1-1.77 1.08z"/><path fill="#ffc89f" d="M28.88 33h-3.9c-1.09 0-1.98.88-1.98 1.97 0 1.08.89 1.96 1.98 1.96h3.9c1.09 0 1.98-.88 1.98-1.96 0-1.09-.89-1.97-1.98-1.97z"/><path fill="#f7b081" d="M28.88 35.08h-3.9A2 2 0 0 1 23.21 34a1.98 1.98 0 0 0 1.77 2.85h3.9A1.98 1.98 0 0 0 30.65 34a2 2 0 0 1-1.77 1.08z"/></svg><view viewBox="1328 1146 51 51"/><svg width="51" height="51" viewBox="0 0 51 51" x="1328" y="1146" xmlns="http://www.w3.org/2000/svg"><path fill="#4f77a8" d="M0 25.5a25.5 25.5 0 1 1 51 0 25.5 25.5 0 0 1-51 0z"/><path fill="#656d78" d="M20.62 24.75a.5.5 0 0 1-.33-.11.86.86 0 0 1-.29-.67v-3.24c0-.32.15-.61.39-.72l1.84-.95c.2-.1.41-.07.58.07.17.15.27.39.27.65v2.99c0 .3-.13.57-.33.7l-1.85 1.2a.6.6 0 0 1-.28.08z"/><path fill="#434a54" d="M43.64 31.03h-5.07l3.58-3.63a.8.8 0 0 0 0-1.11.77.77 0 0 0-1.09 0l-3.58 3.64v-5.15a.78.78 0 0 0-.77-.78.78.78 0 0 0-.78.78v5.15l-3.58-3.64a.77.77 0 0 0-1.09 0 .8.8 0 0 0 0 1.11l3.58 3.63h-5.07a.78.78 0 0 0 0 1.56h5.07l-3.58 3.64c-.3.3-.3.8 0 1.1.15.16.34.23.54.23s.4-.07.55-.23l3.58-3.63v5.14c0 .43.35.78.78.78.42 0 .77-.35.77-.78V33.7l3.58 3.63c.15.16.35.23.55.23.2 0 .39-.07.54-.23.3-.3.3-.8 0-1.1l-3.58-3.64h5.07a.78.78 0 0 0 0-1.56z"/><path fill="#656d78" d="M36.71 24A7.77 7.77 0 0 0 29 31.81a7.77 7.77 0 0 0 7.71 7.81c4.25 0 7.71-3.5 7.71-7.81A7.77 7.77 0 0 0 36.71 24zm0 14.06c-3.4 0-6.17-2.8-6.17-6.25a6.22 6.22 0 0 1 6.17-6.25c3.4 0 6.16 2.81 6.16 6.25a6.2 6.2 0 0 1-6.16 6.25z"/><path fill="#ccd1d9" d="M34 32.5a2.5 2.5 0 1 1 5 0 2.5 2.5 0 0 1-5 0z"/><path fill="#e6e9ed" d="M36.3 32.53a.78.78 0 0 1-.76-.67l-2.53-17.97a.77.77 0 1 1 1.52-.22l2.54 17.97a.78.78 0 0 1-.66.88l-.11.01z"/><path fill="#b0cd7a" d="M36.58 22.57l-.55-3.9a.77.77 0 0 0-.87-.66l-2.29.33a.78.78 0 0 0-.65.88v.03c-1.66.31-4.32.92-7.23 2.07a30.1 30.1 0 0 0-7.62 4.3 21.16 21.16 0 0 0-6.19 7.73c-.45.98-.03 2.14.93 2.6a1.92 1.92 0 0 0 2.56-.95c1.1-2.38 2.8-4.5 5.06-6.29a25.83 25.83 0 0 1 6.62-3.73 35.96 35.96 0 0 1 6.42-1.86c.03.21.14.39.3.52.16.12.37.17.57.14l2.29-.33c.2-.03.38-.14.51-.3a.8.8 0 0 0 .14-.58z"/><path fill="#434a54" d="M12 39V28h2v11z"/><path fill="#434a54" d="M16.63 37.84L9 30.1l1.09-1.1 7.63 7.73z"/><path fill="#434a54" d="M8 35v-2h11v2z"/><path fill="#434a54" d="M10.09 37.84L9 36.73 16.63 29l1.09 1.1z"/><path fill="#ccd1d9" d="M15.08 33.56c0 .87-.69 1.56-1.54 1.56-.85 0-1.54-.69-1.54-1.56 0-.86.69-1.56 1.54-1.56.85 0 1.54.7 1.54 1.56z"/><path fill="#434a54" d="M26.92 18.53a.88.88 0 0 0-.53-.25c-.1-.01-2.31-.28-4.52-.28-2.4 0-3.87.32-4.52.96-.3.29-.55.79-.12 1.52.32.53 1.07.64 1.65.64.46 0 .98-.06 1.59-.13.75-.08 1.6-.18 2.5-.18 1.58 0 2.58-.5 3.15-.92.6-.44.83-.88.86-.93a.38.38 0 0 0-.06-.43z"/><path fill="#b0cd7a" d="M33.26 14.95a.77.77 0 0 1-.77-.79c0-.21-.08-.38-.27-.56-.31-.3-1.21-.83-3.64-.99-1.47-.1-2.74-.01-2.75-.01a.78.78 0 0 1-.11-1.56c.05 0 1.39-.1 2.96.01 2.22.15 3.76.63 4.6 1.41.49.47.75 1.06.75 1.7 0 .44-.35.79-.77.79z"/><path fill="#656d78" d="M13.17 27C9.77 27 7 29.8 7 33.25a6.22 6.22 0 0 0 6.17 6.25 6.2 6.2 0 0 0 6.16-6.25A6.2 6.2 0 0 0 13.17 27zm0 10.94a4.67 4.67 0 0 1-4.63-4.69 4.66 4.66 0 0 1 4.63-4.69c2.55 0 4.62 2.1 4.62 4.69a4.66 4.66 0 0 1-4.62 4.69z"/><path fill="#b0cd7a" d="M25.77 15.26a.76.76 0 0 1-.74-.59.77.77 0 0 1 .55-.95c.06-.02 1.53-.41 3.24-.6 2.49-.3 4.11-.04 4.97.79.31.3.32.79.03 1.11a.76.76 0 0 1-1.09.02c-.23-.21-1.04-.69-3.72-.37-1.6.18-3.03.56-3.04.56a.7.7 0 0 1-.2.03z"/></svg><view viewBox="1379 1197 37 31"/><svg width="37" height="31" viewBox="0 0 37 31" x="1379" y="1197" xmlns="http://www.w3.org/2000/svg"><path fill="#ffd05b" d="M8 26V6h25v20z"/><path fill="#f9b54c" d="M29 26V6h1v20zm-4 0V6h1v20zm-5 0V6h1v20zm-4 0V6h1v20zm-5 0V6h1v20z"/><path fill="#e6e9ee" d="M8 12V9h25v3z"/><path fill="#ced5e0" d="M31 10.5a.5.5 0 1 1 1 0 .5.5 0 0 1-1 0zm-4 0a.5.5 0 1 1 1 0 .5.5 0 0 1-1 0zm-5 0a.5.5 0 1 1 1 0 .5.5 0 0 1-1 0zm-4 0a.5.5 0 1 1 1 0 .5.5 0 0 1-1 0zm-4 0a.5.5 0 1 1 1 0 .5.5 0 0 1-1 0zm-4 0a.5.5 0 1 1 1 0 .5.5 0 0 1-1 0z"/><path fill="#e6e9ee" d="M8 23v-3h25v3z"/><path fill="#ced5e0" d="M31 21.5a.5.5 0 1 1 1 0 .5.5 0 0 1-1 0zm-4 0a.5.5 0 1 1 1 0 .5.5 0 0 1-1 0zm-5 0a.5.5 0 1 1 1 0 .5.5 0 0 1-1 0zm-4 0a.5.5 0 1 1 1 0 .5.5 0 0 1-1 0zm-4 0a.5.5 0 1 1 1 0 .5.5 0 0 1-1 0zm-4 0a.5.5 0 1 1 1 0 .5.5 0 0 1-1 0z"/><path fill="#84dbff" d="M35.82 27.13H4.89a.8.8 0 0 1-.81-.81V6.22L.24 2.38a.8.8 0 0 1 0-1.14.8.8 0 0 1 1.14 0l4.08 4.07c.15.16.23.36.23.58V25.5h30.13a.81.81 0 0 1 0 1.63z"/><path fill="#2b3b4e" d="M28 28a3 3 0 1 1 6 0 3 3 0 0 1-6 0z"/><path fill="#e6e9ee" d="M29 28a2 2 0 1 1 4 0 2 2 0 0 1-4 0z"/><path fill="#2b3b4e" d="M6 28a3 3 0 1 1 6 0 3 3 0 0 1-6 0z"/><path fill="#e6e9ee" d="M8 28a2 2 0 1 1 4 0 2 2 0 0 1-4 0z"/></svg><view viewBox="1416 1228 22 18"/><svg width="22" height="18" viewBox="0 0 22 18" x="1416" y="1228" xmlns="http://www.w3.org/2000/svg"><path fill="#f1f2f2" d="M21.4 2.06c-.79.35-1.63.58-2.52.69.91-.54 1.6-1.4 1.93-2.43-.85.5-1.79.87-2.79 1.07a4.39 4.39 0 0 0-7.48 4A12.45 12.45 0 0 1 1.49.8a4.38 4.38 0 0 0 1.36 5.87 4.45 4.45 0 0 1-1.99-.55v.05a4.4 4.4 0 0 0 3.52 4.31 4.45 4.45 0 0 1-1.98.07 4.38 4.38 0 0 0 4.1 3.05A8.8 8.8 0 0 1 0 15.42a12.38 12.38 0 0 0 6.73 1.97c8.08 0 12.49-6.69 12.49-12.49l-.01-.57a8.92 8.92 0 0 0 2.19-2.27z"/></svg><view viewBox="1438 1246 22 21"/><svg width="22" height="21" viewBox="0 0 22 21" x="1438" y="1246" xmlns="http://www.w3.org/2000/svg"><path fill="#ecf0f1" d="M7.12 15.24l-2.69 1.44c-.16.09-.3.19-.43.3a9.04 9.04 0 0 0 5.81 2.09c2.2 0 4.21-.77 5.77-2.06-.14-.12-.3-.22-.47-.31l-2.88-1.42a1.07 1.07 0 0 1-.61-.96V13.2l.27-.34c.4-.55.69-1.15.9-1.78a.9.9 0 0 0 .64-.85V9.05a.9.9 0 0 0-.3-.66V6.67S13.49 4 9.81 4C6.13 4 6.49 6.67 6.49 6.67v1.72a.9.9 0 0 0-.3.66v1.18c0 .32.17.59.42.75.3 1.29 1.09 2.22 1.09 2.22v1.09c0 .39-.22.76-.58.95z"/><path fill="#78d6ff" d="M10.18 1A8.96 8.96 0 0 0 1 9.72a8.77 8.77 0 0 0 3.22 6.94c.13-.11.27-.21.42-.3l2.7-1.44c.35-.19.57-.56.57-.95v-1.09s-.79-.93-1.09-2.22a.89.89 0 0 1-.42-.75V8.73c0-.27.12-.5.3-.66V6.35s-.36-2.67 3.32-2.67c3.68 0 3.32 2.67 3.32 2.67v1.72c.19.16.3.39.3.66v1.18a.9.9 0 0 1-.64.85c-.21.63-.5 1.23-.9 1.78-.09.14-.19.25-.27.34V14c0 .4.24.78.61.96l2.88 1.42c.18.09.33.19.48.31a8.77 8.77 0 0 0 3.24-6.66A8.94 8.94 0 0 0 10.18 1z"/><path fill="#71c386" d="M10 15a6 6 0 1 1 12 0 6 6 0 0 1-12 0z"/><path fill="#fff" d="M18.47 13.94h-2.49v-2.45a.5.5 0 0 0-.49-.49.5.5 0 0 0-.5.49v2.45H12.5a.5.5 0 0 0-.5.49c0 .27.22.49.5.49h2.49v2.45c0 .27.22.49.5.49a.5.5 0 0 0 .49-.49v-2.45h2.49a.5.5 0 0 0 .5-.49.5.5 0 0 0-.5-.49z"/></svg></svg>